ISO-10303-21;
HEADER;
/* Generated by software containing ST-Developer
 * from STEP Tools, Inc. (www.steptools.com) 
 */

FILE_DESCRIPTION(
/* description */ ('Alibre Inc.'),
/* implementation_level */ '2;1');

FILE_NAME(
/* name */ 'export-3D697EA1-5FC2-48BF-B3FC-EBCCD4137597',
/* time_stamp */ '2026-04-14T14:02:05+02:00',
/* author */ (''),
/* organization */ (''),
/* preprocessor_version */ 'ST-DEVELOPER v17',
/* originating_system */ 'Alibre',
/* authorisation */ '');

FILE_SCHEMA (('CONFIG_CONTROL_DESIGN'));
ENDSEC;

DATA;
#10=MECHANICAL_CONTEXT('detailed design',#18,'mechanical');
#11=PRODUCT_RELATED_PRODUCT_CATEGORY('szczeg\X\F3\X2\0142\X0\','',(#97));
#12=CC_DESIGN_SECURITY_CLASSIFICATION(#14,(#96));
#13=SECURITY_CLASSIFICATION_LEVEL('unclassified');
#14=SECURITY_CLASSIFICATION('nazwa','Zabezpieczenie dla sesji',#13);
#15=SHAPE_DEFINITION_REPRESENTATION(#16,#1831);
#16=PRODUCT_DEFINITION_SHAPE('','Opis definicji',#95);
#17=APPLICATION_PROTOCOL_DEFINITION('AP definition status',
'config_control_design',1994,#18);
#18=APPLICATION_CONTEXT(
'control the configuration of three dimensional design');
#19=DESIGN_CONTEXT('detailed design',#18,'design');
#20=PERSON_AND_ORGANIZATION_ROLE('creator');
#21=PERSON_AND_ORGANIZATION_ROLE('classification_officer');
#22=PERSON_AND_ORGANIZATION_ROLE('creator');
#23=PERSON_AND_ORGANIZATION_ROLE('design_supplier');
#24=PERSON_AND_ORGANIZATION_ROLE('design_owner');
#25=CC_DESIGN_PERSON_AND_ORGANIZATION_ASSIGNMENT(#56,#20,(#95));
#26=CC_DESIGN_PERSON_AND_ORGANIZATION_ASSIGNMENT(#59,#21,(#14));
#27=CC_DESIGN_PERSON_AND_ORGANIZATION_ASSIGNMENT(#60,#22,(#96));
#28=CC_DESIGN_PERSON_AND_ORGANIZATION_ASSIGNMENT(#61,#23,(#96));
#29=CC_DESIGN_PERSON_AND_ORGANIZATION_ASSIGNMENT(#62,#24,(#97));
#30=DATE_TIME_ROLE('creation_date');
#31=DATE_TIME_ROLE('classification_date');
#32=CC_DESIGN_DATE_AND_TIME_ASSIGNMENT(#85,#30,(#95));
#33=CC_DESIGN_DATE_AND_TIME_ASSIGNMENT(#88,#31,(#14));
#34=CC_DESIGN_APPROVAL(#92,(#95));
#35=CC_DESIGN_APPROVAL(#93,(#96));
#36=CC_DESIGN_APPROVAL(#94,(#14));
#37=APPROVAL_PERSON_ORGANIZATION(#55,#92,#63);
#38=APPROVAL_PERSON_ORGANIZATION(#57,#93,#64);
#39=APPROVAL_PERSON_ORGANIZATION(#58,#94,#65);
#40=ORGANIZATION('NUMER_ID_DEFINICJI_ORGANIZACJI_ZATWIERDZAJ\X2\0104\X0\C
EJ','NAZWA_DEFINICJI_ORGANIZACJI_ZATWIERDZAJ\X2\0104\X0\CEJ',
'DEFINICJA_ZATWIERDZONA_PRZEZ_ORGANIZACJ\X2\0118\X0\');
#41=ORGANIZATION('NUMER_ID_ORGANIZACJI_KONSTRUKTORA',
'NAZWA_ORGANIZACI_KONSTRUKTORA','OPIS_ORGANIZACJI_KONSTRUKTORA');
#42=ORGANIZATION('NUMER_ID_ORGANIZACJI_ZATWIERDZAJ\X2\0104\X0\CEJ',
'NAZWA_ORGAZNIZACJI_ZATWIERDZAJ\X2\0104\X0\CEJ',
'ORGANIZACJA_ZATWIERDZAJ\X2\0104\X0\CA');
#43=ORGANIZATION('NUMER_ID_ZABEZPIECZE\X2\0143\X0\_ZATWIERDZONYCH_PRZE
Z','ZABEZPIECZENIE_ZATWIERDZONE_PRZEZ_ORGANIZACJ\X2\0118\X0\',
'ZABEZPIECZENIE_ZATWIERDZONE_PRZEZ_(OPIS_ORGANIZACJI)');
#44=ORGANIZATION('NUMER_ID_KLASYFIKATORA',
'NAZWA_KLASYFIKATORA_ORGANIZACJI','OPIS_KLASYFIKATORA_ORGANIZACJI');
#45=ORGANIZATION('NUMER_ID_DOSTAWCY_ORGANIZACJI',
'NAZWA_DOSTAWCY_ORGANIZACJI','OPIS_ORGANIZACJI_DOSTAWCY');
#46=ORGANIZATION('NUMER_ID_ORGANIZACJI_W\X2\0141\X0\A\X2\015A\X0\CICIE
LA','NAZWA_ORGANIZACJI_W\X2\0141\X0\A\X2\015A\X0\CICIELA',
'OPIS_ORGANIZACJI_W\X2\0141\X0\A\X2\015A\X0\CICIELA');
#47=PERSON('IDzatwierdzaj\X2\0105\X0\cego_DEFINICJ\X2\0118\X0\',
'DEFINICJA_ZATWIERDZONA_PRZEZ_NAZWISKO',
'IMI\X2\0118\X0\_OSOBY_ZATWIERDZAJ\X2\0104\X0\CEJ_DEFINICJ\X2\0118\X0\',
$,$,$);
#48=PERSON('NUMER_IDtw\X\F3rcy','NAZWISKO_KONSTRUKTORA',
'IMI\X2\0118\X0\_KONSTRUKTORA',$,$,$);
#49=PERSON('IDzatwierdzaj\X2\0105\X0\cego',
'ZATWIERDZONE_PRZEZ_NAZWISKO','ZATWIERDZONE_PRZEZ_IMI\X2\0118\X0\',$,$,
$);
#50=PERSON('IDzatwierdzaj\X2\0105\X0\cego_zabezpieczenie',
'NAZWISKO_ZABEZPIECZAJ\X2\0104\X0\CEGO',
'ZABEZPIECZENIE_ZATWIERDZONE_PRZEZ_(IMI\X2\0118\X0\)',$,$,$);
#51=PERSON('IDKlasyfikatora','NAZWISKO_KLASYFIKATORA',
'IMIE_KLASYFIKATORA',$,$,$);
#52=PERSON('IDautora','NAZWISKO_AUTORA','IMI\X2\0118\X0\_AUTORA',$,$,$);
#53=PERSON('IDdostawcy','NAZWISKO_DOSTAWCY','IMI\X2\0118\X0\_DOSTAWCY',
$,$,$);
#54=PERSON('w\X2\0142\X0\a\X2\015B\X0\ciciel ID',
'NAZWISKO_W\X2\0141\X0\A\X2\015A\X0\CICIELA','IMIE_AUTORA',$,$,$);
#55=PERSON_AND_ORGANIZATION(#47,#40);
#56=PERSON_AND_ORGANIZATION(#48,#41);
#57=PERSON_AND_ORGANIZATION(#49,#42);
#58=PERSON_AND_ORGANIZATION(#50,#43);
#59=PERSON_AND_ORGANIZATION(#51,#44);
#60=PERSON_AND_ORGANIZATION(#52,#41);
#61=PERSON_AND_ORGANIZATION(#53,#45);
#62=PERSON_AND_ORGANIZATION(#54,#46);
#63=APPROVAL_ROLE('definition_approval');
#64=APPROVAL_ROLE('version_approval');
#65=APPROVAL_ROLE('security_approval');
#66=APPROVAL_DATE_TIME(#84,#92);
#67=APPROVAL_DATE_TIME(#86,#93);
#68=APPROVAL_DATE_TIME(#87,#94);
#69=COORDINATED_UNIVERSAL_TIME_OFFSET(2,0,.AHEAD.);
#70=COORDINATED_UNIVERSAL_TIME_OFFSET(2,0,.AHEAD.);
#71=COORDINATED_UNIVERSAL_TIME_OFFSET(2,0,.AHEAD.);
#72=COORDINATED_UNIVERSAL_TIME_OFFSET(2,0,.AHEAD.);
#73=COORDINATED_UNIVERSAL_TIME_OFFSET(2,0,.AHEAD.);
#74=LOCAL_TIME(14,1,13.,#69);
#75=LOCAL_TIME(14,1,13.,#70);
#76=LOCAL_TIME(14,1,13.,#71);
#77=LOCAL_TIME(14,1,13.,#72);
#78=LOCAL_TIME(14,1,13.,#73);
#79=CALENDAR_DATE(2026,14,4);
#80=CALENDAR_DATE(2026,14,4);
#81=CALENDAR_DATE(2026,14,4);
#82=CALENDAR_DATE(2026,14,4);
#83=CALENDAR_DATE(2026,14,4);
#84=DATE_AND_TIME(#79,#74);
#85=DATE_AND_TIME(#80,#75);
#86=DATE_AND_TIME(#81,#76);
#87=DATE_AND_TIME(#82,#77);
#88=DATE_AND_TIME(#83,#78);
#89=APPROVAL_STATUS('not_yet_approved');
#90=APPROVAL_STATUS('not_yet_approved');
#91=APPROVAL_STATUS('not_yet_approved');
#92=APPROVAL(#89,'zatwierdzenie definicji');
#93=APPROVAL(#90,'zatwierdzenie wersji');
#94=APPROVAL(#91,'zatwierdzenie zabezpieczenia');
#95=PRODUCT_DEFINITION('definicja ID','Opis definicji',#96,#19);
#96=PRODUCT_DEFINITION_FORMATION_WITH_SPECIFIED_SOURCE(
'ID_WERSJI_PRODUKTU','OPIS_WERSJI_PRODUKTU',#97,.NOT_KNOWN.);
#97=PRODUCT('Basis','Basis','',(#10));
#98=(
LENGTH_UNIT()
NAMED_UNIT(*)
SI_UNIT(.MILLI.,.METRE.)
);
#99=(
NAMED_UNIT(*)
PLANE_ANGLE_UNIT()
SI_UNIT($,.RADIAN.)
);
#100=(
NAMED_UNIT(*)
SI_UNIT($,.STERADIAN.)
SOLID_ANGLE_UNIT()
);
#101=UNCERTAINTY_MEASURE_WITH_UNIT(LENGTH_MEASURE(1.E-6),#98,
'DISTANCE_ACCURACY_VALUE',
'Maximum model space distance between geometric entities at asserted c
onnectivities');
#102=(
GEOMETRIC_REPRESENTATION_CONTEXT(3)
GLOBAL_UNCERTAINTY_ASSIGNED_CONTEXT((#101))
GLOBAL_UNIT_ASSIGNED_CONTEXT((#100,#99,#98))
REPRESENTATION_CONTEXT('ID1','3D')
);
#103=CYLINDRICAL_SURFACE('',#1183,1.6);
#104=CYLINDRICAL_SURFACE('',#1186,1.6);
#105=CYLINDRICAL_SURFACE('',#1192,3.4);
#106=CYLINDRICAL_SURFACE('',#1196,1.3);
#107=CYLINDRICAL_SURFACE('',#1198,2.8);
#108=CYLINDRICAL_SURFACE('',#1231,1.6);
#109=CYLINDRICAL_SURFACE('',#1233,1.6);
#110=CYLINDRICAL_SURFACE('',#1234,1.3);
#111=CYLINDRICAL_SURFACE('',#1235,2.8);
#112=CONICAL_SURFACE('',#1176,2.35,0.785398163397448);
#113=CONICAL_SURFACE('',#1184,2.35,0.785398163397448);
#114=CONICAL_SURFACE('',#1230,2.35,0.785398163397448);
#115=CONICAL_SURFACE('',#1232,2.35,0.785398163397448);
#116=B_SPLINE_CURVE_WITH_KNOTS('',2,(#1514,#1515,#1516),.UNSPECIFIED.,.F.,
 .U.,(3,3),(0.,0.156843871413571),.UNSPECIFIED.);
#117=B_SPLINE_CURVE_WITH_KNOTS('',2,(#1537,#1538,#1539),.UNSPECIFIED.,.F.,
 .U.,(3,3),(0.,0.156843871413571),.UNSPECIFIED.);
#118=CIRCLE('',#1164,1.3);
#119=CIRCLE('',#1165,1.6);
#120=CIRCLE('',#1166,1.6);
#121=CIRCLE('',#1177,3.1);
#122=CIRCLE('',#1178,3.1);
#123=CIRCLE('',#1179,1.6);
#124=CIRCLE('',#1181,3.1);
#125=CIRCLE('',#1182,3.1);
#126=CIRCLE('',#1185,1.6);
#127=CIRCLE('',#1189,3.4);
#128=CIRCLE('',#1191,3.4);
#129=CIRCLE('',#1193,3.4);
#130=CIRCLE('',#1194,3.4);
#131=CIRCLE('',#1197,1.3);
#132=CIRCLE('',#1199,2.8);
#133=CIRCLE('',#1200,2.8);
#134=VERTEX_POINT('',#1472);
#135=VERTEX_POINT('',#1473);
#136=VERTEX_POINT('',#1475);
#137=VERTEX_POINT('',#1477);
#138=VERTEX_POINT('',#1479);
#139=VERTEX_POINT('',#1481);
#140=VERTEX_POINT('',#1483);
#141=VERTEX_POINT('',#1485);
#142=VERTEX_POINT('',#1487);
#143=VERTEX_POINT('',#1489);
#144=VERTEX_POINT('',#1491);
#145=VERTEX_POINT('',#1493);
#146=VERTEX_POINT('',#1496);
#147=VERTEX_POINT('',#1497);
#148=VERTEX_POINT('',#1499);
#149=VERTEX_POINT('',#1500);
#150=VERTEX_POINT('',#1502);
#151=VERTEX_POINT('',#1503);
#152=VERTEX_POINT('',#1506);
#153=VERTEX_POINT('',#1507);
#154=VERTEX_POINT('',#1509);
#155=VERTEX_POINT('',#1511);
#156=VERTEX_POINT('',#1517);
#157=VERTEX_POINT('',#1518);
#158=VERTEX_POINT('',#1520);
#159=VERTEX_POINT('',#1522);
#160=VERTEX_POINT('',#1532);
#161=VERTEX_POINT('',#1534);
#162=VERTEX_POINT('',#1540);
#163=VERTEX_POINT('',#1541);
#164=VERTEX_POINT('',#1543);
#165=VERTEX_POINT('',#1545);
#166=VERTEX_POINT('',#1550);
#167=VERTEX_POINT('',#1552);
#168=VERTEX_POINT('',#1560);
#169=VERTEX_POINT('',#1561);
#170=VERTEX_POINT('',#1564);
#171=VERTEX_POINT('',#1566);
#172=VERTEX_POINT('',#1570);
#173=VERTEX_POINT('',#1572);
#174=VERTEX_POINT('',#1574);
#175=VERTEX_POINT('',#1576);
#176=VERTEX_POINT('',#1578);
#177=VERTEX_POINT('',#1580);
#178=VERTEX_POINT('',#1582);
#179=VERTEX_POINT('',#1584);
#180=VERTEX_POINT('',#1586);
#181=VERTEX_POINT('',#1588);
#182=VERTEX_POINT('',#1590);
#183=VERTEX_POINT('',#1592);
#184=VERTEX_POINT('',#1594);
#185=VERTEX_POINT('',#1596);
#186=VERTEX_POINT('',#1598);
#187=VERTEX_POINT('',#1600);
#188=VERTEX_POINT('',#1602);
#189=VERTEX_POINT('',#1604);
#190=VERTEX_POINT('',#1606);
#191=VERTEX_POINT('',#1609);
#192=VERTEX_POINT('',#1611);
#193=VERTEX_POINT('',#1617);
#194=VERTEX_POINT('',#1619);
#195=VERTEX_POINT('',#1632);
#196=VERTEX_POINT('',#1633);
#197=VERTEX_POINT('',#1640);
#198=VERTEX_POINT('',#1644);
#199=VERTEX_POINT('',#1646);
#200=VERTEX_POINT('',#1650);
#201=VERTEX_POINT('',#1651);
#202=VERTEX_POINT('',#1653);
#203=VERTEX_POINT('',#1655);
#204=VERTEX_POINT('',#1660);
#205=VERTEX_POINT('',#1661);
#206=VERTEX_POINT('',#1663);
#207=VERTEX_POINT('',#1665);
#208=VERTEX_POINT('',#1667);
#209=VERTEX_POINT('',#1670);
#210=VERTEX_POINT('',#1672);
#211=VERTEX_POINT('',#1676);
#212=VERTEX_POINT('',#1678);
#213=VERTEX_POINT('',#1682);
#214=VERTEX_POINT('',#1686);
#215=VERTEX_POINT('',#1690);
#216=VERTEX_POINT('',#1694);
#217=VERTEX_POINT('',#1698);
#218=VERTEX_POINT('',#1702);
#219=VERTEX_POINT('',#1704);
#220=VERTEX_POINT('',#1706);
#221=VERTEX_POINT('',#1708);
#222=VERTEX_POINT('',#1710);
#223=VERTEX_POINT('',#1712);
#224=VERTEX_POINT('',#1714);
#225=VERTEX_POINT('',#1718);
#226=VERTEX_POINT('',#1720);
#227=VERTEX_POINT('',#1724);
#228=VERTEX_POINT('',#1725);
#229=VERTEX_POINT('',#1727);
#230=VERTEX_POINT('',#1729);
#231=VERTEX_POINT('',#1731);
#232=VERTEX_POINT('',#1733);
#233=VERTEX_POINT('',#1736);
#234=VERTEX_POINT('',#1738);
#235=VERTEX_POINT('',#1740);
#236=VERTEX_POINT('',#1742);
#237=VERTEX_POINT('',#1744);
#238=VECTOR('',#1237,1.);
#239=VECTOR('',#1238,1.);
#240=VECTOR('',#1239,1.);
#241=VECTOR('',#1240,1.);
#242=VECTOR('',#1241,1.);
#243=VECTOR('',#1242,1.);
#244=VECTOR('',#1243,1.);
#245=VECTOR('',#1244,1.);
#246=VECTOR('',#1245,1.);
#247=VECTOR('',#1246,1.);
#248=VECTOR('',#1247,1.);
#249=VECTOR('',#1248,1.);
#250=VECTOR('',#1256,1.);
#251=VECTOR('',#1257,1.);
#252=VECTOR('',#1258,1.);
#253=VECTOR('',#1259,1.);
#254=VECTOR('',#1261,1.);
#255=VECTOR('',#1262,1.);
#256=VECTOR('',#1263,1.);
#257=VECTOR('',#1264,1.);
#258=VECTOR('',#1266,1.);
#259=VECTOR('',#1267,1.);
#260=VECTOR('',#1269,1.);
#261=VECTOR('',#1271,1.);
#262=VECTOR('',#1272,1.);
#263=VECTOR('',#1273,1.);
#264=VECTOR('',#1275,1.);
#265=VECTOR('',#1276,1.);
#266=VECTOR('',#1277,1.);
#267=VECTOR('',#1278,1.);
#268=VECTOR('',#1280,1.);
#269=VECTOR('',#1281,1.);
#270=VECTOR('',#1282,1.);
#271=VECTOR('',#1284,1.);
#272=VECTOR('',#1286,1.);
#273=VECTOR('',#1289,1.);
#274=VECTOR('',#1294,1.);
#275=VECTOR('',#1298,1.);
#276=VECTOR('',#1299,1.);
#277=VECTOR('',#1300,1.);
#278=VECTOR('',#1301,1.);
#279=VECTOR('',#1302,1.);
#280=VECTOR('',#1303,1.);
#281=VECTOR('',#1304,1.);
#282=VECTOR('',#1305,1.);
#283=VECTOR('',#1306,1.);
#284=VECTOR('',#1307,1.);
#285=VECTOR('',#1308,1.);
#286=VECTOR('',#1309,1.);
#287=VECTOR('',#1310,1.);
#288=VECTOR('',#1311,1.);
#289=VECTOR('',#1312,1.);
#290=VECTOR('',#1313,1.);
#291=VECTOR('',#1314,1.);
#292=VECTOR('',#1315,1.);
#293=VECTOR('',#1316,1.);
#294=VECTOR('',#1317,1.);
#295=VECTOR('',#1324,1.);
#296=VECTOR('',#1325,1.);
#297=VECTOR('',#1328,1.);
#298=VECTOR('',#1329,1.);
#299=VECTOR('',#1334,1.);
#300=VECTOR('',#1335,1.);
#301=VECTOR('',#1337,1.);
#302=VECTOR('',#1341,1.);
#303=VECTOR('',#1342,1.);
#304=VECTOR('',#1344,1.);
#305=VECTOR('',#1354,1.);
#306=VECTOR('',#1355,1.);
#307=VECTOR('',#1358,1.);
#308=VECTOR('',#1361,1.);
#309=VECTOR('',#1364,1.);
#310=VECTOR('',#1367,1.);
#311=VECTOR('',#1372,1.);
#312=VECTOR('',#1373,1.);
#313=VECTOR('',#1374,1.);
#314=VECTOR('',#1375,1.);
#315=VECTOR('',#1376,1.);
#316=VECTOR('',#1377,1.);
#317=VECTOR('',#1378,1.);
#318=VECTOR('',#1379,1.);
#319=VECTOR('',#1381,1.);
#320=VECTOR('',#1382,1.);
#321=VECTOR('',#1383,1.);
#322=VECTOR('',#1385,1.);
#323=VECTOR('',#1386,1.);
#324=VECTOR('',#1388,1.);
#325=VECTOR('',#1389,1.);
#326=VECTOR('',#1391,1.);
#327=VECTOR('',#1392,1.);
#328=VECTOR('',#1394,1.);
#329=VECTOR('',#1395,1.);
#330=VECTOR('',#1397,1.);
#331=VECTOR('',#1398,1.);
#332=VECTOR('',#1400,1.);
#333=VECTOR('',#1401,1.);
#334=VECTOR('',#1402,1.);
#335=VECTOR('',#1403,1.);
#336=VECTOR('',#1404,1.);
#337=VECTOR('',#1405,1.);
#338=VECTOR('',#1406,1.);
#339=VECTOR('',#1407,1.);
#340=VECTOR('',#1409,1.);
#341=VECTOR('',#1410,1.);
#342=VECTOR('',#1411,1.);
#343=VECTOR('',#1413,1.);
#344=VECTOR('',#1414,1.);
#345=VECTOR('',#1415,1.);
#346=VECTOR('',#1416,1.);
#347=VECTOR('',#1417,1.);
#348=VECTOR('',#1418,1.);
#349=VECTOR('',#1419,1.);
#350=VECTOR('',#1420,1.);
#351=VECTOR('',#1421,1.);
#352=VECTOR('',#1422,1.);
#353=VECTOR('',#1423,1.);
#354=VECTOR('',#1424,1.);
#355=VECTOR('',#1426,1.);
#356=VECTOR('',#1428,1.);
#357=VECTOR('',#1429,1.);
#358=VECTOR('',#1431,1.);
#359=VECTOR('',#1433,1.);
#360=VECTOR('',#1436,1.);
#361=VECTOR('',#1438,1.);
#362=VECTOR('',#1440,1.);
#363=VECTOR('',#1442,1.);
#364=VECTOR('',#1444,1.);
#365=VECTOR('',#1446,1.);
#366=VECTOR('',#1448,1.);
#367=VECTOR('',#1451,1.);
#368=VECTOR('',#1453,1.);
#369=VECTOR('',#1456,1.);
#370=LINE('',#1471,#238);
#371=LINE('',#1474,#239);
#372=LINE('',#1476,#240);
#373=LINE('',#1478,#241);
#374=LINE('',#1480,#242);
#375=LINE('',#1482,#243);
#376=LINE('',#1484,#244);
#377=LINE('',#1486,#245);
#378=LINE('',#1488,#246);
#379=LINE('',#1490,#247);
#380=LINE('',#1492,#248);
#381=LINE('',#1494,#249);
#382=LINE('',#1505,#250);
#383=LINE('',#1508,#251);
#384=LINE('',#1510,#252);
#385=LINE('',#1512,#253);
#386=LINE('',#1519,#254);
#387=LINE('',#1521,#255);
#388=LINE('',#1523,#256);
#389=LINE('',#1524,#257);
#390=LINE('',#1526,#258);
#391=LINE('',#1527,#259);
#392=LINE('',#1529,#260);
#393=LINE('',#1531,#261);
#394=LINE('',#1533,#262);
#395=LINE('',#1535,#263);
#396=LINE('',#1542,#264);
#397=LINE('',#1544,#265);
#398=LINE('',#1546,#266);
#399=LINE('',#1547,#267);
#400=LINE('',#1549,#268);
#401=LINE('',#1551,#269);
#402=LINE('',#1553,#270);
#403=LINE('',#1555,#271);
#404=LINE('',#1557,#272);
#405=LINE('',#1559,#273);
#406=LINE('',#1565,#274);
#407=LINE('',#1569,#275);
#408=LINE('',#1571,#276);
#409=LINE('',#1573,#277);
#410=LINE('',#1575,#278);
#411=LINE('',#1577,#279);
#412=LINE('',#1579,#280);
#413=LINE('',#1581,#281);
#414=LINE('',#1583,#282);
#415=LINE('',#1585,#283);
#416=LINE('',#1587,#284);
#417=LINE('',#1589,#285);
#418=LINE('',#1591,#286);
#419=LINE('',#1593,#287);
#420=LINE('',#1595,#288);
#421=LINE('',#1597,#289);
#422=LINE('',#1599,#290);
#423=LINE('',#1601,#291);
#424=LINE('',#1603,#292);
#425=LINE('',#1605,#293);
#426=LINE('',#1607,#294);
#427=LINE('',#1613,#295);
#428=LINE('',#1614,#296);
#429=LINE('',#1616,#297);
#430=LINE('',#1618,#298);
#431=LINE('',#1622,#299);
#432=LINE('',#1623,#300);
#433=LINE('',#1625,#301);
#434=LINE('',#1628,#302);
#435=LINE('',#1629,#303);
#436=LINE('',#1631,#304);
#437=LINE('',#1639,#305);
#438=LINE('',#1641,#306);
#439=LINE('',#1643,#307);
#440=LINE('',#1647,#308);
#441=LINE('',#1649,#309);
#442=LINE('',#1654,#310);
#443=LINE('',#1659,#311);
#444=LINE('',#1662,#312);
#445=LINE('',#1664,#313);
#446=LINE('',#1666,#314);
#447=LINE('',#1668,#315);
#448=LINE('',#1669,#316);
#449=LINE('',#1671,#317);
#450=LINE('',#1673,#318);
#451=LINE('',#1675,#319);
#452=LINE('',#1677,#320);
#453=LINE('',#1679,#321);
#454=LINE('',#1681,#322);
#455=LINE('',#1683,#323);
#456=LINE('',#1685,#324);
#457=LINE('',#1687,#325);
#458=LINE('',#1689,#326);
#459=LINE('',#1691,#327);
#460=LINE('',#1693,#328);
#461=LINE('',#1695,#329);
#462=LINE('',#1697,#330);
#463=LINE('',#1699,#331);
#464=LINE('',#1701,#332);
#465=LINE('',#1703,#333);
#466=LINE('',#1705,#334);
#467=LINE('',#1707,#335);
#468=LINE('',#1709,#336);
#469=LINE('',#1711,#337);
#470=LINE('',#1713,#338);
#471=LINE('',#1715,#339);
#472=LINE('',#1717,#340);
#473=LINE('',#1719,#341);
#474=LINE('',#1721,#342);
#475=LINE('',#1723,#343);
#476=LINE('',#1726,#344);
#477=LINE('',#1728,#345);
#478=LINE('',#1730,#346);
#479=LINE('',#1732,#347);
#480=LINE('',#1734,#348);
#481=LINE('',#1735,#349);
#482=LINE('',#1737,#350);
#483=LINE('',#1739,#351);
#484=LINE('',#1741,#352);
#485=LINE('',#1743,#353);
#486=LINE('',#1745,#354);
#487=LINE('',#1747,#355);
#488=LINE('',#1749,#356);
#489=LINE('',#1750,#357);
#490=LINE('',#1752,#358);
#491=LINE('',#1754,#359);
#492=LINE('',#1757,#360);
#493=LINE('',#1759,#361);
#494=LINE('',#1761,#362);
#495=LINE('',#1763,#363);
#496=LINE('',#1765,#364);
#497=LINE('',#1767,#365);
#498=LINE('',#1769,#366);
#499=LINE('',#1772,#367);
#500=LINE('',#1774,#368);
#501=LINE('',#1777,#369);
#502=EDGE_CURVE('',#134,#135,#370,.T.);
#503=EDGE_CURVE('',#135,#136,#371,.T.);
#504=EDGE_CURVE('',#136,#137,#372,.T.);
#505=EDGE_CURVE('',#137,#138,#373,.T.);
#506=EDGE_CURVE('',#138,#139,#374,.T.);
#507=EDGE_CURVE('',#139,#140,#375,.T.);
#508=EDGE_CURVE('',#140,#141,#376,.T.);
#509=EDGE_CURVE('',#141,#142,#377,.T.);
#510=EDGE_CURVE('',#142,#143,#378,.T.);
#511=EDGE_CURVE('',#143,#144,#379,.T.);
#512=EDGE_CURVE('',#144,#145,#380,.T.);
#513=EDGE_CURVE('',#145,#134,#381,.T.);
#514=EDGE_CURVE('',#146,#147,#118,.T.);
#515=EDGE_CURVE('',#147,#146,#118,.T.);
#516=EDGE_CURVE('',#148,#149,#119,.T.);
#517=EDGE_CURVE('',#149,#148,#119,.T.);
#518=EDGE_CURVE('',#150,#151,#120,.T.);
#519=EDGE_CURVE('',#151,#150,#120,.T.);
#520=EDGE_CURVE('',#152,#153,#382,.T.);
#521=EDGE_CURVE('',#153,#154,#383,.T.);
#522=EDGE_CURVE('',#154,#155,#384,.T.);
#523=EDGE_CURVE('',#155,#152,#385,.T.);
#524=EDGE_CURVE('',#156,#157,#116,.T.);
#525=EDGE_CURVE('',#157,#158,#386,.T.);
#526=EDGE_CURVE('',#158,#159,#387,.T.);
#527=EDGE_CURVE('',#159,#152,#388,.T.);
#528=EDGE_CURVE('',#155,#156,#389,.T.);
#529=EDGE_CURVE('',#139,#152,#390,.T.);
#530=EDGE_CURVE('',#138,#153,#391,.T.);
#531=EDGE_CURVE('',#140,#159,#392,.T.);
#532=EDGE_CURVE('',#160,#158,#393,.T.);
#533=EDGE_CURVE('',#161,#160,#394,.T.);
#534=EDGE_CURVE('',#161,#141,#395,.T.);
#535=EDGE_CURVE('',#162,#163,#117,.T.);
#536=EDGE_CURVE('',#163,#164,#396,.T.);
#537=EDGE_CURVE('',#164,#165,#397,.T.);
#538=EDGE_CURVE('',#165,#161,#398,.T.);
#539=EDGE_CURVE('',#160,#162,#399,.T.);
#540=EDGE_CURVE('',#164,#166,#400,.T.);
#541=EDGE_CURVE('',#166,#167,#401,.T.);
#542=EDGE_CURVE('',#167,#165,#402,.T.);
#543=EDGE_CURVE('',#142,#165,#403,.T.);
#544=EDGE_CURVE('',#167,#143,#404,.T.);
#545=EDGE_CURVE('',#168,#169,#405,.T.);
#546=EDGE_CURVE('',#168,#163,#121,.T.);
#547=EDGE_CURVE('',#162,#170,#122,.T.);
#548=EDGE_CURVE('',#171,#170,#406,.T.);
#549=EDGE_CURVE('',#171,#169,#123,.T.);
#550=EDGE_CURVE('',#172,#154,#407,.T.);
#551=EDGE_CURVE('',#173,#172,#408,.T.);
#552=EDGE_CURVE('',#173,#174,#409,.T.);
#553=EDGE_CURVE('',#174,#175,#410,.T.);
#554=EDGE_CURVE('',#175,#176,#411,.T.);
#555=EDGE_CURVE('',#177,#176,#412,.T.);
#556=EDGE_CURVE('',#178,#177,#413,.T.);
#557=EDGE_CURVE('',#178,#179,#414,.T.);
#558=EDGE_CURVE('',#179,#180,#415,.T.);
#559=EDGE_CURVE('',#180,#181,#416,.T.);
#560=EDGE_CURVE('',#181,#182,#417,.T.);
#561=EDGE_CURVE('',#182,#183,#418,.T.);
#562=EDGE_CURVE('',#183,#184,#419,.T.);
#563=EDGE_CURVE('',#185,#184,#420,.T.);
#564=EDGE_CURVE('',#186,#185,#421,.T.);
#565=EDGE_CURVE('',#186,#187,#422,.T.);
#566=EDGE_CURVE('',#187,#188,#423,.T.);
#567=EDGE_CURVE('',#189,#188,#424,.T.);
#568=EDGE_CURVE('',#190,#189,#425,.T.);
#569=EDGE_CURVE('',#166,#190,#426,.T.);
#570=EDGE_CURVE('',#170,#168,#121,.T.);
#571=EDGE_CURVE('',#191,#157,#124,.T.);
#572=EDGE_CURVE('',#192,#191,#125,.T.);
#573=EDGE_CURVE('',#156,#192,#125,.T.);
#574=EDGE_CURVE('',#149,#169,#427,.T.);
#575=EDGE_CURVE('',#171,#148,#428,.T.);
#576=EDGE_CURVE('',#169,#171,#123,.T.);
#577=EDGE_CURVE('',#192,#193,#429,.T.);
#578=EDGE_CURVE('',#191,#194,#430,.T.);
#579=EDGE_CURVE('',#194,#193,#126,.T.);
#580=EDGE_CURVE('',#193,#151,#431,.T.);
#581=EDGE_CURVE('',#194,#150,#432,.T.);
#582=EDGE_CURVE('',#190,#144,#433,.T.);
#583=EDGE_CURVE('',#175,#187,#127,.T.);
#584=EDGE_CURVE('',#174,#135,#434,.T.);
#585=EDGE_CURVE('',#188,#134,#435,.T.);
#586=EDGE_CURVE('',#195,#196,#436,.T.);
#587=EDGE_CURVE('',#196,#195,#128,.T.);
#588=EDGE_CURVE('',#195,#186,#129,.T.);
#589=EDGE_CURVE('',#176,#196,#130,.T.);
#590=EDGE_CURVE('',#185,#197,#437,.T.);
#591=EDGE_CURVE('',#197,#195,#438,.T.);
#592=EDGE_CURVE('',#198,#147,#439,.T.);
#593=EDGE_CURVE('',#199,#198,#131,.T.);
#594=EDGE_CURVE('',#199,#146,#440,.T.);
#595=EDGE_CURVE('',#200,#201,#441,.T.);
#596=EDGE_CURVE('',#202,#201,#132,.T.);
#597=EDGE_CURVE('',#203,#202,#442,.T.);
#598=EDGE_CURVE('',#200,#203,#133,.T.);
#599=EDGE_CURVE('',#203,#200,#133,.T.);
#600=EDGE_CURVE('',#198,#199,#131,.T.);
#601=EDGE_CURVE('',#204,#205,#443,.T.);
#602=EDGE_CURVE('',#206,#204,#444,.T.);
#603=EDGE_CURVE('',#207,#206,#445,.T.);
#604=EDGE_CURVE('',#208,#207,#446,.T.);
#605=EDGE_CURVE('',#196,#208,#447,.T.);
#606=EDGE_CURVE('',#209,#197,#448,.T.);
#607=EDGE_CURVE('',#210,#209,#449,.T.);
#608=EDGE_CURVE('',#205,#210,#450,.T.);
#609=EDGE_CURVE('',#201,#202,#132,.T.);
#610=EDGE_CURVE('',#183,#211,#451,.T.);
#611=EDGE_CURVE('',#211,#212,#452,.T.);
#612=EDGE_CURVE('',#184,#212,#453,.T.);
#613=EDGE_CURVE('',#182,#213,#454,.T.);
#614=EDGE_CURVE('',#213,#211,#455,.T.);
#615=EDGE_CURVE('',#181,#214,#456,.T.);
#616=EDGE_CURVE('',#214,#213,#457,.T.);
#617=EDGE_CURVE('',#180,#215,#458,.T.);
#618=EDGE_CURVE('',#215,#214,#459,.T.);
#619=EDGE_CURVE('',#179,#216,#460,.T.);
#620=EDGE_CURVE('',#216,#215,#461,.T.);
#621=EDGE_CURVE('',#217,#178,#462,.T.);
#622=EDGE_CURVE('',#217,#216,#463,.T.);
#623=EDGE_CURVE('',#218,#217,#464,.T.);
#624=EDGE_CURVE('',#219,#218,#465,.T.);
#625=EDGE_CURVE('',#220,#219,#466,.T.);
#626=EDGE_CURVE('',#221,#220,#467,.T.);
#627=EDGE_CURVE('',#222,#221,#468,.T.);
#628=EDGE_CURVE('',#223,#222,#469,.T.);
#629=EDGE_CURVE('',#224,#223,#470,.T.);
#630=EDGE_CURVE('',#212,#224,#471,.T.);
#631=EDGE_CURVE('',#224,#225,#472,.T.);
#632=EDGE_CURVE('',#226,#225,#473,.T.);
#633=EDGE_CURVE('',#209,#226,#474,.T.);
#634=EDGE_CURVE('',#227,#228,#475,.T.);
#635=EDGE_CURVE('',#228,#229,#476,.T.);
#636=EDGE_CURVE('',#229,#230,#477,.T.);
#637=EDGE_CURVE('',#230,#231,#478,.T.);
#638=EDGE_CURVE('',#231,#232,#479,.T.);
#639=EDGE_CURVE('',#232,#226,#480,.T.);
#640=EDGE_CURVE('',#233,#225,#481,.T.);
#641=EDGE_CURVE('',#234,#233,#482,.T.);
#642=EDGE_CURVE('',#235,#234,#483,.T.);
#643=EDGE_CURVE('',#236,#235,#484,.T.);
#644=EDGE_CURVE('',#237,#236,#485,.T.);
#645=EDGE_CURVE('',#227,#237,#486,.T.);
#646=EDGE_CURVE('',#232,#210,#487,.T.);
#647=EDGE_CURVE('',#228,#207,#488,.T.);
#648=EDGE_CURVE('',#229,#206,#489,.T.);
#649=EDGE_CURVE('',#230,#204,#490,.T.);
#650=EDGE_CURVE('',#231,#205,#491,.T.);
#651=EDGE_CURVE('',#223,#233,#492,.T.);
#652=EDGE_CURVE('',#222,#234,#493,.T.);
#653=EDGE_CURVE('',#221,#235,#494,.T.);
#654=EDGE_CURVE('',#220,#236,#495,.T.);
#655=EDGE_CURVE('',#219,#237,#496,.T.);
#656=EDGE_CURVE('',#227,#218,#497,.T.);
#657=EDGE_CURVE('',#189,#145,#498,.T.);
#658=EDGE_CURVE('',#173,#136,#499,.T.);
#659=EDGE_CURVE('',#177,#208,#500,.T.);
#660=EDGE_CURVE('',#172,#137,#501,.T.);
#661=EDGE_CURVE('',#193,#194,#126,.T.);
#662=ORIENTED_EDGE('',*,*,#502,.T.);
#663=ORIENTED_EDGE('',*,*,#503,.T.);
#664=ORIENTED_EDGE('',*,*,#504,.T.);
#665=ORIENTED_EDGE('',*,*,#505,.T.);
#666=ORIENTED_EDGE('',*,*,#506,.T.);
#667=ORIENTED_EDGE('',*,*,#507,.T.);
#668=ORIENTED_EDGE('',*,*,#508,.T.);
#669=ORIENTED_EDGE('',*,*,#509,.T.);
#670=ORIENTED_EDGE('',*,*,#510,.T.);
#671=ORIENTED_EDGE('',*,*,#511,.T.);
#672=ORIENTED_EDGE('',*,*,#512,.T.);
#673=ORIENTED_EDGE('',*,*,#513,.T.);
#674=ORIENTED_EDGE('',*,*,#514,.T.);
#675=ORIENTED_EDGE('',*,*,#515,.T.);
#676=ORIENTED_EDGE('',*,*,#516,.T.);
#677=ORIENTED_EDGE('',*,*,#517,.T.);
#678=ORIENTED_EDGE('',*,*,#518,.T.);
#679=ORIENTED_EDGE('',*,*,#519,.T.);
#680=ORIENTED_EDGE('',*,*,#520,.T.);
#681=ORIENTED_EDGE('',*,*,#521,.T.);
#682=ORIENTED_EDGE('',*,*,#522,.T.);
#683=ORIENTED_EDGE('',*,*,#523,.T.);
#684=ORIENTED_EDGE('',*,*,#524,.T.);
#685=ORIENTED_EDGE('',*,*,#525,.T.);
#686=ORIENTED_EDGE('',*,*,#526,.T.);
#687=ORIENTED_EDGE('',*,*,#527,.T.);
#688=ORIENTED_EDGE('',*,*,#523,.F.);
#689=ORIENTED_EDGE('',*,*,#528,.T.);
#690=ORIENTED_EDGE('',*,*,#520,.F.);
#691=ORIENTED_EDGE('',*,*,#529,.F.);
#692=ORIENTED_EDGE('',*,*,#506,.F.);
#693=ORIENTED_EDGE('',*,*,#530,.T.);
#694=ORIENTED_EDGE('',*,*,#527,.F.);
#695=ORIENTED_EDGE('',*,*,#531,.F.);
#696=ORIENTED_EDGE('',*,*,#507,.F.);
#697=ORIENTED_EDGE('',*,*,#529,.T.);
#698=ORIENTED_EDGE('',*,*,#526,.F.);
#699=ORIENTED_EDGE('',*,*,#532,.F.);
#700=ORIENTED_EDGE('',*,*,#533,.F.);
#701=ORIENTED_EDGE('',*,*,#534,.T.);
#702=ORIENTED_EDGE('',*,*,#508,.F.);
#703=ORIENTED_EDGE('',*,*,#531,.T.);
#704=ORIENTED_EDGE('',*,*,#535,.T.);
#705=ORIENTED_EDGE('',*,*,#536,.T.);
#706=ORIENTED_EDGE('',*,*,#537,.T.);
#707=ORIENTED_EDGE('',*,*,#538,.T.);
#708=ORIENTED_EDGE('',*,*,#533,.T.);
#709=ORIENTED_EDGE('',*,*,#539,.T.);
#710=ORIENTED_EDGE('',*,*,#540,.T.);
#711=ORIENTED_EDGE('',*,*,#541,.T.);
#712=ORIENTED_EDGE('',*,*,#542,.T.);
#713=ORIENTED_EDGE('',*,*,#537,.F.);
#714=ORIENTED_EDGE('',*,*,#538,.F.);
#715=ORIENTED_EDGE('',*,*,#543,.F.);
#716=ORIENTED_EDGE('',*,*,#509,.F.);
#717=ORIENTED_EDGE('',*,*,#534,.F.);
#718=ORIENTED_EDGE('',*,*,#542,.F.);
#719=ORIENTED_EDGE('',*,*,#544,.T.);
#720=ORIENTED_EDGE('',*,*,#510,.F.);
#721=ORIENTED_EDGE('',*,*,#543,.T.);
#722=ORIENTED_EDGE('',*,*,#545,.F.);
#723=ORIENTED_EDGE('',*,*,#546,.T.);
#724=ORIENTED_EDGE('',*,*,#535,.F.);
#725=ORIENTED_EDGE('',*,*,#547,.T.);
#726=ORIENTED_EDGE('',*,*,#548,.F.);
#727=ORIENTED_EDGE('',*,*,#549,.T.);
#728=ORIENTED_EDGE('',*,*,#550,.F.);
#729=ORIENTED_EDGE('',*,*,#551,.F.);
#730=ORIENTED_EDGE('',*,*,#552,.T.);
#731=ORIENTED_EDGE('',*,*,#553,.T.);
#732=ORIENTED_EDGE('',*,*,#554,.T.);
#733=ORIENTED_EDGE('',*,*,#555,.F.);
#734=ORIENTED_EDGE('',*,*,#556,.F.);
#735=ORIENTED_EDGE('',*,*,#557,.T.);
#736=ORIENTED_EDGE('',*,*,#558,.T.);
#737=ORIENTED_EDGE('',*,*,#559,.T.);
#738=ORIENTED_EDGE('',*,*,#560,.T.);
#739=ORIENTED_EDGE('',*,*,#561,.T.);
#740=ORIENTED_EDGE('',*,*,#562,.T.);
#741=ORIENTED_EDGE('',*,*,#563,.F.);
#742=ORIENTED_EDGE('',*,*,#564,.F.);
#743=ORIENTED_EDGE('',*,*,#565,.T.);
#744=ORIENTED_EDGE('',*,*,#566,.T.);
#745=ORIENTED_EDGE('',*,*,#567,.F.);
#746=ORIENTED_EDGE('',*,*,#568,.F.);
#747=ORIENTED_EDGE('',*,*,#569,.F.);
#748=ORIENTED_EDGE('',*,*,#540,.F.);
#749=ORIENTED_EDGE('',*,*,#536,.F.);
#750=ORIENTED_EDGE('',*,*,#546,.F.);
#751=ORIENTED_EDGE('',*,*,#570,.F.);
#752=ORIENTED_EDGE('',*,*,#547,.F.);
#753=ORIENTED_EDGE('',*,*,#539,.F.);
#754=ORIENTED_EDGE('',*,*,#532,.T.);
#755=ORIENTED_EDGE('',*,*,#525,.F.);
#756=ORIENTED_EDGE('',*,*,#571,.F.);
#757=ORIENTED_EDGE('',*,*,#572,.F.);
#758=ORIENTED_EDGE('',*,*,#573,.F.);
#759=ORIENTED_EDGE('',*,*,#528,.F.);
#760=ORIENTED_EDGE('',*,*,#522,.F.);
#761=ORIENTED_EDGE('',*,*,#574,.F.);
#762=ORIENTED_EDGE('',*,*,#516,.F.);
#763=ORIENTED_EDGE('',*,*,#575,.F.);
#764=ORIENTED_EDGE('',*,*,#576,.F.);
#765=ORIENTED_EDGE('',*,*,#577,.F.);
#766=ORIENTED_EDGE('',*,*,#572,.T.);
#767=ORIENTED_EDGE('',*,*,#578,.T.);
#768=ORIENTED_EDGE('',*,*,#579,.T.);
#769=ORIENTED_EDGE('',*,*,#580,.F.);
#770=ORIENTED_EDGE('',*,*,#579,.F.);
#771=ORIENTED_EDGE('',*,*,#581,.T.);
#772=ORIENTED_EDGE('',*,*,#519,.F.);
#773=ORIENTED_EDGE('',*,*,#569,.T.);
#774=ORIENTED_EDGE('',*,*,#582,.T.);
#775=ORIENTED_EDGE('',*,*,#511,.F.);
#776=ORIENTED_EDGE('',*,*,#544,.F.);
#777=ORIENTED_EDGE('',*,*,#541,.F.);
#778=ORIENTED_EDGE('',*,*,#583,.F.);
#779=ORIENTED_EDGE('',*,*,#553,.F.);
#780=ORIENTED_EDGE('',*,*,#584,.T.);
#781=ORIENTED_EDGE('',*,*,#502,.F.);
#782=ORIENTED_EDGE('',*,*,#585,.F.);
#783=ORIENTED_EDGE('',*,*,#566,.F.);
#784=ORIENTED_EDGE('',*,*,#586,.T.);
#785=ORIENTED_EDGE('',*,*,#587,.T.);
#786=ORIENTED_EDGE('',*,*,#554,.F.);
#787=ORIENTED_EDGE('',*,*,#583,.T.);
#788=ORIENTED_EDGE('',*,*,#565,.F.);
#789=ORIENTED_EDGE('',*,*,#588,.F.);
#790=ORIENTED_EDGE('',*,*,#587,.F.);
#791=ORIENTED_EDGE('',*,*,#589,.F.);
#792=ORIENTED_EDGE('',*,*,#588,.T.);
#793=ORIENTED_EDGE('',*,*,#564,.T.);
#794=ORIENTED_EDGE('',*,*,#590,.T.);
#795=ORIENTED_EDGE('',*,*,#591,.T.);
#796=ORIENTED_EDGE('',*,*,#592,.F.);
#797=ORIENTED_EDGE('',*,*,#593,.F.);
#798=ORIENTED_EDGE('',*,*,#594,.T.);
#799=ORIENTED_EDGE('',*,*,#515,.F.);
#800=ORIENTED_EDGE('',*,*,#595,.T.);
#801=ORIENTED_EDGE('',*,*,#596,.F.);
#802=ORIENTED_EDGE('',*,*,#597,.F.);
#803=ORIENTED_EDGE('',*,*,#598,.F.);
#804=ORIENTED_EDGE('',*,*,#599,.T.);
#805=ORIENTED_EDGE('',*,*,#598,.T.);
#806=ORIENTED_EDGE('',*,*,#593,.T.);
#807=ORIENTED_EDGE('',*,*,#600,.T.);
#808=ORIENTED_EDGE('',*,*,#601,.F.);
#809=ORIENTED_EDGE('',*,*,#602,.F.);
#810=ORIENTED_EDGE('',*,*,#603,.F.);
#811=ORIENTED_EDGE('',*,*,#604,.F.);
#812=ORIENTED_EDGE('',*,*,#605,.F.);
#813=ORIENTED_EDGE('',*,*,#586,.F.);
#814=ORIENTED_EDGE('',*,*,#591,.F.);
#815=ORIENTED_EDGE('',*,*,#606,.F.);
#816=ORIENTED_EDGE('',*,*,#607,.F.);
#817=ORIENTED_EDGE('',*,*,#608,.F.);
#818=ORIENTED_EDGE('',*,*,#596,.T.);
#819=ORIENTED_EDGE('',*,*,#609,.T.);
#820=ORIENTED_EDGE('',*,*,#562,.F.);
#821=ORIENTED_EDGE('',*,*,#610,.T.);
#822=ORIENTED_EDGE('',*,*,#611,.T.);
#823=ORIENTED_EDGE('',*,*,#612,.F.);
#824=ORIENTED_EDGE('',*,*,#561,.F.);
#825=ORIENTED_EDGE('',*,*,#613,.T.);
#826=ORIENTED_EDGE('',*,*,#614,.T.);
#827=ORIENTED_EDGE('',*,*,#610,.F.);
#828=ORIENTED_EDGE('',*,*,#560,.F.);
#829=ORIENTED_EDGE('',*,*,#615,.T.);
#830=ORIENTED_EDGE('',*,*,#616,.T.);
#831=ORIENTED_EDGE('',*,*,#613,.F.);
#832=ORIENTED_EDGE('',*,*,#559,.F.);
#833=ORIENTED_EDGE('',*,*,#617,.T.);
#834=ORIENTED_EDGE('',*,*,#618,.T.);
#835=ORIENTED_EDGE('',*,*,#615,.F.);
#836=ORIENTED_EDGE('',*,*,#558,.F.);
#837=ORIENTED_EDGE('',*,*,#619,.T.);
#838=ORIENTED_EDGE('',*,*,#620,.T.);
#839=ORIENTED_EDGE('',*,*,#617,.F.);
#840=ORIENTED_EDGE('',*,*,#557,.F.);
#841=ORIENTED_EDGE('',*,*,#621,.F.);
#842=ORIENTED_EDGE('',*,*,#622,.T.);
#843=ORIENTED_EDGE('',*,*,#619,.F.);
#844=ORIENTED_EDGE('',*,*,#622,.F.);
#845=ORIENTED_EDGE('',*,*,#623,.F.);
#846=ORIENTED_EDGE('',*,*,#624,.F.);
#847=ORIENTED_EDGE('',*,*,#625,.F.);
#848=ORIENTED_EDGE('',*,*,#626,.F.);
#849=ORIENTED_EDGE('',*,*,#627,.F.);
#850=ORIENTED_EDGE('',*,*,#628,.F.);
#851=ORIENTED_EDGE('',*,*,#629,.F.);
#852=ORIENTED_EDGE('',*,*,#630,.F.);
#853=ORIENTED_EDGE('',*,*,#611,.F.);
#854=ORIENTED_EDGE('',*,*,#614,.F.);
#855=ORIENTED_EDGE('',*,*,#616,.F.);
#856=ORIENTED_EDGE('',*,*,#618,.F.);
#857=ORIENTED_EDGE('',*,*,#620,.F.);
#858=ORIENTED_EDGE('',*,*,#612,.T.);
#859=ORIENTED_EDGE('',*,*,#630,.T.);
#860=ORIENTED_EDGE('',*,*,#631,.T.);
#861=ORIENTED_EDGE('',*,*,#632,.F.);
#862=ORIENTED_EDGE('',*,*,#633,.F.);
#863=ORIENTED_EDGE('',*,*,#606,.T.);
#864=ORIENTED_EDGE('',*,*,#590,.F.);
#865=ORIENTED_EDGE('',*,*,#563,.T.);
#866=ORIENTED_EDGE('',*,*,#634,.T.);
#867=ORIENTED_EDGE('',*,*,#635,.T.);
#868=ORIENTED_EDGE('',*,*,#636,.T.);
#869=ORIENTED_EDGE('',*,*,#637,.T.);
#870=ORIENTED_EDGE('',*,*,#638,.T.);
#871=ORIENTED_EDGE('',*,*,#639,.T.);
#872=ORIENTED_EDGE('',*,*,#632,.T.);
#873=ORIENTED_EDGE('',*,*,#640,.F.);
#874=ORIENTED_EDGE('',*,*,#641,.F.);
#875=ORIENTED_EDGE('',*,*,#642,.F.);
#876=ORIENTED_EDGE('',*,*,#643,.F.);
#877=ORIENTED_EDGE('',*,*,#644,.F.);
#878=ORIENTED_EDGE('',*,*,#645,.F.);
#879=ORIENTED_EDGE('',*,*,#633,.T.);
#880=ORIENTED_EDGE('',*,*,#639,.F.);
#881=ORIENTED_EDGE('',*,*,#646,.T.);
#882=ORIENTED_EDGE('',*,*,#607,.T.);
#883=ORIENTED_EDGE('',*,*,#647,.T.);
#884=ORIENTED_EDGE('',*,*,#603,.T.);
#885=ORIENTED_EDGE('',*,*,#648,.F.);
#886=ORIENTED_EDGE('',*,*,#635,.F.);
#887=ORIENTED_EDGE('',*,*,#636,.F.);
#888=ORIENTED_EDGE('',*,*,#648,.T.);
#889=ORIENTED_EDGE('',*,*,#602,.T.);
#890=ORIENTED_EDGE('',*,*,#649,.F.);
#891=ORIENTED_EDGE('',*,*,#638,.F.);
#892=ORIENTED_EDGE('',*,*,#650,.T.);
#893=ORIENTED_EDGE('',*,*,#608,.T.);
#894=ORIENTED_EDGE('',*,*,#646,.F.);
#895=ORIENTED_EDGE('',*,*,#637,.F.);
#896=ORIENTED_EDGE('',*,*,#649,.T.);
#897=ORIENTED_EDGE('',*,*,#601,.T.);
#898=ORIENTED_EDGE('',*,*,#650,.F.);
#899=ORIENTED_EDGE('',*,*,#629,.T.);
#900=ORIENTED_EDGE('',*,*,#651,.T.);
#901=ORIENTED_EDGE('',*,*,#640,.T.);
#902=ORIENTED_EDGE('',*,*,#631,.F.);
#903=ORIENTED_EDGE('',*,*,#628,.T.);
#904=ORIENTED_EDGE('',*,*,#652,.T.);
#905=ORIENTED_EDGE('',*,*,#641,.T.);
#906=ORIENTED_EDGE('',*,*,#651,.F.);
#907=ORIENTED_EDGE('',*,*,#627,.T.);
#908=ORIENTED_EDGE('',*,*,#653,.T.);
#909=ORIENTED_EDGE('',*,*,#642,.T.);
#910=ORIENTED_EDGE('',*,*,#652,.F.);
#911=ORIENTED_EDGE('',*,*,#626,.T.);
#912=ORIENTED_EDGE('',*,*,#654,.T.);
#913=ORIENTED_EDGE('',*,*,#643,.T.);
#914=ORIENTED_EDGE('',*,*,#653,.F.);
#915=ORIENTED_EDGE('',*,*,#625,.T.);
#916=ORIENTED_EDGE('',*,*,#655,.T.);
#917=ORIENTED_EDGE('',*,*,#644,.T.);
#918=ORIENTED_EDGE('',*,*,#654,.F.);
#919=ORIENTED_EDGE('',*,*,#624,.T.);
#920=ORIENTED_EDGE('',*,*,#656,.F.);
#921=ORIENTED_EDGE('',*,*,#645,.T.);
#922=ORIENTED_EDGE('',*,*,#655,.F.);
#923=ORIENTED_EDGE('',*,*,#568,.T.);
#924=ORIENTED_EDGE('',*,*,#657,.T.);
#925=ORIENTED_EDGE('',*,*,#512,.F.);
#926=ORIENTED_EDGE('',*,*,#582,.F.);
#927=ORIENTED_EDGE('',*,*,#567,.T.);
#928=ORIENTED_EDGE('',*,*,#585,.T.);
#929=ORIENTED_EDGE('',*,*,#513,.F.);
#930=ORIENTED_EDGE('',*,*,#657,.F.);
#931=ORIENTED_EDGE('',*,*,#552,.F.);
#932=ORIENTED_EDGE('',*,*,#658,.T.);
#933=ORIENTED_EDGE('',*,*,#503,.F.);
#934=ORIENTED_EDGE('',*,*,#584,.F.);
#935=ORIENTED_EDGE('',*,*,#621,.T.);
#936=ORIENTED_EDGE('',*,*,#556,.T.);
#937=ORIENTED_EDGE('',*,*,#659,.T.);
#938=ORIENTED_EDGE('',*,*,#604,.T.);
#939=ORIENTED_EDGE('',*,*,#647,.F.);
#940=ORIENTED_EDGE('',*,*,#634,.F.);
#941=ORIENTED_EDGE('',*,*,#656,.T.);
#942=ORIENTED_EDGE('',*,*,#623,.T.);
#943=ORIENTED_EDGE('',*,*,#589,.T.);
#944=ORIENTED_EDGE('',*,*,#605,.T.);
#945=ORIENTED_EDGE('',*,*,#659,.F.);
#946=ORIENTED_EDGE('',*,*,#555,.T.);
#947=ORIENTED_EDGE('',*,*,#551,.T.);
#948=ORIENTED_EDGE('',*,*,#660,.T.);
#949=ORIENTED_EDGE('',*,*,#504,.F.);
#950=ORIENTED_EDGE('',*,*,#658,.F.);
#951=ORIENTED_EDGE('',*,*,#530,.F.);
#952=ORIENTED_EDGE('',*,*,#505,.F.);
#953=ORIENTED_EDGE('',*,*,#660,.F.);
#954=ORIENTED_EDGE('',*,*,#550,.T.);
#955=ORIENTED_EDGE('',*,*,#521,.F.);
#956=ORIENTED_EDGE('',*,*,#545,.T.);
#957=ORIENTED_EDGE('',*,*,#576,.T.);
#958=ORIENTED_EDGE('',*,*,#548,.T.);
#959=ORIENTED_EDGE('',*,*,#570,.T.);
#960=ORIENTED_EDGE('',*,*,#574,.T.);
#961=ORIENTED_EDGE('',*,*,#549,.F.);
#962=ORIENTED_EDGE('',*,*,#575,.T.);
#963=ORIENTED_EDGE('',*,*,#517,.F.);
#964=ORIENTED_EDGE('',*,*,#577,.T.);
#965=ORIENTED_EDGE('',*,*,#661,.T.);
#966=ORIENTED_EDGE('',*,*,#578,.F.);
#967=ORIENTED_EDGE('',*,*,#571,.T.);
#968=ORIENTED_EDGE('',*,*,#524,.F.);
#969=ORIENTED_EDGE('',*,*,#573,.T.);
#970=ORIENTED_EDGE('',*,*,#580,.T.);
#971=ORIENTED_EDGE('',*,*,#518,.F.);
#972=ORIENTED_EDGE('',*,*,#581,.F.);
#973=ORIENTED_EDGE('',*,*,#661,.F.);
#974=ORIENTED_EDGE('',*,*,#592,.T.);
#975=ORIENTED_EDGE('',*,*,#514,.F.);
#976=ORIENTED_EDGE('',*,*,#594,.F.);
#977=ORIENTED_EDGE('',*,*,#600,.F.);
#978=ORIENTED_EDGE('',*,*,#595,.F.);
#979=ORIENTED_EDGE('',*,*,#599,.F.);
#980=ORIENTED_EDGE('',*,*,#597,.T.);
#981=ORIENTED_EDGE('',*,*,#609,.F.);
#982=EDGE_LOOP('',(#662,#663,#664,#665,#666,#667,#668,#669,#670,#671,#672,
#673));
#983=EDGE_LOOP('',(#674,#675));
#984=EDGE_LOOP('',(#676,#677));
#985=EDGE_LOOP('',(#678,#679));
#986=EDGE_LOOP('',(#680,#681,#682,#683));
#987=EDGE_LOOP('',(#684,#685,#686,#687,#688,#689));
#988=EDGE_LOOP('',(#690,#691,#692,#693));
#989=EDGE_LOOP('',(#694,#695,#696,#697));
#990=EDGE_LOOP('',(#698,#699,#700,#701,#702,#703));
#991=EDGE_LOOP('',(#704,#705,#706,#707,#708,#709));
#992=EDGE_LOOP('',(#710,#711,#712,#713));
#993=EDGE_LOOP('',(#714,#715,#716,#717));
#994=EDGE_LOOP('',(#718,#719,#720,#721));
#995=EDGE_LOOP('',(#722,#723,#724,#725,#726,#727));
#996=EDGE_LOOP('',(#728,#729,#730,#731,#732,#733,#734,#735,#736,#737,#738,
#739,#740,#741,#742,#743,#744,#745,#746,#747,#748,#749,#750,#751,#752,#753,
#754,#755,#756,#757,#758,#759,#760));
#997=EDGE_LOOP('',(#761,#762,#763,#764));
#998=EDGE_LOOP('',(#765,#766,#767,#768));
#999=EDGE_LOOP('',(#769,#770,#771,#772));
#1000=EDGE_LOOP('',(#773,#774,#775,#776,#777));
#1001=EDGE_LOOP('',(#778,#779,#780,#781,#782,#783));
#1002=EDGE_LOOP('',(#784,#785));
#1003=EDGE_LOOP('',(#786,#787,#788,#789,#790,#791));
#1004=EDGE_LOOP('',(#792,#793,#794,#795));
#1005=EDGE_LOOP('',(#796,#797,#798,#799));
#1006=EDGE_LOOP('',(#800,#801,#802,#803));
#1007=EDGE_LOOP('',(#804,#805));
#1008=EDGE_LOOP('',(#806,#807));
#1009=EDGE_LOOP('',(#808,#809,#810,#811,#812,#813,#814,#815,#816,#817));
#1010=EDGE_LOOP('',(#818,#819));
#1011=EDGE_LOOP('',(#820,#821,#822,#823));
#1012=EDGE_LOOP('',(#824,#825,#826,#827));
#1013=EDGE_LOOP('',(#828,#829,#830,#831));
#1014=EDGE_LOOP('',(#832,#833,#834,#835));
#1015=EDGE_LOOP('',(#836,#837,#838,#839));
#1016=EDGE_LOOP('',(#840,#841,#842,#843));
#1017=EDGE_LOOP('',(#844,#845,#846,#847,#848,#849,#850,#851,#852,#853,#854,
#855,#856,#857));
#1018=EDGE_LOOP('',(#858,#859,#860,#861,#862,#863,#864,#865));
#1019=EDGE_LOOP('',(#866,#867,#868,#869,#870,#871,#872,#873,#874,#875,#876,
#877,#878));
#1020=EDGE_LOOP('',(#879,#880,#881,#882));
#1021=EDGE_LOOP('',(#883,#884,#885,#886));
#1022=EDGE_LOOP('',(#887,#888,#889,#890));
#1023=EDGE_LOOP('',(#891,#892,#893,#894));
#1024=EDGE_LOOP('',(#895,#896,#897,#898));
#1025=EDGE_LOOP('',(#899,#900,#901,#902));
#1026=EDGE_LOOP('',(#903,#904,#905,#906));
#1027=EDGE_LOOP('',(#907,#908,#909,#910));
#1028=EDGE_LOOP('',(#911,#912,#913,#914));
#1029=EDGE_LOOP('',(#915,#916,#917,#918));
#1030=EDGE_LOOP('',(#919,#920,#921,#922));
#1031=EDGE_LOOP('',(#923,#924,#925,#926));
#1032=EDGE_LOOP('',(#927,#928,#929,#930));
#1033=EDGE_LOOP('',(#931,#932,#933,#934));
#1034=EDGE_LOOP('',(#935,#936,#937,#938,#939,#940,#941,#942));
#1035=EDGE_LOOP('',(#943,#944,#945,#946));
#1036=EDGE_LOOP('',(#947,#948,#949,#950));
#1037=EDGE_LOOP('',(#951,#952,#953,#954,#955));
#1038=EDGE_LOOP('',(#956,#957,#958,#959));
#1039=EDGE_LOOP('',(#960,#961,#962,#963));
#1040=EDGE_LOOP('',(#964,#965,#966,#967,#968,#969));
#1041=EDGE_LOOP('',(#970,#971,#972,#973));
#1042=EDGE_LOOP('',(#974,#975,#976,#977));
#1043=EDGE_LOOP('',(#978,#979,#980,#981));
#1044=FACE_BOUND('',#982,.T.);
#1045=FACE_BOUND('',#983,.T.);
#1046=FACE_BOUND('',#984,.T.);
#1047=FACE_BOUND('',#985,.T.);
#1048=FACE_BOUND('',#986,.T.);
#1049=FACE_BOUND('',#987,.T.);
#1050=FACE_BOUND('',#988,.T.);
#1051=FACE_BOUND('',#989,.T.);
#1052=FACE_BOUND('',#990,.T.);
#1053=FACE_BOUND('',#991,.T.);
#1054=FACE_BOUND('',#992,.T.);
#1055=FACE_BOUND('',#993,.T.);
#1056=FACE_BOUND('',#994,.T.);
#1057=FACE_BOUND('',#995,.T.);
#1058=FACE_BOUND('',#996,.T.);
#1059=FACE_BOUND('',#997,.T.);
#1060=FACE_BOUND('',#998,.T.);
#1061=FACE_BOUND('',#999,.T.);
#1062=FACE_BOUND('',#1000,.T.);
#1063=FACE_BOUND('',#1001,.T.);
#1064=FACE_BOUND('',#1002,.T.);
#1065=FACE_BOUND('',#1003,.T.);
#1066=FACE_BOUND('',#1004,.T.);
#1067=FACE_BOUND('',#1005,.T.);
#1068=FACE_BOUND('',#1006,.T.);
#1069=FACE_BOUND('',#1007,.T.);
#1070=FACE_BOUND('',#1008,.T.);
#1071=FACE_BOUND('',#1009,.T.);
#1072=FACE_BOUND('',#1010,.T.);
#1073=FACE_BOUND('',#1011,.T.);
#1074=FACE_BOUND('',#1012,.T.);
#1075=FACE_BOUND('',#1013,.T.);
#1076=FACE_BOUND('',#1014,.T.);
#1077=FACE_BOUND('',#1015,.T.);
#1078=FACE_BOUND('',#1016,.T.);
#1079=FACE_BOUND('',#1017,.T.);
#1080=FACE_BOUND('',#1018,.T.);
#1081=FACE_BOUND('',#1019,.T.);
#1082=FACE_BOUND('',#1020,.T.);
#1083=FACE_BOUND('',#1021,.T.);
#1084=FACE_BOUND('',#1022,.T.);
#1085=FACE_BOUND('',#1023,.T.);
#1086=FACE_BOUND('',#1024,.T.);
#1087=FACE_BOUND('',#1025,.T.);
#1088=FACE_BOUND('',#1026,.T.);
#1089=FACE_BOUND('',#1027,.T.);
#1090=FACE_BOUND('',#1028,.T.);
#1091=FACE_BOUND('',#1029,.T.);
#1092=FACE_BOUND('',#1030,.T.);
#1093=FACE_BOUND('',#1031,.T.);
#1094=FACE_BOUND('',#1032,.T.);
#1095=FACE_BOUND('',#1033,.T.);
#1096=FACE_BOUND('',#1034,.T.);
#1097=FACE_BOUND('',#1035,.T.);
#1098=FACE_BOUND('',#1036,.T.);
#1099=FACE_BOUND('',#1037,.T.);
#1100=FACE_BOUND('',#1038,.T.);
#1101=FACE_BOUND('',#1039,.T.);
#1102=FACE_BOUND('',#1040,.T.);
#1103=FACE_BOUND('',#1041,.T.);
#1104=FACE_BOUND('',#1042,.T.);
#1105=FACE_BOUND('',#1043,.T.);
#1106=ADVANCED_FACE('',(#1044,#1045,#1046,#1047),#1785,.T.);
#1107=ADVANCED_FACE('',(#1048),#1786,.T.);
#1108=ADVANCED_FACE('',(#1049),#1787,.T.);
#1109=ADVANCED_FACE('',(#1050),#1788,.T.);
#1110=ADVANCED_FACE('',(#1051),#1789,.T.);
#1111=ADVANCED_FACE('',(#1052),#1790,.T.);
#1112=ADVANCED_FACE('',(#1053),#1791,.T.);
#1113=ADVANCED_FACE('',(#1054),#1792,.T.);
#1114=ADVANCED_FACE('',(#1055),#1793,.F.);
#1115=ADVANCED_FACE('',(#1056),#1794,.T.);
#1116=ADVANCED_FACE('',(#1057),#112,.F.);
#1117=ADVANCED_FACE('',(#1058),#1795,.T.);
#1118=ADVANCED_FACE('',(#1059),#103,.F.);
#1119=ADVANCED_FACE('',(#1060),#113,.F.);
#1120=ADVANCED_FACE('',(#1061),#104,.F.);
#1121=ADVANCED_FACE('',(#1062),#1796,.T.);
#1122=ADVANCED_FACE('',(#1063),#1797,.T.);
#1123=ADVANCED_FACE('',(#1064),#1798,.F.);
#1124=ADVANCED_FACE('',(#1065),#105,.F.);
#1125=ADVANCED_FACE('',(#1066),#1799,.T.);
#1126=ADVANCED_FACE('',(#1067),#106,.F.);
#1127=ADVANCED_FACE('',(#1068),#107,.T.);
#1128=ADVANCED_FACE('',(#1069,#1070),#1800,.F.);
#1129=ADVANCED_FACE('',(#1071,#1072),#1801,.F.);
#1130=ADVANCED_FACE('',(#1073),#1802,.F.);
#1131=ADVANCED_FACE('',(#1074),#1803,.F.);
#1132=ADVANCED_FACE('',(#1075),#1804,.F.);
#1133=ADVANCED_FACE('',(#1076),#1805,.F.);
#1134=ADVANCED_FACE('',(#1077),#1806,.F.);
#1135=ADVANCED_FACE('',(#1078),#1807,.F.);
#1136=ADVANCED_FACE('',(#1079),#1808,.F.);
#1137=ADVANCED_FACE('',(#1080),#1809,.T.);
#1138=ADVANCED_FACE('',(#1081),#1810,.F.);
#1139=ADVANCED_FACE('',(#1082),#1811,.F.);
#1140=ADVANCED_FACE('',(#1083),#1812,.F.);
#1141=ADVANCED_FACE('',(#1084),#1813,.F.);
#1142=ADVANCED_FACE('',(#1085),#1814,.F.);
#1143=ADVANCED_FACE('',(#1086),#1815,.F.);
#1144=ADVANCED_FACE('',(#1087),#1816,.F.);
#1145=ADVANCED_FACE('',(#1088),#1817,.F.);
#1146=ADVANCED_FACE('',(#1089),#1818,.F.);
#1147=ADVANCED_FACE('',(#1090),#1819,.F.);
#1148=ADVANCED_FACE('',(#1091),#1820,.F.);
#1149=ADVANCED_FACE('',(#1092),#1821,.F.);
#1150=ADVANCED_FACE('',(#1093),#1822,.T.);
#1151=ADVANCED_FACE('',(#1094),#1823,.T.);
#1152=ADVANCED_FACE('',(#1095),#1824,.T.);
#1153=ADVANCED_FACE('',(#1096),#1825,.T.);
#1154=ADVANCED_FACE('',(#1097),#1826,.T.);
#1155=ADVANCED_FACE('',(#1098),#1827,.T.);
#1156=ADVANCED_FACE('',(#1099),#1828,.T.);
#1157=ADVANCED_FACE('',(#1100),#114,.F.);
#1158=ADVANCED_FACE('',(#1101),#108,.F.);
#1159=ADVANCED_FACE('',(#1102),#115,.F.);
#1160=ADVANCED_FACE('',(#1103),#109,.F.);
#1161=ADVANCED_FACE('',(#1104),#110,.F.);
#1162=ADVANCED_FACE('',(#1105),#111,.T.);
#1163=AXIS2_PLACEMENT_3D('',#1470,#1236,$);
#1164=AXIS2_PLACEMENT_3D('',#1495,#1249,#1250);
#1165=AXIS2_PLACEMENT_3D('',#1498,#1251,#1252);
#1166=AXIS2_PLACEMENT_3D('',#1501,#1253,#1254);
#1167=AXIS2_PLACEMENT_3D('',#1504,#1255,$);
#1168=AXIS2_PLACEMENT_3D('',#1513,#1260,$);
#1169=AXIS2_PLACEMENT_3D('',#1525,#1265,$);
#1170=AXIS2_PLACEMENT_3D('',#1528,#1268,$);
#1171=AXIS2_PLACEMENT_3D('',#1530,#1270,$);
#1172=AXIS2_PLACEMENT_3D('',#1536,#1274,$);
#1173=AXIS2_PLACEMENT_3D('',#1548,#1279,$);
#1174=AXIS2_PLACEMENT_3D('',#1554,#1283,$);
#1175=AXIS2_PLACEMENT_3D('',#1556,#1285,$);
#1176=AXIS2_PLACEMENT_3D('',#1558,#1287,#1288);
#1177=AXIS2_PLACEMENT_3D('',#1562,#1290,#1291);
#1178=AXIS2_PLACEMENT_3D('',#1563,#1292,#1293);
#1179=AXIS2_PLACEMENT_3D('',#1567,#1295,#1296);
#1180=AXIS2_PLACEMENT_3D('',#1568,#1297,$);
#1181=AXIS2_PLACEMENT_3D('',#1608,#1318,#1319);
#1182=AXIS2_PLACEMENT_3D('',#1610,#1320,#1321);
#1183=AXIS2_PLACEMENT_3D('',#1612,#1322,#1323);
#1184=AXIS2_PLACEMENT_3D('',#1615,#1326,#1327);
#1185=AXIS2_PLACEMENT_3D('',#1620,#1330,#1331);
#1186=AXIS2_PLACEMENT_3D('',#1621,#1332,#1333);
#1187=AXIS2_PLACEMENT_3D('',#1624,#1336,$);
#1188=AXIS2_PLACEMENT_3D('',#1626,#1338,$);
#1189=AXIS2_PLACEMENT_3D('',#1627,#1339,#1340);
#1190=AXIS2_PLACEMENT_3D('',#1630,#1343,$);
#1191=AXIS2_PLACEMENT_3D('',#1634,#1345,#1346);
#1192=AXIS2_PLACEMENT_3D('',#1635,#1347,#1348);
#1193=AXIS2_PLACEMENT_3D('',#1636,#1349,#1350);
#1194=AXIS2_PLACEMENT_3D('',#1637,#1351,#1352);
#1195=AXIS2_PLACEMENT_3D('',#1638,#1353,$);
#1196=AXIS2_PLACEMENT_3D('',#1642,#1356,#1357);
#1197=AXIS2_PLACEMENT_3D('',#1645,#1359,#1360);
#1198=AXIS2_PLACEMENT_3D('',#1648,#1362,#1363);
#1199=AXIS2_PLACEMENT_3D('',#1652,#1365,#1366);
#1200=AXIS2_PLACEMENT_3D('',#1656,#1368,#1369);
#1201=AXIS2_PLACEMENT_3D('',#1657,#1370,$);
#1202=AXIS2_PLACEMENT_3D('',#1658,#1371,$);
#1203=AXIS2_PLACEMENT_3D('',#1674,#1380,$);
#1204=AXIS2_PLACEMENT_3D('',#1680,#1384,$);
#1205=AXIS2_PLACEMENT_3D('',#1684,#1387,$);
#1206=AXIS2_PLACEMENT_3D('',#1688,#1390,$);
#1207=AXIS2_PLACEMENT_3D('',#1692,#1393,$);
#1208=AXIS2_PLACEMENT_3D('',#1696,#1396,$);
#1209=AXIS2_PLACEMENT_3D('',#1700,#1399,$);
#1210=AXIS2_PLACEMENT_3D('',#1716,#1408,$);
#1211=AXIS2_PLACEMENT_3D('',#1722,#1412,$);
#1212=AXIS2_PLACEMENT_3D('',#1746,#1425,$);
#1213=AXIS2_PLACEMENT_3D('',#1748,#1427,$);
#1214=AXIS2_PLACEMENT_3D('',#1751,#1430,$);
#1215=AXIS2_PLACEMENT_3D('',#1753,#1432,$);
#1216=AXIS2_PLACEMENT_3D('',#1755,#1434,$);
#1217=AXIS2_PLACEMENT_3D('',#1756,#1435,$);
#1218=AXIS2_PLACEMENT_3D('',#1758,#1437,$);
#1219=AXIS2_PLACEMENT_3D('',#1760,#1439,$);
#1220=AXIS2_PLACEMENT_3D('',#1762,#1441,$);
#1221=AXIS2_PLACEMENT_3D('',#1764,#1443,$);
#1222=AXIS2_PLACEMENT_3D('',#1766,#1445,$);
#1223=AXIS2_PLACEMENT_3D('',#1768,#1447,$);
#1224=AXIS2_PLACEMENT_3D('',#1770,#1449,$);
#1225=AXIS2_PLACEMENT_3D('',#1771,#1450,$);
#1226=AXIS2_PLACEMENT_3D('',#1773,#1452,$);
#1227=AXIS2_PLACEMENT_3D('',#1775,#1454,$);
#1228=AXIS2_PLACEMENT_3D('',#1776,#1455,$);
#1229=AXIS2_PLACEMENT_3D('',#1778,#1457,$);
#1230=AXIS2_PLACEMENT_3D('',#1779,#1458,#1459);
#1231=AXIS2_PLACEMENT_3D('',#1780,#1460,#1461);
#1232=AXIS2_PLACEMENT_3D('',#1781,#1462,#1463);
#1233=AXIS2_PLACEMENT_3D('',#1782,#1464,#1465);
#1234=AXIS2_PLACEMENT_3D('',#1783,#1466,#1467);
#1235=AXIS2_PLACEMENT_3D('',#1784,#1468,#1469);
#1236=DIRECTION('',(0.,0.,-1.));
#1237=DIRECTION('',(0.,-1.,0.));
#1238=DIRECTION('',(-1.,0.,0.));
#1239=DIRECTION('',(0.,-1.,0.));
#1240=DIRECTION('',(-1.,0.,0.));
#1241=DIRECTION('',(-0.707106781186548,-0.707106781186547,0.));
#1242=DIRECTION('',(-1.,0.,0.));
#1243=DIRECTION('',(0.,1.,0.));
#1244=DIRECTION('',(1.,0.,0.));
#1245=DIRECTION('',(0.707106781186548,-0.707106781186548,0.));
#1246=DIRECTION('',(1.,0.,0.));
#1247=DIRECTION('',(0.,-1.,0.));
#1248=DIRECTION('',(1.,0.,0.));
#1249=DIRECTION('',(0.,0.,1.));
#1250=DIRECTION('',(1.3,0.,0.));
#1251=DIRECTION('',(0.,0.,1.));
#1252=DIRECTION('',(1.6,0.,0.));
#1253=DIRECTION('',(0.,0.,1.));
#1254=DIRECTION('',(1.6,0.,0.));
#1255=DIRECTION('',(0.500000000000001,-0.500000000000001,0.707106781186547));
#1256=DIRECTION('',(0.707106781186548,0.707106781186547,0.));
#1257=DIRECTION('',(-0.816496580927708,0.,0.577350269189652));
#1258=DIRECTION('',(-0.70710678118655,-0.707106781186545,0.));
#1259=DIRECTION('',(0.281084637714811,-0.67859834454585,-0.678598344545848));
#1260=DIRECTION('',(0.,-0.707106781186547,0.707106781186548));
#1261=DIRECTION('',(-1.,0.,0.));
#1262=DIRECTION('',(0.,-0.707106781186548,-0.707106781186547));
#1263=DIRECTION('',(1.,0.,0.));
#1264=DIRECTION('',(-1.,0.,0.));
#1265=DIRECTION('',(0.707106781186548,-0.707106781186548,0.));
#1266=DIRECTION('',(0.,-2.4180281912743E-16,1.));
#1267=DIRECTION('',(0.,0.,1.));
#1268=DIRECTION('',(0.,-1.,0.));
#1269=DIRECTION('',(0.,-2.4180281912743E-16,1.));
#1270=DIRECTION('',(-1.,-1.58603289232165E-16,0.));
#1271=DIRECTION('',(0.,-1.,0.));
#1272=DIRECTION('',(0.,-0.707106781186547,0.707106781186547));
#1273=DIRECTION('',(0.,0.,-1.));
#1274=DIRECTION('',(-2.61682076447296E-17,0.707106781186549,0.707106781186546));
#1275=DIRECTION('',(1.,0.,0.));
#1276=DIRECTION('',(0.281084637714823,0.678598344545846,-0.678598344545846));
#1277=DIRECTION('',(-1.,0.,0.));
#1278=DIRECTION('',(1.,0.,0.));
#1279=DIRECTION('',(0.500000000000001,0.5,0.707106781186547));
#1280=DIRECTION('',(0.70710678118655,-0.707106781186545,0.));
#1281=DIRECTION('',(0.816496580927708,0.,-0.577350269189652));
#1282=DIRECTION('',(-0.707106781186548,0.707106781186548,0.));
#1283=DIRECTION('',(3.70074341541719E-17,-1.,0.));
#1284=DIRECTION('',(0.,0.,1.));
#1285=DIRECTION('',(0.707106781186548,0.707106781186547,0.));
#1286=DIRECTION('',(0.,0.,-1.));
#1287=DIRECTION('',(0.,0.,1.));
#1288=DIRECTION('',(2.35,8.6967470262304E-17,0.));
#1289=DIRECTION('',(-0.707106781186547,-2.61682076447296E-17,-0.707106781186548));
#1290=DIRECTION('',(0.,0.,1.));
#1291=DIRECTION('',(3.1,1.14723045877933E-16,0.));
#1292=DIRECTION('',(0.,0.,1.));
#1293=DIRECTION('',(3.1,1.14723045877933E-16,0.));
#1294=DIRECTION('',(-0.707106781186547,0.,0.707106781186548));
#1295=DIRECTION('',(0.,0.,-1.));
#1296=DIRECTION('',(1.6,5.9211894646675E-17,0.));
#1297=DIRECTION('',(0.,0.,1.));
#1298=DIRECTION('',(-1.,0.,0.));
#1299=DIRECTION('',(0.,-1.,0.));
#1300=DIRECTION('',(1.,0.,0.));
#1301=DIRECTION('',(0.,1.,1.12953070762587E-15));
#1302=DIRECTION('',(-1.,0.,-8.94682529081603E-16));
#1303=DIRECTION('',(0.,1.,0.));
#1304=DIRECTION('',(1.,0.,0.));
#1305=DIRECTION('',(0.,-1.,0.));
#1306=DIRECTION('',(-1.,0.,0.));
#1307=DIRECTION('',(0.,1.,0.));
#1308=DIRECTION('',(1.,0.,0.));
#1309=DIRECTION('',(7.40019427548926E-7,-0.999999999999726,0.));
#1310=DIRECTION('',(0.,-1.,0.));
#1311=DIRECTION('',(-1.,0.,0.));
#1312=DIRECTION('',(0.,1.,0.));
#1313=DIRECTION('',(1.,0.,-6.88217330062772E-16));
#1314=DIRECTION('',(0.,1.,8.68870353361429E-16));
#1315=DIRECTION('',(1.,0.,0.));
#1316=DIRECTION('',(0.,-1.,0.));
#1317=DIRECTION('',(1.,0.,0.));
#1318=DIRECTION('',(0.,0.,1.));
#1319=DIRECTION('',(3.1,0.,0.));
#1320=DIRECTION('',(0.,0.,1.));
#1321=DIRECTION('',(3.1,0.,0.));
#1322=DIRECTION('',(0.,0.,-1.));
#1323=DIRECTION('',(1.6,5.9211894646675E-17,0.));
#1324=DIRECTION('',(0.,0.,1.));
#1325=DIRECTION('',(0.,0.,-1.));
#1326=DIRECTION('',(0.,0.,1.));
#1327=DIRECTION('',(2.35,0.,0.));
#1328=DIRECTION('',(-0.707106781186547,0.,-0.707106781186548));
#1329=DIRECTION('',(0.707106781186547,0.,-0.707106781186548));
#1330=DIRECTION('',(0.,0.,-1.));
#1331=DIRECTION('',(1.6,0.,0.));
#1332=DIRECTION('',(0.,0.,1.));
#1333=DIRECTION('',(1.6,0.,0.));
#1334=DIRECTION('',(0.,0.,-1.));
#1335=DIRECTION('',(0.,0.,-1.));
#1336=DIRECTION('',(-7.40148683083438E-17,1.,0.));
#1337=DIRECTION('',(0.,0.,-1.));
#1338=DIRECTION('',(1.,0.,0.));
#1339=DIRECTION('',(1.,0.,0.));
#1340=DIRECTION('',(0.,-3.37638874761791,-0.399998781197086));
#1341=DIRECTION('',(0.,0.,-1.));
#1342=DIRECTION('',(0.,0.,-1.));
#1343=DIRECTION('',(-1.,0.,0.));
#1344=DIRECTION('',(0.,-1.,0.));
#1345=DIRECTION('',(1.,0.,0.));
#1346=DIRECTION('',(0.,3.4,0.));
#1347=DIRECTION('',(-1.,0.,0.));
#1348=DIRECTION('',(0.,3.4,0.));
#1349=DIRECTION('',(1.,0.,0.));
#1350=DIRECTION('',(0.,3.4,0.));
#1351=DIRECTION('',(1.,0.,0.));
#1352=DIRECTION('',(0.,3.4,0.));
#1353=DIRECTION('',(-1.,0.,0.));
#1354=DIRECTION('',(0.,0.,-1.));
#1355=DIRECTION('',(0.,-1.,0.));
#1356=DIRECTION('',(0.,0.,1.));
#1357=DIRECTION('',(-1.3,0.,0.));
#1358=DIRECTION('',(0.,0.,-1.));
#1359=DIRECTION('',(0.,0.,-1.));
#1360=DIRECTION('',(-1.3,0.,0.));
#1361=DIRECTION('',(0.,0.,-1.));
#1362=DIRECTION('',(0.,0.,1.));
#1363=DIRECTION('',(-2.8,0.,0.));
#1364=DIRECTION('',(0.,0.,-1.));
#1365=DIRECTION('',(0.,0.,-1.));
#1366=DIRECTION('',(-2.8,0.,0.));
#1367=DIRECTION('',(0.,0.,-1.));
#1368=DIRECTION('',(0.,0.,1.));
#1369=DIRECTION('',(-2.8,0.,0.));
#1370=DIRECTION('',(0.,0.,-1.));
#1371=DIRECTION('',(0.,0.,-1.));
#1372=DIRECTION('',(1.35393051783556E-16,1.,0.));
#1373=DIRECTION('',(-1.,0.,0.));
#1374=DIRECTION('',(0.,-1.,0.));
#1375=DIRECTION('',(-1.,0.,0.));
#1376=DIRECTION('',(0.,-1.,0.));
#1377=DIRECTION('',(1.,0.,0.));
#1378=DIRECTION('',(0.,-1.,0.));
#1379=DIRECTION('',(1.,0.,0.));
#1380=DIRECTION('',(1.,0.,0.));
#1381=DIRECTION('',(0.,0.,-1.));
#1382=DIRECTION('',(0.,-1.,0.));
#1383=DIRECTION('',(0.,0.,-1.));
#1384=DIRECTION('',(0.999999999999726,7.40019425024776E-7,0.));
#1385=DIRECTION('',(0.,0.,-1.));
#1386=DIRECTION('',(7.40019427548926E-7,-0.999999999999726,0.));
#1387=DIRECTION('',(0.,1.,0.));
#1388=DIRECTION('',(0.,0.,-1.));
#1389=DIRECTION('',(1.,0.,0.));
#1390=DIRECTION('',(-1.,-4.55009436321785E-17,0.));
#1391=DIRECTION('',(0.,0.,-1.));
#1392=DIRECTION('',(0.,1.,0.));
#1393=DIRECTION('',(1.90759969866865E-17,-1.,0.));
#1394=DIRECTION('',(0.,0.,-1.));
#1395=DIRECTION('',(-1.,0.,0.));
#1396=DIRECTION('',(1.,0.,0.));
#1397=DIRECTION('',(0.,0.,1.));
#1398=DIRECTION('',(0.,-1.,0.));
#1399=DIRECTION('',(0.,0.,-1.));
#1400=DIRECTION('',(1.,0.,0.));
#1401=DIRECTION('',(0.,1.,0.));
#1402=DIRECTION('',(1.,0.,0.));
#1403=DIRECTION('',(0.,-1.,0.));
#1404=DIRECTION('',(-1.,0.,0.));
#1405=DIRECTION('',(-7.40019457512127E-7,0.999999999999726,0.));
#1406=DIRECTION('',(0.,1.,0.));
#1407=DIRECTION('',(-1.,0.,0.));
#1408=DIRECTION('',(0.,-1.,0.));
#1409=DIRECTION('',(0.,0.,-1.));
#1410=DIRECTION('',(1.,0.,0.));
#1411=DIRECTION('',(0.,0.,1.));
#1412=DIRECTION('',(0.,0.,-1.));
#1413=DIRECTION('',(-1.,0.,0.));
#1414=DIRECTION('',(0.,-1.,0.));
#1415=DIRECTION('',(-1.,0.,0.));
#1416=DIRECTION('',(1.35393051783556E-16,1.,0.));
#1417=DIRECTION('',(1.,0.,0.));
#1418=DIRECTION('',(0.,-1.,0.));
#1419=DIRECTION('',(0.,-1.,0.));
#1420=DIRECTION('',(7.40019457512127E-7,-0.999999999999726,0.));
#1421=DIRECTION('',(1.,0.,0.));
#1422=DIRECTION('',(0.,1.,0.));
#1423=DIRECTION('',(-1.,0.,0.));
#1424=DIRECTION('',(0.,-1.,0.));
#1425=DIRECTION('',(1.,0.,0.));
#1426=DIRECTION('',(0.,0.,-1.));
#1427=DIRECTION('',(1.,0.,0.));
#1428=DIRECTION('',(0.,0.,-1.));
#1429=DIRECTION('',(0.,0.,-1.));
#1430=DIRECTION('',(0.,-1.,0.));
#1431=DIRECTION('',(0.,0.,-1.));
#1432=DIRECTION('',(0.,1.,0.));
#1433=DIRECTION('',(0.,0.,-1.));
#1434=DIRECTION('',(-1.,1.35393051783556E-16,0.));
#1435=DIRECTION('',(1.,0.,0.));
#1436=DIRECTION('',(0.,0.,-1.));
#1437=DIRECTION('',(0.999999999999726,7.40019425433147E-7,0.));
#1438=DIRECTION('',(0.,0.,-1.));
#1439=DIRECTION('',(0.,1.,0.));
#1440=DIRECTION('',(0.,0.,-1.));
#1441=DIRECTION('',(-1.,-1.04738021191052E-16,0.));
#1442=DIRECTION('',(0.,0.,-1.));
#1443=DIRECTION('',(1.96152477848968E-17,-1.,0.));
#1444=DIRECTION('',(0.,0.,-1.));
#1445=DIRECTION('',(1.,0.,0.));
#1446=DIRECTION('',(0.,0.,1.));
#1447=DIRECTION('',(1.,0.,0.));
#1448=DIRECTION('',(0.,0.,-1.));
#1449=DIRECTION('',(0.,1.,0.));
#1450=DIRECTION('',(0.,-1.,0.));
#1451=DIRECTION('',(0.,0.,-1.));
#1452=DIRECTION('',(0.,1.,0.));
#1453=DIRECTION('',(0.,0.,-1.));
#1454=DIRECTION('',(-1.,0.,0.));
#1455=DIRECTION('',(1.,0.,0.));
#1456=DIRECTION('',(0.,0.,-1.));
#1457=DIRECTION('',(1.85037170770859E-17,-1.,0.));
#1458=DIRECTION('',(0.,0.,1.));
#1459=DIRECTION('',(2.35,8.6967470262304E-17,0.));
#1460=DIRECTION('',(0.,0.,-1.));
#1461=DIRECTION('',(1.6,5.9211894646675E-17,0.));
#1462=DIRECTION('',(0.,0.,1.));
#1463=DIRECTION('',(2.35,0.,0.));
#1464=DIRECTION('',(0.,0.,1.));
#1465=DIRECTION('',(1.6,0.,0.));
#1466=DIRECTION('',(0.,0.,1.));
#1467=DIRECTION('',(-1.3,0.,0.));
#1468=DIRECTION('',(0.,0.,1.));
#1469=DIRECTION('',(-2.8,0.,0.));
#1470=CARTESIAN_POINT('',(27.5041208351491,14.,-5.09143954));
#1471=CARTESIAN_POINT('',(58.0082416702983,18.3925103348717,-5.09143954));
#1472=CARTESIAN_POINT('',(58.0082416702983,18.3925103348717,-5.09143954));
#1473=CARTESIAN_POINT('',(58.0082416702983,10.0425103803572,-5.09143954));
#1474=CARTESIAN_POINT('',(58.0082416702983,10.0425103803572,-5.09143954));
#1475=CARTESIAN_POINT('',(57.,10.0425103803572,-5.09143954));
#1476=CARTESIAN_POINT('',(57.,10.0425103803572,-5.09143954));
#1477=CARTESIAN_POINT('',(57.,7.,-5.09143954));
#1478=CARTESIAN_POINT('',(57.,7.,-5.09143954));
#1479=CARTESIAN_POINT('',(11.,7.,-5.09143954));
#1480=CARTESIAN_POINT('',(11.,7.,-5.09143954));
#1481=CARTESIAN_POINT('',(4.,1.33226762955019E-15,-5.09143954));
#1482=CARTESIAN_POINT('',(4.,2.22044604925031E-15,-5.09143954));
#1483=CARTESIAN_POINT('',(-3.,2.33146835171283E-15,-5.09143954));
#1484=CARTESIAN_POINT('',(-3.,2.22044604925031E-15,-5.09143954));
#1485=CARTESIAN_POINT('',(-3.,28.,-5.09143954));
#1486=CARTESIAN_POINT('',(-3.,28.,-5.09143954));
#1487=CARTESIAN_POINT('',(4.,28.,-5.09143954));
#1488=CARTESIAN_POINT('',(4.,28.,-5.09143954));
#1489=CARTESIAN_POINT('',(11.,21.,-5.09143954));
#1490=CARTESIAN_POINT('',(11.,21.,-5.09143954));
#1491=CARTESIAN_POINT('',(57.,21.,-5.09143954));
#1492=CARTESIAN_POINT('',(57.,21.,-5.09143954));
#1493=CARTESIAN_POINT('',(57.,18.3925103348717,-5.09143954));
#1494=CARTESIAN_POINT('',(57.,18.3925103348717,-5.09143954));
#1495=CARTESIAN_POINT('',(35.,14.,-5.09143954));
#1496=CARTESIAN_POINT('',(36.3,14.,-5.09143954));
#1497=CARTESIAN_POINT('',(33.7,14.0000000022309,-5.09143954));
#1498=CARTESIAN_POINT('',(0.499999999999999,24.5,-5.09143954));
#1499=CARTESIAN_POINT('',(-1.1,24.5,-5.09143954));
#1500=CARTESIAN_POINT('',(2.1,24.5,-5.09143954));
#1501=CARTESIAN_POINT('',(0.499999999999999,3.50000000000001,-5.09143954));
#1502=CARTESIAN_POINT('',(-1.1,3.50000000000001,-5.09143954));
#1503=CARTESIAN_POINT('',(2.1,3.50000000000001,-5.09143954));
#1504=CARTESIAN_POINT('',(14.8992535134906,11.2528069040839,-0.25));
#1505=CARTESIAN_POINT('',(4.,1.11022302462516E-15,-0.5));
#1506=CARTESIAN_POINT('',(4.,3.77475828372553E-15,-0.500000000000005));
#1507=CARTESIAN_POINT('',(11.,7.,-0.500000000000005));
#1508=CARTESIAN_POINT('',(11.,7.,-0.5));
#1509=CARTESIAN_POINT('',(10.2928932188135,7.00000000000001,-1.33226762955019E-14));
#1510=CARTESIAN_POINT('',(10.2928932188135,7.,0.));
#1511=CARTESIAN_POINT('',(3.79289321881345,0.500000000000005,-5.16253706450698E-15));
#1512=CARTESIAN_POINT('',(3.79289321881346,0.500000000000002,0.));
#1513=CARTESIAN_POINT('',(12.1520604175746,0.250000000000001,-0.25));
#1514=CARTESIAN_POINT('',(1.28102496759062,0.500000000000001,-4.44089209850063E-16));
#1515=CARTESIAN_POINT('',(0.499999999999999,0.400000000000014,-0.0999999999999877));
#1516=CARTESIAN_POINT('',(-0.281024967590617,0.500000000000001,-4.44089209850063E-16));
#1517=CARTESIAN_POINT('',(1.28102496759062,0.5,-1.66533453693773E-16));
#1518=CARTESIAN_POINT('',(-0.281024967590625,0.500000000000001,-2.77555756156289E-16));
#1519=CARTESIAN_POINT('',(-0.281024967590622,0.500000000000002,0.));
#1520=CARTESIAN_POINT('',(-3.,0.500000000000003,1.66533453693773E-16));
#1521=CARTESIAN_POINT('',(-3.,0.500000000000002,0.));
#1522=CARTESIAN_POINT('',(-3.,5.5511151231258E-16,-0.5));
#1523=CARTESIAN_POINT('',(-3.,1.11022302462516E-15,-0.5));
#1524=CARTESIAN_POINT('',(3.79289321881346,0.500000000000002,0.));
#1525=CARTESIAN_POINT('',(7.5,3.5,-2.84143954));
#1526=CARTESIAN_POINT('',(4.,2.22044604925031E-15,-5.09143954));
#1527=CARTESIAN_POINT('',(11.,7.,-5.09143954));
#1528=CARTESIAN_POINT('',(-3.,1.11022302462516E-15,-4.09143954));
#1529=CARTESIAN_POINT('',(-3.,2.22044604925031E-15,-5.09143954));
#1530=CARTESIAN_POINT('',(-3.,21.,-1.59143954));
#1531=CARTESIAN_POINT('',(-3.,27.5,0.));
#1532=CARTESIAN_POINT('',(-3.,27.5,1.38777878078145E-16));
#1533=CARTESIAN_POINT('',(-3.,28.,-0.5));
#1534=CARTESIAN_POINT('',(-3.,28.,-0.5));
#1535=CARTESIAN_POINT('',(-3.,28.,-0.5));
#1536=CARTESIAN_POINT('',(12.1520604175746,27.75,-0.25));
#1537=CARTESIAN_POINT('',(-0.281024967590617,27.5,-7.7715611723761E-16));
#1538=CARTESIAN_POINT('',(0.499999999999999,27.6,-0.0999999999999883));
#1539=CARTESIAN_POINT('',(1.28102496759062,27.5,-7.7715611723761E-16));
#1540=CARTESIAN_POINT('',(-0.281024967590637,27.5,-1.52655665885959E-15));
#1541=CARTESIAN_POINT('',(1.28102496759075,27.5,-1.02695629777827E-15));
#1542=CARTESIAN_POINT('',(1.28102496759061,27.5,0.));
#1543=CARTESIAN_POINT('',(3.79289321881345,27.5,-1.16573417585641E-15));
#1544=CARTESIAN_POINT('',(3.79289321881345,27.5,0.));
#1545=CARTESIAN_POINT('',(4.,28.,-0.500000000000002));
#1546=CARTESIAN_POINT('',(4.,28.,-0.5));
#1547=CARTESIAN_POINT('',(-3.,27.5,0.));
#1548=CARTESIAN_POINT('',(14.8992535134906,16.7471930959161,-0.25));
#1549=CARTESIAN_POINT('',(3.79289321881345,27.5,0.));
#1550=CARTESIAN_POINT('',(10.2928932188135,21.,-1.19904086659517E-14));
#1551=CARTESIAN_POINT('',(10.2928932188135,21.,0.));
#1552=CARTESIAN_POINT('',(11.,21.,-0.500000000000004));
#1553=CARTESIAN_POINT('',(11.,21.,-0.5));
#1554=CARTESIAN_POINT('',(-3.,28.,-4.09143954));
#1555=CARTESIAN_POINT('',(4.,28.,-5.09143954));
#1556=CARTESIAN_POINT('',(7.5,24.5,-2.84143954));
#1557=CARTESIAN_POINT('',(11.,21.,-0.5));
#1558=CARTESIAN_POINT('',(0.499999999999999,24.5,-0.75));
#1559=CARTESIAN_POINT('',(2.7,24.5,-0.899999999999998));
#1560=CARTESIAN_POINT('',(3.6,24.5,9.43689570931383E-16));
#1561=CARTESIAN_POINT('',(2.1,24.5,-1.5));
#1562=CARTESIAN_POINT('',(0.499999999999999,24.5,0.));
#1563=CARTESIAN_POINT('',(0.499999999999999,24.5,0.));
#1564=CARTESIAN_POINT('',(-2.6,24.5,7.7715611723761E-16));
#1565=CARTESIAN_POINT('',(-1.1,24.5,-1.5));
#1566=CARTESIAN_POINT('',(-1.1,24.5,-1.5));
#1567=CARTESIAN_POINT('',(0.499999999999999,24.5,-1.5));
#1568=CARTESIAN_POINT('',(27.3041208351491,14.,0.));
#1569=CARTESIAN_POINT('',(57.,7.,0.));
#1570=CARTESIAN_POINT('',(57.,7.,0.));
#1571=CARTESIAN_POINT('',(57.,10.0425103803572,0.));
#1572=CARTESIAN_POINT('',(57.,10.0425103803572,0.));
#1573=CARTESIAN_POINT('',(57.,10.0425103803572,0.));
#1574=CARTESIAN_POINT('',(58.0082416702983,10.0425103803572,0.));
#1575=CARTESIAN_POINT('',(58.0082416702983,10.0425103803572,0.));
#1576=CARTESIAN_POINT('',(58.0082416702983,10.8411218757489,2.94209101525666E-15));
#1577=CARTESIAN_POINT('',(58.0082416702983,10.8411218757489,8.88178419700125E-16));
#1578=CARTESIAN_POINT('',(57.,10.8411218757489,5.93275428784068E-15));
#1579=CARTESIAN_POINT('',(57.,10.5425103803572,0.));
#1580=CARTESIAN_POINT('',(57.,10.5425103803572,0.));
#1581=CARTESIAN_POINT('',(56.1,10.5425103803572,0.));
#1582=CARTESIAN_POINT('',(56.1,10.5425103803572,0.));
#1583=CARTESIAN_POINT('',(56.1,10.5425103803572,0.));
#1584=CARTESIAN_POINT('',(56.1,7.9,0.));
#1585=CARTESIAN_POINT('',(56.1,7.9,0.));
#1586=CARTESIAN_POINT('',(-2.1,7.9,0.));
#1587=CARTESIAN_POINT('',(-2.1,7.9,0.));
#1588=CARTESIAN_POINT('',(-2.1,20.1,0.));
#1589=CARTESIAN_POINT('',(-2.1,20.1,0.));
#1590=CARTESIAN_POINT('',(56.0999991859789,20.1,0.));
#1591=CARTESIAN_POINT('',(56.0999991859789,20.1,0.));
#1592=CARTESIAN_POINT('',(56.1000002275486,18.6925103348717,0.));
#1593=CARTESIAN_POINT('',(56.1000002275486,18.6925103348717,0.));
#1594=CARTESIAN_POINT('',(56.1000002275486,17.8925103348717,0.));
#1595=CARTESIAN_POINT('',(57.,17.8925103348717,0.));
#1596=CARTESIAN_POINT('',(57.,17.8925103348717,0.));
#1597=CARTESIAN_POINT('',(57.,17.5938993709848,0.));
#1598=CARTESIAN_POINT('',(57.,17.5938993709848,-1.02695629777827E-15));
#1599=CARTESIAN_POINT('',(57.,17.5938993709848,0.));
#1600=CARTESIAN_POINT('',(58.0082416702983,17.5938993709848,-1.74860126378462E-15));
#1601=CARTESIAN_POINT('',(58.0082416702983,17.5938993709848,-6.93889390390723E-16));
#1602=CARTESIAN_POINT('',(58.0082416702983,18.3925103348717,0.));
#1603=CARTESIAN_POINT('',(57.,18.3925103348717,0.));
#1604=CARTESIAN_POINT('',(57.,18.3925103348717,0.));
#1605=CARTESIAN_POINT('',(57.,21.,0.));
#1606=CARTESIAN_POINT('',(57.,21.,0.));
#1607=CARTESIAN_POINT('',(10.2928932188135,21.,0.));
#1608=CARTESIAN_POINT('',(0.499999999999999,3.50000000000001,0.));
#1609=CARTESIAN_POINT('',(-2.6,3.50000000000001,2.77555756156289E-16));
#1610=CARTESIAN_POINT('',(0.499999999999999,3.50000000000001,0.));
#1611=CARTESIAN_POINT('',(3.6,3.49999999999843,3.88578058618805E-16));
#1612=CARTESIAN_POINT('',(0.499999999999999,24.5,-4.09143954));
#1613=CARTESIAN_POINT('',(2.1,24.5,-2.5));
#1614=CARTESIAN_POINT('',(-1.1,24.5,-1.5));
#1615=CARTESIAN_POINT('',(0.499999999999999,3.50000000000001,-0.75));
#1616=CARTESIAN_POINT('',(2.7,3.50000000000001,-0.899999999999999));
#1617=CARTESIAN_POINT('',(2.1,3.50000000000001,-1.5));
#1618=CARTESIAN_POINT('',(-2.6,3.50000000000001,5.55111512312578E-16));
#1619=CARTESIAN_POINT('',(-1.1,3.50000000000001,-1.5));
#1620=CARTESIAN_POINT('',(0.499999999999999,3.50000000000001,-1.5));
#1621=CARTESIAN_POINT('',(0.499999999999999,3.50000000000001,-4.09143954));
#1622=CARTESIAN_POINT('',(2.1,3.50000000000001,-2.5));
#1623=CARTESIAN_POINT('',(-1.1,3.50000000000001,-1.5));
#1624=CARTESIAN_POINT('',(57.,21.,-1.59143954));
#1625=CARTESIAN_POINT('',(57.,21.,0.));
#1626=CARTESIAN_POINT('',(58.0082416702983,14.2175103576144,-2.04571977));
#1627=CARTESIAN_POINT('',(58.0082416702983,14.2175106233669,0.399998781197086));
#1628=CARTESIAN_POINT('',(58.0082416702983,10.0425103803572,0.));
#1629=CARTESIAN_POINT('',(58.0082416702983,18.3925103348717,0.));
#1630=CARTESIAN_POINT('',(57.,14.2175106233669,0.399998781197085));
#1631=CARTESIAN_POINT('',(57.,14.4586456758082,-2.99143954));
#1632=CARTESIAN_POINT('',(57.,14.4586456758082,-2.99143954));
#1633=CARTESIAN_POINT('',(57.,13.9763755709255,-2.99143954));
#1634=CARTESIAN_POINT('',(57.,14.2175106233669,0.399998781197084));
#1635=CARTESIAN_POINT('',(57.6082416702983,14.2175106233669,0.399998781197084));
#1636=CARTESIAN_POINT('',(57.,14.2175106233669,0.399998781197084));
#1637=CARTESIAN_POINT('',(57.,14.2175106233669,0.399998781197084));
#1638=CARTESIAN_POINT('',(57.,17.8925103348717,-1.59143954));
#1639=CARTESIAN_POINT('',(57.,17.8925103348717,0.));
#1640=CARTESIAN_POINT('',(57.,17.8925103348717,-2.99143954));
#1641=CARTESIAN_POINT('',(57.,17.8925103348717,-2.99143954));
#1642=CARTESIAN_POINT('',(35.,14.,-2.99143954));
#1643=CARTESIAN_POINT('',(33.7,14.,-3.69143954));
#1644=CARTESIAN_POINT('',(33.7,14.,-1.59143954));
#1645=CARTESIAN_POINT('',(35.,14.,-1.59143954));
#1646=CARTESIAN_POINT('',(36.3,14.,-1.59143954));
#1647=CARTESIAN_POINT('',(36.3,14.,-1.59143954));
#1648=CARTESIAN_POINT('',(35.,14.,-2.99143954));
#1649=CARTESIAN_POINT('',(32.2,14.,-1.59143954));
#1650=CARTESIAN_POINT('',(32.2,14.,-1.59143954));
#1651=CARTESIAN_POINT('',(32.2,14.,-2.99143954));
#1652=CARTESIAN_POINT('',(35.,14.,-2.99143954));
#1653=CARTESIAN_POINT('',(37.8,14.,-2.99143954));
#1654=CARTESIAN_POINT('',(37.8,14.,-1.59143954));
#1655=CARTESIAN_POINT('',(37.8,14.,-1.59143954));
#1656=CARTESIAN_POINT('',(35.,14.,-1.59143954));
#1657=CARTESIAN_POINT('',(35.,14.,-1.59143954));
#1658=CARTESIAN_POINT('',(26.9999998889971,14.,-2.99143954));
#1659=CARTESIAN_POINT('',(-0.099999999999999,9.9,-2.99143954));
#1660=CARTESIAN_POINT('',(-0.0999999999999996,9.9,-2.99143954));
#1661=CARTESIAN_POINT('',(-0.0999999999999979,18.1,-2.99143954));
#1662=CARTESIAN_POINT('',(54.0999997779942,9.9,-2.99143954));
#1663=CARTESIAN_POINT('',(54.0999997779942,9.9,-2.99143954));
#1664=CARTESIAN_POINT('',(54.0999997779942,10.5425103803572,-2.99143954));
#1665=CARTESIAN_POINT('',(54.0999997779942,10.5425103803572,-2.99143954));
#1666=CARTESIAN_POINT('',(57.,10.5425103803572,-2.99143954));
#1667=CARTESIAN_POINT('',(57.,10.5425103803572,-2.99143954));
#1668=CARTESIAN_POINT('',(57.,13.9763755709255,-2.99143954));
#1669=CARTESIAN_POINT('',(54.0999997779942,17.8925103348717,-2.99143954));
#1670=CARTESIAN_POINT('',(54.0999997779942,17.8925103348717,-2.99143954));
#1671=CARTESIAN_POINT('',(54.0999997779942,18.1,-2.99143954));
#1672=CARTESIAN_POINT('',(54.0999997779942,18.1,-2.99143954));
#1673=CARTESIAN_POINT('',(-0.0999999999999979,18.1,-2.99143954));
#1674=CARTESIAN_POINT('',(56.1000002275486,18.6925103348717,0.));
#1675=CARTESIAN_POINT('',(56.1000002275486,18.6925103348717,0.));
#1676=CARTESIAN_POINT('',(56.1000002275486,18.6925103348717,-1.));
#1677=CARTESIAN_POINT('',(56.1000002275486,18.6925103348717,-1.));
#1678=CARTESIAN_POINT('',(56.1000002275486,17.8925103348717,-1.));
#1679=CARTESIAN_POINT('',(56.1000002275486,17.8925103348717,0.));
#1680=CARTESIAN_POINT('',(56.0999991859789,20.1,0.));
#1681=CARTESIAN_POINT('',(56.0999991859789,20.1,0.));
#1682=CARTESIAN_POINT('',(56.0999991859789,20.1,-1.));
#1683=CARTESIAN_POINT('',(56.0999991859789,20.1,-1.));
#1684=CARTESIAN_POINT('',(-2.1,20.1,0.));
#1685=CARTESIAN_POINT('',(-2.1,20.1,0.));
#1686=CARTESIAN_POINT('',(-2.1,20.1,-1.));
#1687=CARTESIAN_POINT('',(-2.1,20.1,-1.));
#1688=CARTESIAN_POINT('',(-2.1,7.9,0.));
#1689=CARTESIAN_POINT('',(-2.1,7.9,0.));
#1690=CARTESIAN_POINT('',(-2.1,7.9,-1.));
#1691=CARTESIAN_POINT('',(-2.1,7.9,-1.));
#1692=CARTESIAN_POINT('',(56.1,7.9,0.));
#1693=CARTESIAN_POINT('',(56.1,7.9,0.));
#1694=CARTESIAN_POINT('',(56.1,7.9,-1.));
#1695=CARTESIAN_POINT('',(56.1,7.9,-1.));
#1696=CARTESIAN_POINT('',(56.1,10.5425103803572,0.));
#1697=CARTESIAN_POINT('',(56.1,10.5425103803572,-1.));
#1698=CARTESIAN_POINT('',(56.1,10.5425103803572,-1.));
#1699=CARTESIAN_POINT('',(56.1,10.5425103803572,-1.));
#1700=CARTESIAN_POINT('',(27.0000001137743,14.,-1.));
#1701=CARTESIAN_POINT('',(55.3,10.5425103803572,-1.));
#1702=CARTESIAN_POINT('',(55.3,10.5425103803572,-1.));
#1703=CARTESIAN_POINT('',(55.3,8.7,-1.));
#1704=CARTESIAN_POINT('',(55.3,8.7,-1.));
#1705=CARTESIAN_POINT('',(-1.3,8.7,-1.));
#1706=CARTESIAN_POINT('',(-1.3,8.7,-1.));
#1707=CARTESIAN_POINT('',(-1.3,19.3,-1.));
#1708=CARTESIAN_POINT('',(-1.3,19.3,-1.));
#1709=CARTESIAN_POINT('',(55.2999997779942,19.3,-1.));
#1710=CARTESIAN_POINT('',(55.2999997779942,19.3,-1.));
#1711=CARTESIAN_POINT('',(55.3000005975581,18.1925103348717,-1.));
#1712=CARTESIAN_POINT('',(55.3000005975581,18.1925103348717,-1.));
#1713=CARTESIAN_POINT('',(55.3000005975581,17.8925103348717,-1.));
#1714=CARTESIAN_POINT('',(55.3000005975581,17.8925103348717,-1.));
#1715=CARTESIAN_POINT('',(56.1000002275486,17.8925103348717,-1.));
#1716=CARTESIAN_POINT('',(55.0000008195639,17.8925103348717,-1.59143954));
#1717=CARTESIAN_POINT('',(55.3000005975581,17.8925103348717,-1.));
#1718=CARTESIAN_POINT('',(55.3000005975581,17.8925103348717,-1.59143954));
#1719=CARTESIAN_POINT('',(54.0999997779942,17.8925103348717,-1.59143954));
#1720=CARTESIAN_POINT('',(54.0999997779942,17.8925103348717,-1.59143954));
#1721=CARTESIAN_POINT('',(54.0999997779942,17.8925103348717,-2.99143954));
#1722=CARTESIAN_POINT('',(27.3041208351491,14.,-1.59143954));
#1723=CARTESIAN_POINT('',(55.3,10.5425103803572,-1.59143954));
#1724=CARTESIAN_POINT('',(55.3,10.5425103803572,-1.59143954));
#1725=CARTESIAN_POINT('',(54.0999997779942,10.5425103803572,-1.59143954));
#1726=CARTESIAN_POINT('',(54.0999997779942,10.5425103803572,-1.59143954));
#1727=CARTESIAN_POINT('',(54.0999997779942,9.9,-1.59143954));
#1728=CARTESIAN_POINT('',(54.0999997779942,9.9,-1.59143954));
#1729=CARTESIAN_POINT('',(-0.1,9.9,-1.59143954));
#1730=CARTESIAN_POINT('',(-0.099999999999999,9.9,-1.59143954));
#1731=CARTESIAN_POINT('',(-0.0999999999999979,18.1,-1.59143954));
#1732=CARTESIAN_POINT('',(-0.0999999999999979,18.1,-1.59143954));
#1733=CARTESIAN_POINT('',(54.0999997779942,18.1,-1.59143954));
#1734=CARTESIAN_POINT('',(54.0999997779942,18.1,-1.59143954));
#1735=CARTESIAN_POINT('',(55.3000005975581,18.1925103348717,-1.59143954));
#1736=CARTESIAN_POINT('',(55.3000005975581,18.1925103348717,-1.59143954));
#1737=CARTESIAN_POINT('',(55.2999997779942,19.3,-1.59143954));
#1738=CARTESIAN_POINT('',(55.2999997779942,19.3,-1.59143954));
#1739=CARTESIAN_POINT('',(-1.3,19.3,-1.59143954));
#1740=CARTESIAN_POINT('',(-1.3,19.3,-1.59143954));
#1741=CARTESIAN_POINT('',(-1.3,8.7,-1.59143954));
#1742=CARTESIAN_POINT('',(-1.3,8.7,-1.59143954));
#1743=CARTESIAN_POINT('',(55.3,8.7,-1.59143954));
#1744=CARTESIAN_POINT('',(55.3,8.7,-1.59143954));
#1745=CARTESIAN_POINT('',(55.3,10.5425103803572,-1.59143954));
#1746=CARTESIAN_POINT('',(54.0999997779942,18.1,-1.59143954));
#1747=CARTESIAN_POINT('',(54.0999997779942,18.1,-1.59143954));
#1748=CARTESIAN_POINT('',(54.0999997779942,18.1,-1.59143954));
#1749=CARTESIAN_POINT('',(54.0999997779942,10.5425103803572,-1.59143954));
#1750=CARTESIAN_POINT('',(54.0999997779942,9.9,-1.59143954));
#1751=CARTESIAN_POINT('',(54.0999997779942,9.9,-1.59143954));
#1752=CARTESIAN_POINT('',(-0.099999999999999,9.9,-1.59143954));
#1753=CARTESIAN_POINT('',(-0.0999999999999979,18.1,-1.59143954));
#1754=CARTESIAN_POINT('',(-0.0999999999999979,18.1,-1.59143954));
#1755=CARTESIAN_POINT('',(-0.099999999999999,9.9,-1.59143954));
#1756=CARTESIAN_POINT('',(55.3000005975581,18.1925103348717,0.));
#1757=CARTESIAN_POINT('',(55.3000005975581,18.1925103348717,-1.));
#1758=CARTESIAN_POINT('',(55.2999997779942,19.3,0.));
#1759=CARTESIAN_POINT('',(55.2999997779942,19.3,-1.));
#1760=CARTESIAN_POINT('',(-1.3,19.3,0.));
#1761=CARTESIAN_POINT('',(-1.3,19.3,-1.));
#1762=CARTESIAN_POINT('',(-1.3,8.7,0.));
#1763=CARTESIAN_POINT('',(-1.3,8.7,-1.));
#1764=CARTESIAN_POINT('',(55.3,8.7,0.));
#1765=CARTESIAN_POINT('',(55.3,8.7,-1.));
#1766=CARTESIAN_POINT('',(55.3,10.5425103803572,0.));
#1767=CARTESIAN_POINT('',(55.3,10.5425103803572,-1.59143954));
#1768=CARTESIAN_POINT('',(57.,18.3925103348717,-1.59143954));
#1769=CARTESIAN_POINT('',(57.,18.3925103348717,0.));
#1770=CARTESIAN_POINT('',(57.6082416702983,18.3925103348717,-1.59143954));
#1771=CARTESIAN_POINT('',(57.,10.0425103803572,-1.59143954));
#1772=CARTESIAN_POINT('',(57.,10.0425103803572,0.));
#1773=CARTESIAN_POINT('',(57.,10.5425103803572,-1.59143954));
#1774=CARTESIAN_POINT('',(57.,10.5425103803572,0.));
#1775=CARTESIAN_POINT('',(57.,17.8925103348717,-1.59143954));
#1776=CARTESIAN_POINT('',(57.,7.,-1.59143954));
#1777=CARTESIAN_POINT('',(57.,7.,0.));
#1778=CARTESIAN_POINT('',(-3.,7.,-1.59143954));
#1779=CARTESIAN_POINT('',(0.499999999999999,24.5,-0.75));
#1780=CARTESIAN_POINT('',(0.499999999999999,24.5,-4.09143954));
#1781=CARTESIAN_POINT('',(0.499999999999999,3.50000000000001,-0.75));
#1782=CARTESIAN_POINT('',(0.499999999999999,3.50000000000001,-4.09143954));
#1783=CARTESIAN_POINT('',(35.,14.,-2.99143954));
#1784=CARTESIAN_POINT('',(35.,14.,-2.99143954));
#1785=PLANE('',#1163);
#1786=PLANE('',#1167);
#1787=PLANE('',#1168);
#1788=PLANE('',#1169);
#1789=PLANE('',#1170);
#1790=PLANE('',#1171);
#1791=PLANE('',#1172);
#1792=PLANE('',#1173);
#1793=PLANE('',#1174);
#1794=PLANE('',#1175);
#1795=PLANE('',#1180);
#1796=PLANE('',#1187);
#1797=PLANE('',#1188);
#1798=PLANE('',#1190);
#1799=PLANE('',#1195);
#1800=PLANE('',#1201);
#1801=PLANE('',#1202);
#1802=PLANE('',#1203);
#1803=PLANE('',#1204);
#1804=PLANE('',#1205);
#1805=PLANE('',#1206);
#1806=PLANE('',#1207);
#1807=PLANE('',#1208);
#1808=PLANE('',#1209);
#1809=PLANE('',#1210);
#1810=PLANE('',#1211);
#1811=PLANE('',#1212);
#1812=PLANE('',#1213);
#1813=PLANE('',#1214);
#1814=PLANE('',#1215);
#1815=PLANE('',#1216);
#1816=PLANE('',#1217);
#1817=PLANE('',#1218);
#1818=PLANE('',#1219);
#1819=PLANE('',#1220);
#1820=PLANE('',#1221);
#1821=PLANE('',#1222);
#1822=PLANE('',#1223);
#1823=PLANE('',#1224);
#1824=PLANE('',#1225);
#1825=PLANE('',#1226);
#1826=PLANE('',#1227);
#1827=PLANE('',#1228);
#1828=PLANE('',#1229);
#1829=CLOSED_SHELL('',(#1106,#1107,#1108,#1109,#1110,#1111,#1112,#1113,
#1114,#1115,#1116,#1117,#1118,#1119,#1120,#1121,#1122,#1123,#1124,#1125,
#1126,#1127,#1128,#1129,#1130,#1131,#1132,#1133,#1134,#1135,#1136,#1137,
#1138,#1139,#1140,#1141,#1142,#1143,#1144,#1145,#1146,#1147,#1148,#1149,
#1150,#1151,#1152,#1153,#1154,#1155,#1156,#1157,#1158,#1159,#1160,#1161,
#1162));
#1830=MANIFOLD_SOLID_BREP('',#1829);
#1831=ADVANCED_BREP_SHAPE_REPRESENTATION('',(#1830),#102);
ENDSEC;
END-ISO-10303-21;
