ISO-10303-21;
HEADER;
/* Generated by software containing ST-Developer
 * from STEP Tools, Inc. (www.steptools.com) 
 */

FILE_DESCRIPTION(
/* description */ ('Alibre Inc.'),
/* implementation_level */ '2;1');

FILE_NAME(
/* name */ 'export-3137A4DF-7E17-4935-B537-DC6E0E32E28C',
/* time_stamp */ '2026-04-14T14:01:48+02:00',
/* author */ (''),
/* organization */ (''),
/* preprocessor_version */ 'ST-DEVELOPER v17',
/* originating_system */ 'Alibre',
/* authorisation */ '');

FILE_SCHEMA (('CONFIG_CONTROL_DESIGN'));
ENDSEC;

DATA;
#10=MECHANICAL_CONTEXT('detailed design',#18,'mechanical');
#11=PRODUCT_RELATED_PRODUCT_CATEGORY('szczeg\X\F3\X2\0142\X0\','',(#97));
#12=CC_DESIGN_SECURITY_CLASSIFICATION(#14,(#96));
#13=SECURITY_CLASSIFICATION_LEVEL('unclassified');
#14=SECURITY_CLASSIFICATION('nazwa','Zabezpieczenie dla sesji',#13);
#15=SHAPE_DEFINITION_REPRESENTATION(#16,#1921);
#16=PRODUCT_DEFINITION_SHAPE('','Opis definicji',#95);
#17=APPLICATION_PROTOCOL_DEFINITION('AP definition status',
'config_control_design',1994,#18);
#18=APPLICATION_CONTEXT(
'control the configuration of three dimensional design');
#19=DESIGN_CONTEXT('detailed design',#18,'design');
#20=PERSON_AND_ORGANIZATION_ROLE('creator');
#21=PERSON_AND_ORGANIZATION_ROLE('classification_officer');
#22=PERSON_AND_ORGANIZATION_ROLE('creator');
#23=PERSON_AND_ORGANIZATION_ROLE('design_supplier');
#24=PERSON_AND_ORGANIZATION_ROLE('design_owner');
#25=CC_DESIGN_PERSON_AND_ORGANIZATION_ASSIGNMENT(#56,#20,(#95));
#26=CC_DESIGN_PERSON_AND_ORGANIZATION_ASSIGNMENT(#59,#21,(#14));
#27=CC_DESIGN_PERSON_AND_ORGANIZATION_ASSIGNMENT(#60,#22,(#96));
#28=CC_DESIGN_PERSON_AND_ORGANIZATION_ASSIGNMENT(#61,#23,(#96));
#29=CC_DESIGN_PERSON_AND_ORGANIZATION_ASSIGNMENT(#62,#24,(#97));
#30=DATE_TIME_ROLE('creation_date');
#31=DATE_TIME_ROLE('classification_date');
#32=CC_DESIGN_DATE_AND_TIME_ASSIGNMENT(#85,#30,(#95));
#33=CC_DESIGN_DATE_AND_TIME_ASSIGNMENT(#88,#31,(#14));
#34=CC_DESIGN_APPROVAL(#92,(#95));
#35=CC_DESIGN_APPROVAL(#93,(#96));
#36=CC_DESIGN_APPROVAL(#94,(#14));
#37=APPROVAL_PERSON_ORGANIZATION(#55,#92,#63);
#38=APPROVAL_PERSON_ORGANIZATION(#57,#93,#64);
#39=APPROVAL_PERSON_ORGANIZATION(#58,#94,#65);
#40=ORGANIZATION('NUMER_ID_DEFINICJI_ORGANIZACJI_ZATWIERDZAJ\X2\0104\X0\C
EJ','NAZWA_DEFINICJI_ORGANIZACJI_ZATWIERDZAJ\X2\0104\X0\CEJ',
'DEFINICJA_ZATWIERDZONA_PRZEZ_ORGANIZACJ\X2\0118\X0\');
#41=ORGANIZATION('NUMER_ID_ORGANIZACJI_KONSTRUKTORA',
'NAZWA_ORGANIZACI_KONSTRUKTORA','OPIS_ORGANIZACJI_KONSTRUKTORA');
#42=ORGANIZATION('NUMER_ID_ORGANIZACJI_ZATWIERDZAJ\X2\0104\X0\CEJ',
'NAZWA_ORGAZNIZACJI_ZATWIERDZAJ\X2\0104\X0\CEJ',
'ORGANIZACJA_ZATWIERDZAJ\X2\0104\X0\CA');
#43=ORGANIZATION('NUMER_ID_ZABEZPIECZE\X2\0143\X0\_ZATWIERDZONYCH_PRZE
Z','ZABEZPIECZENIE_ZATWIERDZONE_PRZEZ_ORGANIZACJ\X2\0118\X0\',
'ZABEZPIECZENIE_ZATWIERDZONE_PRZEZ_(OPIS_ORGANIZACJI)');
#44=ORGANIZATION('NUMER_ID_KLASYFIKATORA',
'NAZWA_KLASYFIKATORA_ORGANIZACJI','OPIS_KLASYFIKATORA_ORGANIZACJI');
#45=ORGANIZATION('NUMER_ID_DOSTAWCY_ORGANIZACJI',
'NAZWA_DOSTAWCY_ORGANIZACJI','OPIS_ORGANIZACJI_DOSTAWCY');
#46=ORGANIZATION('NUMER_ID_ORGANIZACJI_W\X2\0141\X0\A\X2\015A\X0\CICIE
LA','NAZWA_ORGANIZACJI_W\X2\0141\X0\A\X2\015A\X0\CICIELA',
'OPIS_ORGANIZACJI_W\X2\0141\X0\A\X2\015A\X0\CICIELA');
#47=PERSON('IDzatwierdzaj\X2\0105\X0\cego_DEFINICJ\X2\0118\X0\',
'DEFINICJA_ZATWIERDZONA_PRZEZ_NAZWISKO',
'IMI\X2\0118\X0\_OSOBY_ZATWIERDZAJ\X2\0104\X0\CEJ_DEFINICJ\X2\0118\X0\',
$,$,$);
#48=PERSON('NUMER_IDtw\X\F3rcy','NAZWISKO_KONSTRUKTORA',
'IMI\X2\0118\X0\_KONSTRUKTORA',$,$,$);
#49=PERSON('IDzatwierdzaj\X2\0105\X0\cego',
'ZATWIERDZONE_PRZEZ_NAZWISKO','ZATWIERDZONE_PRZEZ_IMI\X2\0118\X0\',$,$,
$);
#50=PERSON('IDzatwierdzaj\X2\0105\X0\cego_zabezpieczenie',
'NAZWISKO_ZABEZPIECZAJ\X2\0104\X0\CEGO',
'ZABEZPIECZENIE_ZATWIERDZONE_PRZEZ_(IMI\X2\0118\X0\)',$,$,$);
#51=PERSON('IDKlasyfikatora','NAZWISKO_KLASYFIKATORA',
'IMIE_KLASYFIKATORA',$,$,$);
#52=PERSON('IDautora','NAZWISKO_AUTORA','IMI\X2\0118\X0\_AUTORA',$,$,$);
#53=PERSON('IDdostawcy','NAZWISKO_DOSTAWCY','IMI\X2\0118\X0\_DOSTAWCY',
$,$,$);
#54=PERSON('w\X2\0142\X0\a\X2\015B\X0\ciciel ID',
'NAZWISKO_W\X2\0141\X0\A\X2\015A\X0\CICIELA','IMIE_AUTORA',$,$,$);
#55=PERSON_AND_ORGANIZATION(#47,#40);
#56=PERSON_AND_ORGANIZATION(#48,#41);
#57=PERSON_AND_ORGANIZATION(#49,#42);
#58=PERSON_AND_ORGANIZATION(#50,#43);
#59=PERSON_AND_ORGANIZATION(#51,#44);
#60=PERSON_AND_ORGANIZATION(#52,#41);
#61=PERSON_AND_ORGANIZATION(#53,#45);
#62=PERSON_AND_ORGANIZATION(#54,#46);
#63=APPROVAL_ROLE('definition_approval');
#64=APPROVAL_ROLE('version_approval');
#65=APPROVAL_ROLE('security_approval');
#66=APPROVAL_DATE_TIME(#84,#92);
#67=APPROVAL_DATE_TIME(#86,#93);
#68=APPROVAL_DATE_TIME(#87,#94);
#69=COORDINATED_UNIVERSAL_TIME_OFFSET(2,0,.AHEAD.);
#70=COORDINATED_UNIVERSAL_TIME_OFFSET(2,0,.AHEAD.);
#71=COORDINATED_UNIVERSAL_TIME_OFFSET(2,0,.AHEAD.);
#72=COORDINATED_UNIVERSAL_TIME_OFFSET(2,0,.AHEAD.);
#73=COORDINATED_UNIVERSAL_TIME_OFFSET(2,0,.AHEAD.);
#74=LOCAL_TIME(14,1,13.,#69);
#75=LOCAL_TIME(14,1,13.,#70);
#76=LOCAL_TIME(14,1,13.,#71);
#77=LOCAL_TIME(14,1,13.,#72);
#78=LOCAL_TIME(14,1,13.,#73);
#79=CALENDAR_DATE(2026,14,4);
#80=CALENDAR_DATE(2026,14,4);
#81=CALENDAR_DATE(2026,14,4);
#82=CALENDAR_DATE(2026,14,4);
#83=CALENDAR_DATE(2026,14,4);
#84=DATE_AND_TIME(#79,#74);
#85=DATE_AND_TIME(#80,#75);
#86=DATE_AND_TIME(#81,#76);
#87=DATE_AND_TIME(#82,#77);
#88=DATE_AND_TIME(#83,#78);
#89=APPROVAL_STATUS('not_yet_approved');
#90=APPROVAL_STATUS('not_yet_approved');
#91=APPROVAL_STATUS('not_yet_approved');
#92=APPROVAL(#89,'zatwierdzenie definicji');
#93=APPROVAL(#90,'zatwierdzenie wersji');
#94=APPROVAL(#91,'zatwierdzenie zabezpieczenia');
#95=PRODUCT_DEFINITION('definicja ID','Opis definicji',#96,#19);
#96=PRODUCT_DEFINITION_FORMATION_WITH_SPECIFIED_SOURCE(
'ID_WERSJI_PRODUKTU','OPIS_WERSJI_PRODUKTU',#97,.NOT_KNOWN.);
#97=PRODUCT('Top','Top','',(#10));
#98=(
LENGTH_UNIT()
NAMED_UNIT(*)
SI_UNIT(.MILLI.,.METRE.)
);
#99=(
NAMED_UNIT(*)
PLANE_ANGLE_UNIT()
SI_UNIT($,.RADIAN.)
);
#100=(
NAMED_UNIT(*)
SI_UNIT($,.STERADIAN.)
SOLID_ANGLE_UNIT()
);
#101=UNCERTAINTY_MEASURE_WITH_UNIT(LENGTH_MEASURE(1.E-6),#98,
'DISTANCE_ACCURACY_VALUE',
'Maximum model space distance between geometric entities at asserted c
onnectivities');
#102=(
GEOMETRIC_REPRESENTATION_CONTEXT(3)
GLOBAL_UNCERTAINTY_ASSIGNED_CONTEXT((#101))
GLOBAL_UNIT_ASSIGNED_CONTEXT((#100,#99,#98))
REPRESENTATION_CONTEXT('ID1','3D')
);
#103=CYLINDRICAL_SURFACE('',#1245,2.8);
#104=CYLINDRICAL_SURFACE('',#1264,3.4);
#105=CYLINDRICAL_SURFACE('',#1270,1.6);
#106=CYLINDRICAL_SURFACE('',#1290,2.8);
#107=CYLINDRICAL_SURFACE('',#1291,3.4);
#108=CYLINDRICAL_SURFACE('',#1294,1.6);
#109=CONICAL_SURFACE('',#1243,3.55,0.785398163397448);
#110=CONICAL_SURFACE('',#1268,2.35,0.785398163397448);
#111=CONICAL_SURFACE('',#1289,3.55,0.785398163397448);
#112=CONICAL_SURFACE('',#1292,2.35,0.785398163397448);
#113=CIRCLE('',#1229,4.3);
#114=CIRCLE('',#1239,3.1);
#115=CIRCLE('',#1244,2.8);
#116=CIRCLE('',#1246,2.8);
#117=CIRCLE('',#1265,3.4);
#118=CIRCLE('',#1266,3.4);
#119=CIRCLE('',#1269,1.6);
#120=CIRCLE('',#1271,1.6);
#121=CIRCLE('',#1277,3.4);
#122=CIRCLE('',#1293,1.6);
#123=VERTEX_POINT('',#1539);
#124=VERTEX_POINT('',#1540);
#125=VERTEX_POINT('',#1542);
#126=VERTEX_POINT('',#1544);
#127=VERTEX_POINT('',#1546);
#128=VERTEX_POINT('',#1548);
#129=VERTEX_POINT('',#1552);
#130=VERTEX_POINT('',#1554);
#131=VERTEX_POINT('',#1558);
#132=VERTEX_POINT('',#1559);
#133=VERTEX_POINT('',#1561);
#134=VERTEX_POINT('',#1563);
#135=VERTEX_POINT('',#1567);
#136=VERTEX_POINT('',#1569);
#137=VERTEX_POINT('',#1573);
#138=VERTEX_POINT('',#1575);
#139=VERTEX_POINT('',#1577);
#140=VERTEX_POINT('',#1579);
#141=VERTEX_POINT('',#1582);
#142=VERTEX_POINT('',#1583);
#143=VERTEX_POINT('',#1586);
#144=VERTEX_POINT('',#1588);
#145=VERTEX_POINT('',#1590);
#146=VERTEX_POINT('',#1592);
#147=VERTEX_POINT('',#1594);
#148=VERTEX_POINT('',#1596);
#149=VERTEX_POINT('',#1600);
#150=VERTEX_POINT('',#1602);
#151=VERTEX_POINT('',#1608);
#152=VERTEX_POINT('',#1609);
#153=VERTEX_POINT('',#1611);
#154=VERTEX_POINT('',#1613);
#155=VERTEX_POINT('',#1617);
#156=VERTEX_POINT('',#1619);
#157=VERTEX_POINT('',#1621);
#158=VERTEX_POINT('',#1625);
#159=VERTEX_POINT('',#1627);
#160=VERTEX_POINT('',#1629);
#161=VERTEX_POINT('',#1631);
#162=VERTEX_POINT('',#1633);
#163=VERTEX_POINT('',#1635);
#164=VERTEX_POINT('',#1637);
#165=VERTEX_POINT('',#1639);
#166=VERTEX_POINT('',#1641);
#167=VERTEX_POINT('',#1643);
#168=VERTEX_POINT('',#1647);
#169=VERTEX_POINT('',#1648);
#170=VERTEX_POINT('',#1650);
#171=VERTEX_POINT('',#1652);
#172=VERTEX_POINT('',#1656);
#173=VERTEX_POINT('',#1658);
#174=VERTEX_POINT('',#1660);
#175=VERTEX_POINT('',#1664);
#176=VERTEX_POINT('',#1666);
#177=VERTEX_POINT('',#1669);
#178=VERTEX_POINT('',#1671);
#179=VERTEX_POINT('',#1674);
#180=VERTEX_POINT('',#1675);
#181=VERTEX_POINT('',#1678);
#182=VERTEX_POINT('',#1680);
#183=VERTEX_POINT('',#1682);
#184=VERTEX_POINT('',#1684);
#185=VERTEX_POINT('',#1686);
#186=VERTEX_POINT('',#1688);
#187=VERTEX_POINT('',#1690);
#188=VERTEX_POINT('',#1692);
#189=VERTEX_POINT('',#1694);
#190=VERTEX_POINT('',#1696);
#191=VERTEX_POINT('',#1698);
#192=VERTEX_POINT('',#1706);
#193=VERTEX_POINT('',#1708);
#194=VERTEX_POINT('',#1712);
#195=VERTEX_POINT('',#1714);
#196=VERTEX_POINT('',#1718);
#197=VERTEX_POINT('',#1720);
#198=VERTEX_POINT('',#1724);
#199=VERTEX_POINT('',#1728);
#200=VERTEX_POINT('',#1730);
#201=VERTEX_POINT('',#1732);
#202=VERTEX_POINT('',#1734);
#203=VERTEX_POINT('',#1736);
#204=VERTEX_POINT('',#1738);
#205=VERTEX_POINT('',#1740);
#206=VERTEX_POINT('',#1746);
#207=VERTEX_POINT('',#1748);
#208=VERTEX_POINT('',#1750);
#209=VERTEX_POINT('',#1752);
#210=VERTEX_POINT('',#1756);
#211=VERTEX_POINT('',#1766);
#212=VERTEX_POINT('',#1770);
#213=VERTEX_POINT('',#1772);
#214=VERTEX_POINT('',#1774);
#215=VERTEX_POINT('',#1776);
#216=VERTEX_POINT('',#1778);
#217=VERTEX_POINT('',#1780);
#218=VERTEX_POINT('',#1782);
#219=VERTEX_POINT('',#1786);
#220=VERTEX_POINT('',#1788);
#221=VERTEX_POINT('',#1790);
#222=VERTEX_POINT('',#1792);
#223=VERTEX_POINT('',#1794);
#224=VERTEX_POINT('',#1802);
#225=VERTEX_POINT('',#1806);
#226=VERTEX_POINT('',#1814);
#227=VERTEX_POINT('',#1815);
#228=VERTEX_POINT('',#1823);
#229=VERTEX_POINT('',#1825);
#230=VERTEX_POINT('',#1829);
#231=VERTEX_POINT('',#1831);
#232=VECTOR('',#1296,1.);
#233=VECTOR('',#1297,1.);
#234=VECTOR('',#1298,1.);
#235=VECTOR('',#1299,1.);
#236=VECTOR('',#1300,1.);
#237=VECTOR('',#1301,1.);
#238=VECTOR('',#1303,1.);
#239=VECTOR('',#1304,1.);
#240=VECTOR('',#1305,1.);
#241=VECTOR('',#1307,1.);
#242=VECTOR('',#1308,1.);
#243=VECTOR('',#1309,1.);
#244=VECTOR('',#1310,1.);
#245=VECTOR('',#1312,1.);
#246=VECTOR('',#1313,1.);
#247=VECTOR('',#1314,1.);
#248=VECTOR('',#1316,1.);
#249=VECTOR('',#1317,1.);
#250=VECTOR('',#1318,1.);
#251=VECTOR('',#1319,1.);
#252=VECTOR('',#1320,1.);
#253=VECTOR('',#1324,1.);
#254=VECTOR('',#1325,1.);
#255=VECTOR('',#1326,1.);
#256=VECTOR('',#1327,1.);
#257=VECTOR('',#1328,1.);
#258=VECTOR('',#1329,1.);
#259=VECTOR('',#1330,1.);
#260=VECTOR('',#1332,1.);
#261=VECTOR('',#1333,1.);
#262=VECTOR('',#1334,1.);
#263=VECTOR('',#1336,1.);
#264=VECTOR('',#1338,1.);
#265=VECTOR('',#1339,1.);
#266=VECTOR('',#1340,1.);
#267=VECTOR('',#1341,1.);
#268=VECTOR('',#1343,1.);
#269=VECTOR('',#1344,1.);
#270=VECTOR('',#1345,1.);
#271=VECTOR('',#1346,1.);
#272=VECTOR('',#1348,1.);
#273=VECTOR('',#1349,1.);
#274=VECTOR('',#1350,1.);
#275=VECTOR('',#1351,1.);
#276=VECTOR('',#1352,1.);
#277=VECTOR('',#1353,1.);
#278=VECTOR('',#1354,1.);
#279=VECTOR('',#1355,1.);
#280=VECTOR('',#1356,1.);
#281=VECTOR('',#1357,1.);
#282=VECTOR('',#1358,1.);
#283=VECTOR('',#1360,1.);
#284=VECTOR('',#1361,1.);
#285=VECTOR('',#1362,1.);
#286=VECTOR('',#1363,1.);
#287=VECTOR('',#1365,1.);
#288=VECTOR('',#1366,1.);
#289=VECTOR('',#1367,1.);
#290=VECTOR('',#1368,1.);
#291=VECTOR('',#1370,1.);
#292=VECTOR('',#1371,1.);
#293=VECTOR('',#1372,1.);
#294=VECTOR('',#1373,1.);
#295=VECTOR('',#1374,1.);
#296=VECTOR('',#1375,1.);
#297=VECTOR('',#1379,1.);
#298=VECTOR('',#1380,1.);
#299=VECTOR('',#1381,1.);
#300=VECTOR('',#1382,1.);
#301=VECTOR('',#1383,1.);
#302=VECTOR('',#1384,1.);
#303=VECTOR('',#1385,1.);
#304=VECTOR('',#1386,1.);
#305=VECTOR('',#1387,1.);
#306=VECTOR('',#1388,1.);
#307=VECTOR('',#1389,1.);
#308=VECTOR('',#1390,1.);
#309=VECTOR('',#1392,1.);
#310=VECTOR('',#1393,1.);
#311=VECTOR('',#1394,1.);
#312=VECTOR('',#1396,1.);
#313=VECTOR('',#1397,1.);
#314=VECTOR('',#1398,1.);
#315=VECTOR('',#1401,1.);
#316=VECTOR('',#1404,1.);
#317=VECTOR('',#1407,1.);
#318=VECTOR('',#1408,1.);
#319=VECTOR('',#1412,1.);
#320=VECTOR('',#1413,1.);
#321=VECTOR('',#1415,1.);
#322=VECTOR('',#1416,1.);
#323=VECTOR('',#1417,1.);
#324=VECTOR('',#1418,1.);
#325=VECTOR('',#1419,1.);
#326=VECTOR('',#1420,1.);
#327=VECTOR('',#1421,1.);
#328=VECTOR('',#1422,1.);
#329=VECTOR('',#1424,1.);
#330=VECTOR('',#1426,1.);
#331=VECTOR('',#1427,1.);
#332=VECTOR('',#1428,1.);
#333=VECTOR('',#1429,1.);
#334=VECTOR('',#1430,1.);
#335=VECTOR('',#1432,1.);
#336=VECTOR('',#1433,1.);
#337=VECTOR('',#1435,1.);
#338=VECTOR('',#1436,1.);
#339=VECTOR('',#1438,1.);
#340=VECTOR('',#1441,1.);
#341=VECTOR('',#1442,1.);
#342=VECTOR('',#1444,1.);
#343=VECTOR('',#1445,1.);
#344=VECTOR('',#1446,1.);
#345=VECTOR('',#1447,1.);
#346=VECTOR('',#1448,1.);
#347=VECTOR('',#1449,1.);
#348=VECTOR('',#1450,1.);
#349=VECTOR('',#1451,1.);
#350=VECTOR('',#1453,1.);
#351=VECTOR('',#1454,1.);
#352=VECTOR('',#1455,1.);
#353=VECTOR('',#1456,1.);
#354=VECTOR('',#1457,1.);
#355=VECTOR('',#1458,1.);
#356=VECTOR('',#1460,1.);
#357=VECTOR('',#1461,1.);
#358=VECTOR('',#1464,1.);
#359=VECTOR('',#1465,1.);
#360=VECTOR('',#1467,1.);
#361=VECTOR('',#1468,1.);
#362=VECTOR('',#1470,1.);
#363=VECTOR('',#1472,1.);
#364=VECTOR('',#1475,1.);
#365=VECTOR('',#1481,1.);
#366=VECTOR('',#1482,1.);
#367=VECTOR('',#1485,1.);
#368=VECTOR('',#1486,1.);
#369=VECTOR('',#1491,1.);
#370=VECTOR('',#1494,1.);
#371=VECTOR('',#1497,1.);
#372=VECTOR('',#1499,1.);
#373=VECTOR('',#1501,1.);
#374=VECTOR('',#1506,1.);
#375=VECTOR('',#1508,1.);
#376=VECTOR('',#1510,1.);
#377=VECTOR('',#1512,1.);
#378=VECTOR('',#1515,1.);
#379=VECTOR('',#1517,1.);
#380=VECTOR('',#1519,1.);
#381=VECTOR('',#1521,1.);
#382=VECTOR('',#1523,1.);
#383=LINE('',#1538,#232);
#384=LINE('',#1541,#233);
#385=LINE('',#1543,#234);
#386=LINE('',#1545,#235);
#387=LINE('',#1547,#236);
#388=LINE('',#1549,#237);
#389=LINE('',#1551,#238);
#390=LINE('',#1553,#239);
#391=LINE('',#1555,#240);
#392=LINE('',#1557,#241);
#393=LINE('',#1560,#242);
#394=LINE('',#1562,#243);
#395=LINE('',#1564,#244);
#396=LINE('',#1566,#245);
#397=LINE('',#1568,#246);
#398=LINE('',#1570,#247);
#399=LINE('',#1572,#248);
#400=LINE('',#1574,#249);
#401=LINE('',#1576,#250);
#402=LINE('',#1578,#251);
#403=LINE('',#1580,#252);
#404=LINE('',#1585,#253);
#405=LINE('',#1587,#254);
#406=LINE('',#1589,#255);
#407=LINE('',#1591,#256);
#408=LINE('',#1593,#257);
#409=LINE('',#1595,#258);
#410=LINE('',#1597,#259);
#411=LINE('',#1599,#260);
#412=LINE('',#1601,#261);
#413=LINE('',#1603,#262);
#414=LINE('',#1605,#263);
#415=LINE('',#1607,#264);
#416=LINE('',#1610,#265);
#417=LINE('',#1612,#266);
#418=LINE('',#1614,#267);
#419=LINE('',#1616,#268);
#420=LINE('',#1618,#269);
#421=LINE('',#1620,#270);
#422=LINE('',#1622,#271);
#423=LINE('',#1624,#272);
#424=LINE('',#1626,#273);
#425=LINE('',#1628,#274);
#426=LINE('',#1630,#275);
#427=LINE('',#1632,#276);
#428=LINE('',#1634,#277);
#429=LINE('',#1636,#278);
#430=LINE('',#1638,#279);
#431=LINE('',#1640,#280);
#432=LINE('',#1642,#281);
#433=LINE('',#1644,#282);
#434=LINE('',#1646,#283);
#435=LINE('',#1649,#284);
#436=LINE('',#1651,#285);
#437=LINE('',#1653,#286);
#438=LINE('',#1655,#287);
#439=LINE('',#1657,#288);
#440=LINE('',#1659,#289);
#441=LINE('',#1661,#290);
#442=LINE('',#1663,#291);
#443=LINE('',#1665,#292);
#444=LINE('',#1667,#293);
#445=LINE('',#1668,#294);
#446=LINE('',#1670,#295);
#447=LINE('',#1672,#296);
#448=LINE('',#1677,#297);
#449=LINE('',#1679,#298);
#450=LINE('',#1681,#299);
#451=LINE('',#1683,#300);
#452=LINE('',#1685,#301);
#453=LINE('',#1687,#302);
#454=LINE('',#1689,#303);
#455=LINE('',#1691,#304);
#456=LINE('',#1693,#305);
#457=LINE('',#1695,#306);
#458=LINE('',#1697,#307);
#459=LINE('',#1699,#308);
#460=LINE('',#1701,#309);
#461=LINE('',#1702,#310);
#462=LINE('',#1703,#311);
#463=LINE('',#1705,#312);
#464=LINE('',#1707,#313);
#465=LINE('',#1709,#314);
#466=LINE('',#1711,#315);
#467=LINE('',#1715,#316);
#468=LINE('',#1717,#317);
#469=LINE('',#1719,#318);
#470=LINE('',#1723,#319);
#471=LINE('',#1725,#320);
#472=LINE('',#1727,#321);
#473=LINE('',#1729,#322);
#474=LINE('',#1731,#323);
#475=LINE('',#1733,#324);
#476=LINE('',#1735,#325);
#477=LINE('',#1737,#326);
#478=LINE('',#1739,#327);
#479=LINE('',#1741,#328);
#480=LINE('',#1743,#329);
#481=LINE('',#1745,#330);
#482=LINE('',#1747,#331);
#483=LINE('',#1749,#332);
#484=LINE('',#1751,#333);
#485=LINE('',#1753,#334);
#486=LINE('',#1755,#335);
#487=LINE('',#1757,#336);
#488=LINE('',#1759,#337);
#489=LINE('',#1760,#338);
#490=LINE('',#1762,#339);
#491=LINE('',#1765,#340);
#492=LINE('',#1767,#341);
#493=LINE('',#1769,#342);
#494=LINE('',#1771,#343);
#495=LINE('',#1773,#344);
#496=LINE('',#1775,#345);
#497=LINE('',#1777,#346);
#498=LINE('',#1779,#347);
#499=LINE('',#1781,#348);
#500=LINE('',#1783,#349);
#501=LINE('',#1785,#350);
#502=LINE('',#1787,#351);
#503=LINE('',#1789,#352);
#504=LINE('',#1791,#353);
#505=LINE('',#1793,#354);
#506=LINE('',#1795,#355);
#507=LINE('',#1797,#356);
#508=LINE('',#1798,#357);
#509=LINE('',#1801,#358);
#510=LINE('',#1803,#359);
#511=LINE('',#1805,#360);
#512=LINE('',#1807,#361);
#513=LINE('',#1809,#362);
#514=LINE('',#1811,#363);
#515=LINE('',#1813,#364);
#516=LINE('',#1819,#365);
#517=LINE('',#1820,#366);
#518=LINE('',#1822,#367);
#519=LINE('',#1824,#368);
#520=LINE('',#1828,#369);
#521=LINE('',#1832,#370);
#522=LINE('',#1835,#371);
#523=LINE('',#1837,#372);
#524=LINE('',#1839,#373);
#525=LINE('',#1843,#374);
#526=LINE('',#1845,#375);
#527=LINE('',#1847,#376);
#528=LINE('',#1849,#377);
#529=LINE('',#1852,#378);
#530=LINE('',#1854,#379);
#531=LINE('',#1856,#380);
#532=LINE('',#1858,#381);
#533=LINE('',#1860,#382);
#534=EDGE_CURVE('',#123,#124,#383,.T.);
#535=EDGE_CURVE('',#125,#123,#384,.T.);
#536=EDGE_CURVE('',#126,#125,#385,.T.);
#537=EDGE_CURVE('',#127,#126,#386,.T.);
#538=EDGE_CURVE('',#128,#127,#387,.T.);
#539=EDGE_CURVE('',#124,#128,#388,.T.);
#540=EDGE_CURVE('',#126,#129,#389,.T.);
#541=EDGE_CURVE('',#130,#125,#390,.T.);
#542=EDGE_CURVE('',#130,#129,#391,.T.);
#543=EDGE_CURVE('',#131,#132,#392,.T.);
#544=EDGE_CURVE('',#132,#133,#393,.T.);
#545=EDGE_CURVE('',#134,#133,#394,.T.);
#546=EDGE_CURVE('',#134,#131,#395,.T.);
#547=EDGE_CURVE('',#124,#135,#396,.T.);
#548=EDGE_CURVE('',#136,#135,#397,.T.);
#549=EDGE_CURVE('',#136,#123,#398,.T.);
#550=EDGE_CURVE('',#137,#128,#399,.T.);
#551=EDGE_CURVE('',#138,#137,#400,.T.);
#552=EDGE_CURVE('',#139,#138,#401,.T.);
#553=EDGE_CURVE('',#140,#139,#402,.T.);
#554=EDGE_CURVE('',#135,#140,#403,.T.);
#555=EDGE_CURVE('',#141,#142,#113,.T.);
#556=EDGE_CURVE('',#142,#141,#113,.T.);
#557=EDGE_CURVE('',#129,#143,#404,.T.);
#558=EDGE_CURVE('',#144,#143,#405,.T.);
#559=EDGE_CURVE('',#145,#144,#406,.T.);
#560=EDGE_CURVE('',#145,#146,#407,.T.);
#561=EDGE_CURVE('',#146,#147,#408,.T.);
#562=EDGE_CURVE('',#147,#148,#409,.T.);
#563=EDGE_CURVE('',#127,#148,#410,.T.);
#564=EDGE_CURVE('',#143,#149,#411,.T.);
#565=EDGE_CURVE('',#149,#150,#412,.T.);
#566=EDGE_CURVE('',#144,#150,#413,.T.);
#567=EDGE_CURVE('',#137,#148,#414,.T.);
#568=EDGE_CURVE('',#151,#152,#415,.T.);
#569=EDGE_CURVE('',#152,#153,#416,.T.);
#570=EDGE_CURVE('',#153,#154,#417,.T.);
#571=EDGE_CURVE('',#154,#151,#418,.T.);
#572=EDGE_CURVE('',#154,#155,#419,.T.);
#573=EDGE_CURVE('',#155,#156,#420,.T.);
#574=EDGE_CURVE('',#157,#156,#421,.T.);
#575=EDGE_CURVE('',#151,#157,#422,.T.);
#576=EDGE_CURVE('',#153,#158,#423,.T.);
#577=EDGE_CURVE('',#159,#158,#424,.T.);
#578=EDGE_CURVE('',#160,#159,#425,.T.);
#579=EDGE_CURVE('',#161,#160,#426,.T.);
#580=EDGE_CURVE('',#162,#161,#427,.T.);
#581=EDGE_CURVE('',#163,#162,#428,.T.);
#582=EDGE_CURVE('',#163,#164,#429,.T.);
#583=EDGE_CURVE('',#165,#164,#430,.T.);
#584=EDGE_CURVE('',#166,#165,#431,.T.);
#585=EDGE_CURVE('',#167,#166,#432,.T.);
#586=EDGE_CURVE('',#155,#167,#433,.T.);
#587=EDGE_CURVE('',#168,#169,#434,.T.);
#588=EDGE_CURVE('',#169,#170,#435,.T.);
#589=EDGE_CURVE('',#170,#171,#436,.T.);
#590=EDGE_CURVE('',#171,#168,#437,.T.);
#591=EDGE_CURVE('',#172,#169,#438,.T.);
#592=EDGE_CURVE('',#173,#172,#439,.T.);
#593=EDGE_CURVE('',#174,#173,#440,.T.);
#594=EDGE_CURVE('',#174,#170,#441,.T.);
#595=EDGE_CURVE('',#175,#157,#442,.T.);
#596=EDGE_CURVE('',#176,#175,#443,.T.);
#597=EDGE_CURVE('',#172,#176,#444,.T.);
#598=EDGE_CURVE('',#168,#177,#445,.T.);
#599=EDGE_CURVE('',#177,#178,#446,.T.);
#600=EDGE_CURVE('',#178,#152,#447,.T.);
#601=EDGE_CURVE('',#179,#180,#114,.T.);
#602=EDGE_CURVE('',#180,#179,#114,.T.);
#603=EDGE_CURVE('',#181,#174,#448,.T.);
#604=EDGE_CURVE('',#182,#181,#449,.T.);
#605=EDGE_CURVE('',#183,#182,#450,.T.);
#606=EDGE_CURVE('',#184,#183,#451,.T.);
#607=EDGE_CURVE('',#184,#185,#452,.T.);
#608=EDGE_CURVE('',#186,#185,#453,.T.);
#609=EDGE_CURVE('',#187,#186,#454,.T.);
#610=EDGE_CURVE('',#188,#187,#455,.T.);
#611=EDGE_CURVE('',#189,#188,#456,.T.);
#612=EDGE_CURVE('',#190,#189,#457,.T.);
#613=EDGE_CURVE('',#191,#190,#458,.T.);
#614=EDGE_CURVE('',#191,#171,#459,.T.);
#615=EDGE_CURVE('',#178,#131,#460,.T.);
#616=EDGE_CURVE('',#149,#177,#461,.T.);
#617=EDGE_CURVE('',#132,#130,#462,.T.);
#618=EDGE_CURVE('',#192,#134,#463,.T.);
#619=EDGE_CURVE('',#193,#133,#464,.T.);
#620=EDGE_CURVE('',#193,#192,#465,.T.);
#621=EDGE_CURVE('',#141,#194,#466,.T.);
#622=EDGE_CURVE('',#194,#195,#115,.T.);
#623=EDGE_CURVE('',#142,#195,#467,.T.);
#624=EDGE_CURVE('',#196,#194,#468,.T.);
#625=EDGE_CURVE('',#195,#194,#115,.T.);
#626=EDGE_CURVE('',#197,#195,#469,.T.);
#627=EDGE_CURVE('',#196,#197,#116,.T.);
#628=EDGE_CURVE('',#176,#198,#470,.T.);
#629=EDGE_CURVE('',#198,#173,#471,.T.);
#630=EDGE_CURVE('',#199,#175,#472,.T.);
#631=EDGE_CURVE('',#199,#200,#473,.T.);
#632=EDGE_CURVE('',#200,#201,#474,.T.);
#633=EDGE_CURVE('',#201,#202,#475,.T.);
#634=EDGE_CURVE('',#202,#203,#476,.T.);
#635=EDGE_CURVE('',#203,#204,#477,.T.);
#636=EDGE_CURVE('',#204,#205,#478,.T.);
#637=EDGE_CURVE('',#205,#198,#479,.T.);
#638=EDGE_CURVE('',#156,#199,#480,.T.);
#639=EDGE_CURVE('',#140,#206,#481,.T.);
#640=EDGE_CURVE('',#206,#207,#482,.T.);
#641=EDGE_CURVE('',#208,#207,#483,.T.);
#642=EDGE_CURVE('',#209,#208,#484,.T.);
#643=EDGE_CURVE('',#136,#209,#485,.T.);
#644=EDGE_CURVE('',#150,#210,#486,.T.);
#645=EDGE_CURVE('',#210,#145,#487,.T.);
#646=EDGE_CURVE('',#166,#201,#488,.T.);
#647=EDGE_CURVE('',#165,#202,#489,.T.);
#648=EDGE_CURVE('',#167,#200,#490,.T.);
#649=EDGE_CURVE('',#211,#192,#491,.T.);
#650=EDGE_CURVE('',#158,#211,#492,.T.);
#651=EDGE_CURVE('',#210,#212,#493,.T.);
#652=EDGE_CURVE('',#213,#212,#494,.T.);
#653=EDGE_CURVE('',#214,#213,#495,.T.);
#654=EDGE_CURVE('',#215,#214,#496,.T.);
#655=EDGE_CURVE('',#215,#216,#497,.T.);
#656=EDGE_CURVE('',#217,#216,#498,.T.);
#657=EDGE_CURVE('',#218,#217,#499,.T.);
#658=EDGE_CURVE('',#146,#218,#500,.T.);
#659=EDGE_CURVE('',#219,#193,#501,.T.);
#660=EDGE_CURVE('',#220,#219,#502,.T.);
#661=EDGE_CURVE('',#221,#220,#503,.T.);
#662=EDGE_CURVE('',#222,#221,#504,.T.);
#663=EDGE_CURVE('',#223,#222,#505,.T.);
#664=EDGE_CURVE('',#211,#223,#506,.T.);
#665=EDGE_CURVE('',#212,#191,#507,.T.);
#666=EDGE_CURVE('',#213,#190,#508,.T.);
#667=EDGE_CURVE('',#147,#224,#509,.T.);
#668=EDGE_CURVE('',#224,#138,#510,.T.);
#669=EDGE_CURVE('',#225,#206,#511,.T.);
#670=EDGE_CURVE('',#139,#225,#512,.T.);
#671=EDGE_CURVE('',#224,#225,#513,.T.);
#672=EDGE_CURVE('',#219,#209,#514,.T.);
#673=EDGE_CURVE('',#226,#227,#515,.T.);
#674=EDGE_CURVE('',#185,#226,#117,.T.);
#675=EDGE_CURVE('',#227,#184,#118,.T.);
#676=EDGE_CURVE('',#186,#206,#516,.T.);
#677=EDGE_CURVE('',#226,#163,#117,.T.);
#678=EDGE_CURVE('',#162,#207,#517,.T.);
#679=EDGE_CURVE('',#179,#228,#518,.T.);
#680=EDGE_CURVE('',#180,#229,#519,.T.);
#681=EDGE_CURVE('',#229,#228,#119,.T.);
#682=EDGE_CURVE('',#230,#229,#520,.T.);
#683=EDGE_CURVE('',#231,#230,#120,.T.);
#684=EDGE_CURVE('',#231,#228,#521,.T.);
#685=EDGE_CURVE('',#197,#196,#116,.T.);
#686=EDGE_CURVE('',#230,#231,#120,.T.);
#687=EDGE_CURVE('',#181,#205,#522,.T.);
#688=EDGE_CURVE('',#182,#204,#523,.T.);
#689=EDGE_CURVE('',#183,#203,#524,.T.);
#690=EDGE_CURVE('',#164,#227,#121,.T.);
#691=EDGE_CURVE('',#220,#208,#525,.T.);
#692=EDGE_CURVE('',#221,#161,#526,.T.);
#693=EDGE_CURVE('',#222,#160,#527,.T.);
#694=EDGE_CURVE('',#223,#159,#528,.T.);
#695=EDGE_CURVE('',#214,#189,#529,.T.);
#696=EDGE_CURVE('',#215,#188,#530,.T.);
#697=EDGE_CURVE('',#216,#187,#531,.T.);
#698=EDGE_CURVE('',#217,#225,#532,.T.);
#699=EDGE_CURVE('',#218,#224,#533,.T.);
#700=EDGE_CURVE('',#228,#229,#122,.T.);
#701=ORIENTED_EDGE('',*,*,#534,.F.);
#702=ORIENTED_EDGE('',*,*,#535,.F.);
#703=ORIENTED_EDGE('',*,*,#536,.F.);
#704=ORIENTED_EDGE('',*,*,#537,.F.);
#705=ORIENTED_EDGE('',*,*,#538,.F.);
#706=ORIENTED_EDGE('',*,*,#539,.F.);
#707=ORIENTED_EDGE('',*,*,#540,.F.);
#708=ORIENTED_EDGE('',*,*,#536,.T.);
#709=ORIENTED_EDGE('',*,*,#541,.F.);
#710=ORIENTED_EDGE('',*,*,#542,.T.);
#711=ORIENTED_EDGE('',*,*,#543,.T.);
#712=ORIENTED_EDGE('',*,*,#544,.T.);
#713=ORIENTED_EDGE('',*,*,#545,.F.);
#714=ORIENTED_EDGE('',*,*,#546,.T.);
#715=ORIENTED_EDGE('',*,*,#534,.T.);
#716=ORIENTED_EDGE('',*,*,#547,.T.);
#717=ORIENTED_EDGE('',*,*,#548,.F.);
#718=ORIENTED_EDGE('',*,*,#549,.T.);
#719=ORIENTED_EDGE('',*,*,#539,.T.);
#720=ORIENTED_EDGE('',*,*,#550,.F.);
#721=ORIENTED_EDGE('',*,*,#551,.F.);
#722=ORIENTED_EDGE('',*,*,#552,.F.);
#723=ORIENTED_EDGE('',*,*,#553,.F.);
#724=ORIENTED_EDGE('',*,*,#554,.F.);
#725=ORIENTED_EDGE('',*,*,#547,.F.);
#726=ORIENTED_EDGE('',*,*,#555,.F.);
#727=ORIENTED_EDGE('',*,*,#556,.F.);
#728=ORIENTED_EDGE('',*,*,#537,.T.);
#729=ORIENTED_EDGE('',*,*,#540,.T.);
#730=ORIENTED_EDGE('',*,*,#557,.T.);
#731=ORIENTED_EDGE('',*,*,#558,.F.);
#732=ORIENTED_EDGE('',*,*,#559,.F.);
#733=ORIENTED_EDGE('',*,*,#560,.T.);
#734=ORIENTED_EDGE('',*,*,#561,.T.);
#735=ORIENTED_EDGE('',*,*,#562,.T.);
#736=ORIENTED_EDGE('',*,*,#563,.F.);
#737=ORIENTED_EDGE('',*,*,#564,.T.);
#738=ORIENTED_EDGE('',*,*,#565,.T.);
#739=ORIENTED_EDGE('',*,*,#566,.F.);
#740=ORIENTED_EDGE('',*,*,#558,.T.);
#741=ORIENTED_EDGE('',*,*,#538,.T.);
#742=ORIENTED_EDGE('',*,*,#563,.T.);
#743=ORIENTED_EDGE('',*,*,#567,.F.);
#744=ORIENTED_EDGE('',*,*,#550,.T.);
#745=ORIENTED_EDGE('',*,*,#568,.T.);
#746=ORIENTED_EDGE('',*,*,#569,.T.);
#747=ORIENTED_EDGE('',*,*,#570,.T.);
#748=ORIENTED_EDGE('',*,*,#571,.T.);
#749=ORIENTED_EDGE('',*,*,#571,.F.);
#750=ORIENTED_EDGE('',*,*,#572,.T.);
#751=ORIENTED_EDGE('',*,*,#573,.T.);
#752=ORIENTED_EDGE('',*,*,#574,.F.);
#753=ORIENTED_EDGE('',*,*,#575,.F.);
#754=ORIENTED_EDGE('',*,*,#570,.F.);
#755=ORIENTED_EDGE('',*,*,#576,.T.);
#756=ORIENTED_EDGE('',*,*,#577,.F.);
#757=ORIENTED_EDGE('',*,*,#578,.F.);
#758=ORIENTED_EDGE('',*,*,#579,.F.);
#759=ORIENTED_EDGE('',*,*,#580,.F.);
#760=ORIENTED_EDGE('',*,*,#581,.F.);
#761=ORIENTED_EDGE('',*,*,#582,.T.);
#762=ORIENTED_EDGE('',*,*,#583,.F.);
#763=ORIENTED_EDGE('',*,*,#584,.F.);
#764=ORIENTED_EDGE('',*,*,#585,.F.);
#765=ORIENTED_EDGE('',*,*,#586,.F.);
#766=ORIENTED_EDGE('',*,*,#572,.F.);
#767=ORIENTED_EDGE('',*,*,#587,.T.);
#768=ORIENTED_EDGE('',*,*,#588,.T.);
#769=ORIENTED_EDGE('',*,*,#589,.T.);
#770=ORIENTED_EDGE('',*,*,#590,.T.);
#771=ORIENTED_EDGE('',*,*,#588,.F.);
#772=ORIENTED_EDGE('',*,*,#591,.F.);
#773=ORIENTED_EDGE('',*,*,#592,.F.);
#774=ORIENTED_EDGE('',*,*,#593,.F.);
#775=ORIENTED_EDGE('',*,*,#594,.T.);
#776=ORIENTED_EDGE('',*,*,#568,.F.);
#777=ORIENTED_EDGE('',*,*,#575,.T.);
#778=ORIENTED_EDGE('',*,*,#595,.F.);
#779=ORIENTED_EDGE('',*,*,#596,.F.);
#780=ORIENTED_EDGE('',*,*,#597,.F.);
#781=ORIENTED_EDGE('',*,*,#591,.T.);
#782=ORIENTED_EDGE('',*,*,#587,.F.);
#783=ORIENTED_EDGE('',*,*,#598,.T.);
#784=ORIENTED_EDGE('',*,*,#599,.T.);
#785=ORIENTED_EDGE('',*,*,#600,.T.);
#786=ORIENTED_EDGE('',*,*,#601,.F.);
#787=ORIENTED_EDGE('',*,*,#602,.F.);
#788=ORIENTED_EDGE('',*,*,#589,.F.);
#789=ORIENTED_EDGE('',*,*,#594,.F.);
#790=ORIENTED_EDGE('',*,*,#603,.F.);
#791=ORIENTED_EDGE('',*,*,#604,.F.);
#792=ORIENTED_EDGE('',*,*,#605,.F.);
#793=ORIENTED_EDGE('',*,*,#606,.F.);
#794=ORIENTED_EDGE('',*,*,#607,.T.);
#795=ORIENTED_EDGE('',*,*,#608,.F.);
#796=ORIENTED_EDGE('',*,*,#609,.F.);
#797=ORIENTED_EDGE('',*,*,#610,.F.);
#798=ORIENTED_EDGE('',*,*,#611,.F.);
#799=ORIENTED_EDGE('',*,*,#612,.F.);
#800=ORIENTED_EDGE('',*,*,#613,.F.);
#801=ORIENTED_EDGE('',*,*,#614,.T.);
#802=ORIENTED_EDGE('',*,*,#615,.F.);
#803=ORIENTED_EDGE('',*,*,#599,.F.);
#804=ORIENTED_EDGE('',*,*,#616,.F.);
#805=ORIENTED_EDGE('',*,*,#564,.F.);
#806=ORIENTED_EDGE('',*,*,#557,.F.);
#807=ORIENTED_EDGE('',*,*,#542,.F.);
#808=ORIENTED_EDGE('',*,*,#617,.F.);
#809=ORIENTED_EDGE('',*,*,#543,.F.);
#810=ORIENTED_EDGE('',*,*,#618,.T.);
#811=ORIENTED_EDGE('',*,*,#545,.T.);
#812=ORIENTED_EDGE('',*,*,#619,.F.);
#813=ORIENTED_EDGE('',*,*,#620,.T.);
#814=ORIENTED_EDGE('',*,*,#621,.T.);
#815=ORIENTED_EDGE('',*,*,#622,.T.);
#816=ORIENTED_EDGE('',*,*,#623,.F.);
#817=ORIENTED_EDGE('',*,*,#556,.T.);
#818=ORIENTED_EDGE('',*,*,#624,.T.);
#819=ORIENTED_EDGE('',*,*,#625,.F.);
#820=ORIENTED_EDGE('',*,*,#626,.F.);
#821=ORIENTED_EDGE('',*,*,#627,.F.);
#822=ORIENTED_EDGE('',*,*,#592,.T.);
#823=ORIENTED_EDGE('',*,*,#597,.T.);
#824=ORIENTED_EDGE('',*,*,#628,.T.);
#825=ORIENTED_EDGE('',*,*,#629,.T.);
#826=ORIENTED_EDGE('',*,*,#628,.F.);
#827=ORIENTED_EDGE('',*,*,#596,.T.);
#828=ORIENTED_EDGE('',*,*,#630,.F.);
#829=ORIENTED_EDGE('',*,*,#631,.T.);
#830=ORIENTED_EDGE('',*,*,#632,.T.);
#831=ORIENTED_EDGE('',*,*,#633,.T.);
#832=ORIENTED_EDGE('',*,*,#634,.T.);
#833=ORIENTED_EDGE('',*,*,#635,.T.);
#834=ORIENTED_EDGE('',*,*,#636,.T.);
#835=ORIENTED_EDGE('',*,*,#637,.T.);
#836=ORIENTED_EDGE('',*,*,#630,.T.);
#837=ORIENTED_EDGE('',*,*,#595,.T.);
#838=ORIENTED_EDGE('',*,*,#574,.T.);
#839=ORIENTED_EDGE('',*,*,#638,.T.);
#840=ORIENTED_EDGE('',*,*,#548,.T.);
#841=ORIENTED_EDGE('',*,*,#554,.T.);
#842=ORIENTED_EDGE('',*,*,#639,.T.);
#843=ORIENTED_EDGE('',*,*,#640,.T.);
#844=ORIENTED_EDGE('',*,*,#641,.F.);
#845=ORIENTED_EDGE('',*,*,#642,.F.);
#846=ORIENTED_EDGE('',*,*,#643,.F.);
#847=ORIENTED_EDGE('',*,*,#644,.T.);
#848=ORIENTED_EDGE('',*,*,#645,.T.);
#849=ORIENTED_EDGE('',*,*,#559,.T.);
#850=ORIENTED_EDGE('',*,*,#566,.T.);
#851=ORIENTED_EDGE('',*,*,#633,.F.);
#852=ORIENTED_EDGE('',*,*,#646,.F.);
#853=ORIENTED_EDGE('',*,*,#584,.T.);
#854=ORIENTED_EDGE('',*,*,#647,.T.);
#855=ORIENTED_EDGE('',*,*,#632,.F.);
#856=ORIENTED_EDGE('',*,*,#648,.F.);
#857=ORIENTED_EDGE('',*,*,#585,.T.);
#858=ORIENTED_EDGE('',*,*,#646,.T.);
#859=ORIENTED_EDGE('',*,*,#638,.F.);
#860=ORIENTED_EDGE('',*,*,#573,.F.);
#861=ORIENTED_EDGE('',*,*,#586,.T.);
#862=ORIENTED_EDGE('',*,*,#648,.T.);
#863=ORIENTED_EDGE('',*,*,#631,.F.);
#864=ORIENTED_EDGE('',*,*,#569,.F.);
#865=ORIENTED_EDGE('',*,*,#600,.F.);
#866=ORIENTED_EDGE('',*,*,#615,.T.);
#867=ORIENTED_EDGE('',*,*,#546,.F.);
#868=ORIENTED_EDGE('',*,*,#618,.F.);
#869=ORIENTED_EDGE('',*,*,#649,.F.);
#870=ORIENTED_EDGE('',*,*,#650,.F.);
#871=ORIENTED_EDGE('',*,*,#576,.F.);
#872=ORIENTED_EDGE('',*,*,#651,.T.);
#873=ORIENTED_EDGE('',*,*,#652,.F.);
#874=ORIENTED_EDGE('',*,*,#653,.F.);
#875=ORIENTED_EDGE('',*,*,#654,.F.);
#876=ORIENTED_EDGE('',*,*,#655,.T.);
#877=ORIENTED_EDGE('',*,*,#656,.F.);
#878=ORIENTED_EDGE('',*,*,#657,.F.);
#879=ORIENTED_EDGE('',*,*,#658,.F.);
#880=ORIENTED_EDGE('',*,*,#560,.F.);
#881=ORIENTED_EDGE('',*,*,#645,.F.);
#882=ORIENTED_EDGE('',*,*,#649,.T.);
#883=ORIENTED_EDGE('',*,*,#620,.F.);
#884=ORIENTED_EDGE('',*,*,#659,.F.);
#885=ORIENTED_EDGE('',*,*,#660,.F.);
#886=ORIENTED_EDGE('',*,*,#661,.F.);
#887=ORIENTED_EDGE('',*,*,#662,.F.);
#888=ORIENTED_EDGE('',*,*,#663,.F.);
#889=ORIENTED_EDGE('',*,*,#664,.F.);
#890=ORIENTED_EDGE('',*,*,#665,.T.);
#891=ORIENTED_EDGE('',*,*,#613,.T.);
#892=ORIENTED_EDGE('',*,*,#666,.F.);
#893=ORIENTED_EDGE('',*,*,#652,.T.);
#894=ORIENTED_EDGE('',*,*,#590,.F.);
#895=ORIENTED_EDGE('',*,*,#614,.F.);
#896=ORIENTED_EDGE('',*,*,#665,.F.);
#897=ORIENTED_EDGE('',*,*,#651,.F.);
#898=ORIENTED_EDGE('',*,*,#644,.F.);
#899=ORIENTED_EDGE('',*,*,#565,.F.);
#900=ORIENTED_EDGE('',*,*,#616,.T.);
#901=ORIENTED_EDGE('',*,*,#598,.F.);
#902=ORIENTED_EDGE('',*,*,#567,.T.);
#903=ORIENTED_EDGE('',*,*,#562,.F.);
#904=ORIENTED_EDGE('',*,*,#667,.T.);
#905=ORIENTED_EDGE('',*,*,#668,.T.);
#906=ORIENTED_EDGE('',*,*,#551,.T.);
#907=ORIENTED_EDGE('',*,*,#669,.T.);
#908=ORIENTED_EDGE('',*,*,#639,.F.);
#909=ORIENTED_EDGE('',*,*,#553,.T.);
#910=ORIENTED_EDGE('',*,*,#670,.T.);
#911=ORIENTED_EDGE('',*,*,#668,.F.);
#912=ORIENTED_EDGE('',*,*,#671,.T.);
#913=ORIENTED_EDGE('',*,*,#670,.F.);
#914=ORIENTED_EDGE('',*,*,#552,.T.);
#915=ORIENTED_EDGE('',*,*,#535,.T.);
#916=ORIENTED_EDGE('',*,*,#549,.F.);
#917=ORIENTED_EDGE('',*,*,#643,.T.);
#918=ORIENTED_EDGE('',*,*,#672,.F.);
#919=ORIENTED_EDGE('',*,*,#659,.T.);
#920=ORIENTED_EDGE('',*,*,#619,.T.);
#921=ORIENTED_EDGE('',*,*,#544,.F.);
#922=ORIENTED_EDGE('',*,*,#617,.T.);
#923=ORIENTED_EDGE('',*,*,#541,.T.);
#924=ORIENTED_EDGE('',*,*,#673,.F.);
#925=ORIENTED_EDGE('',*,*,#674,.F.);
#926=ORIENTED_EDGE('',*,*,#607,.F.);
#927=ORIENTED_EDGE('',*,*,#675,.F.);
#928=ORIENTED_EDGE('',*,*,#640,.F.);
#929=ORIENTED_EDGE('',*,*,#676,.F.);
#930=ORIENTED_EDGE('',*,*,#608,.T.);
#931=ORIENTED_EDGE('',*,*,#674,.T.);
#932=ORIENTED_EDGE('',*,*,#677,.T.);
#933=ORIENTED_EDGE('',*,*,#581,.T.);
#934=ORIENTED_EDGE('',*,*,#678,.T.);
#935=ORIENTED_EDGE('',*,*,#679,.F.);
#936=ORIENTED_EDGE('',*,*,#601,.T.);
#937=ORIENTED_EDGE('',*,*,#680,.T.);
#938=ORIENTED_EDGE('',*,*,#681,.T.);
#939=ORIENTED_EDGE('',*,*,#682,.F.);
#940=ORIENTED_EDGE('',*,*,#683,.F.);
#941=ORIENTED_EDGE('',*,*,#684,.T.);
#942=ORIENTED_EDGE('',*,*,#681,.F.);
#943=ORIENTED_EDGE('',*,*,#685,.T.);
#944=ORIENTED_EDGE('',*,*,#627,.T.);
#945=ORIENTED_EDGE('',*,*,#683,.T.);
#946=ORIENTED_EDGE('',*,*,#686,.T.);
#947=ORIENTED_EDGE('',*,*,#629,.F.);
#948=ORIENTED_EDGE('',*,*,#637,.F.);
#949=ORIENTED_EDGE('',*,*,#687,.F.);
#950=ORIENTED_EDGE('',*,*,#603,.T.);
#951=ORIENTED_EDGE('',*,*,#593,.T.);
#952=ORIENTED_EDGE('',*,*,#636,.F.);
#953=ORIENTED_EDGE('',*,*,#688,.F.);
#954=ORIENTED_EDGE('',*,*,#604,.T.);
#955=ORIENTED_EDGE('',*,*,#687,.T.);
#956=ORIENTED_EDGE('',*,*,#635,.F.);
#957=ORIENTED_EDGE('',*,*,#689,.F.);
#958=ORIENTED_EDGE('',*,*,#605,.T.);
#959=ORIENTED_EDGE('',*,*,#688,.T.);
#960=ORIENTED_EDGE('',*,*,#634,.F.);
#961=ORIENTED_EDGE('',*,*,#647,.F.);
#962=ORIENTED_EDGE('',*,*,#583,.T.);
#963=ORIENTED_EDGE('',*,*,#690,.T.);
#964=ORIENTED_EDGE('',*,*,#675,.T.);
#965=ORIENTED_EDGE('',*,*,#606,.T.);
#966=ORIENTED_EDGE('',*,*,#689,.T.);
#967=ORIENTED_EDGE('',*,*,#642,.T.);
#968=ORIENTED_EDGE('',*,*,#691,.F.);
#969=ORIENTED_EDGE('',*,*,#660,.T.);
#970=ORIENTED_EDGE('',*,*,#672,.T.);
#971=ORIENTED_EDGE('',*,*,#641,.T.);
#972=ORIENTED_EDGE('',*,*,#678,.F.);
#973=ORIENTED_EDGE('',*,*,#580,.T.);
#974=ORIENTED_EDGE('',*,*,#692,.F.);
#975=ORIENTED_EDGE('',*,*,#661,.T.);
#976=ORIENTED_EDGE('',*,*,#691,.T.);
#977=ORIENTED_EDGE('',*,*,#579,.T.);
#978=ORIENTED_EDGE('',*,*,#693,.F.);
#979=ORIENTED_EDGE('',*,*,#662,.T.);
#980=ORIENTED_EDGE('',*,*,#692,.T.);
#981=ORIENTED_EDGE('',*,*,#578,.T.);
#982=ORIENTED_EDGE('',*,*,#694,.F.);
#983=ORIENTED_EDGE('',*,*,#663,.T.);
#984=ORIENTED_EDGE('',*,*,#693,.T.);
#985=ORIENTED_EDGE('',*,*,#650,.T.);
#986=ORIENTED_EDGE('',*,*,#664,.T.);
#987=ORIENTED_EDGE('',*,*,#694,.T.);
#988=ORIENTED_EDGE('',*,*,#577,.T.);
#989=ORIENTED_EDGE('',*,*,#612,.T.);
#990=ORIENTED_EDGE('',*,*,#695,.F.);
#991=ORIENTED_EDGE('',*,*,#653,.T.);
#992=ORIENTED_EDGE('',*,*,#666,.T.);
#993=ORIENTED_EDGE('',*,*,#611,.T.);
#994=ORIENTED_EDGE('',*,*,#696,.F.);
#995=ORIENTED_EDGE('',*,*,#654,.T.);
#996=ORIENTED_EDGE('',*,*,#695,.T.);
#997=ORIENTED_EDGE('',*,*,#610,.T.);
#998=ORIENTED_EDGE('',*,*,#697,.F.);
#999=ORIENTED_EDGE('',*,*,#655,.F.);
#1000=ORIENTED_EDGE('',*,*,#696,.T.);
#1001=ORIENTED_EDGE('',*,*,#669,.F.);
#1002=ORIENTED_EDGE('',*,*,#698,.F.);
#1003=ORIENTED_EDGE('',*,*,#656,.T.);
#1004=ORIENTED_EDGE('',*,*,#697,.T.);
#1005=ORIENTED_EDGE('',*,*,#609,.T.);
#1006=ORIENTED_EDGE('',*,*,#676,.T.);
#1007=ORIENTED_EDGE('',*,*,#671,.F.);
#1008=ORIENTED_EDGE('',*,*,#699,.F.);
#1009=ORIENTED_EDGE('',*,*,#657,.T.);
#1010=ORIENTED_EDGE('',*,*,#698,.T.);
#1011=ORIENTED_EDGE('',*,*,#667,.F.);
#1012=ORIENTED_EDGE('',*,*,#561,.F.);
#1013=ORIENTED_EDGE('',*,*,#658,.T.);
#1014=ORIENTED_EDGE('',*,*,#699,.T.);
#1015=ORIENTED_EDGE('',*,*,#621,.F.);
#1016=ORIENTED_EDGE('',*,*,#555,.T.);
#1017=ORIENTED_EDGE('',*,*,#623,.T.);
#1018=ORIENTED_EDGE('',*,*,#625,.T.);
#1019=ORIENTED_EDGE('',*,*,#624,.F.);
#1020=ORIENTED_EDGE('',*,*,#685,.F.);
#1021=ORIENTED_EDGE('',*,*,#626,.T.);
#1022=ORIENTED_EDGE('',*,*,#622,.F.);
#1023=ORIENTED_EDGE('',*,*,#673,.T.);
#1024=ORIENTED_EDGE('',*,*,#690,.F.);
#1025=ORIENTED_EDGE('',*,*,#582,.F.);
#1026=ORIENTED_EDGE('',*,*,#677,.F.);
#1027=ORIENTED_EDGE('',*,*,#679,.T.);
#1028=ORIENTED_EDGE('',*,*,#700,.T.);
#1029=ORIENTED_EDGE('',*,*,#680,.F.);
#1030=ORIENTED_EDGE('',*,*,#602,.T.);
#1031=ORIENTED_EDGE('',*,*,#682,.T.);
#1032=ORIENTED_EDGE('',*,*,#700,.F.);
#1033=ORIENTED_EDGE('',*,*,#684,.F.);
#1034=ORIENTED_EDGE('',*,*,#686,.F.);
#1035=EDGE_LOOP('',(#701,#702,#703,#704,#705,#706));
#1036=EDGE_LOOP('',(#707,#708,#709,#710));
#1037=EDGE_LOOP('',(#711,#712,#713,#714));
#1038=EDGE_LOOP('',(#715,#716,#717,#718));
#1039=EDGE_LOOP('',(#719,#720,#721,#722,#723,#724,#725));
#1040=EDGE_LOOP('',(#726,#727));
#1041=EDGE_LOOP('',(#728,#729,#730,#731,#732,#733,#734,#735,#736));
#1042=EDGE_LOOP('',(#737,#738,#739,#740));
#1043=EDGE_LOOP('',(#741,#742,#743,#744));
#1044=EDGE_LOOP('',(#745,#746,#747,#748));
#1045=EDGE_LOOP('',(#749,#750,#751,#752,#753));
#1046=EDGE_LOOP('',(#754,#755,#756,#757,#758,#759,#760,#761,#762,#763,#764,
#765,#766));
#1047=EDGE_LOOP('',(#767,#768,#769,#770));
#1048=EDGE_LOOP('',(#771,#772,#773,#774,#775));
#1049=EDGE_LOOP('',(#776,#777,#778,#779,#780,#781,#782,#783,#784,#785));
#1050=EDGE_LOOP('',(#786,#787));
#1051=EDGE_LOOP('',(#788,#789,#790,#791,#792,#793,#794,#795,#796,#797,#798,
#799,#800,#801));
#1052=EDGE_LOOP('',(#802,#803,#804,#805,#806,#807,#808,#809));
#1053=EDGE_LOOP('',(#810,#811,#812,#813));
#1054=EDGE_LOOP('',(#814,#815,#816,#817));
#1055=EDGE_LOOP('',(#818,#819,#820,#821));
#1056=EDGE_LOOP('',(#822,#823,#824,#825));
#1057=EDGE_LOOP('',(#826,#827,#828,#829,#830,#831,#832,#833,#834,#835));
#1058=EDGE_LOOP('',(#836,#837,#838,#839));
#1059=EDGE_LOOP('',(#840,#841,#842,#843,#844,#845,#846));
#1060=EDGE_LOOP('',(#847,#848,#849,#850));
#1061=EDGE_LOOP('',(#851,#852,#853,#854));
#1062=EDGE_LOOP('',(#855,#856,#857,#858));
#1063=EDGE_LOOP('',(#859,#860,#861,#862,#863));
#1064=EDGE_LOOP('',(#864,#865,#866,#867,#868,#869,#870,#871));
#1065=EDGE_LOOP('',(#872,#873,#874,#875,#876,#877,#878,#879,#880,#881));
#1066=EDGE_LOOP('',(#882,#883,#884,#885,#886,#887,#888,#889));
#1067=EDGE_LOOP('',(#890,#891,#892,#893));
#1068=EDGE_LOOP('',(#894,#895,#896,#897,#898,#899,#900,#901));
#1069=EDGE_LOOP('',(#902,#903,#904,#905,#906));
#1070=EDGE_LOOP('',(#907,#908,#909,#910));
#1071=EDGE_LOOP('',(#911,#912,#913,#914));
#1072=EDGE_LOOP('',(#915,#916,#917,#918,#919,#920,#921,#922,#923));
#1073=EDGE_LOOP('',(#924,#925,#926,#927));
#1074=EDGE_LOOP('',(#928,#929,#930,#931,#932,#933,#934));
#1075=EDGE_LOOP('',(#935,#936,#937,#938));
#1076=EDGE_LOOP('',(#939,#940,#941,#942));
#1077=EDGE_LOOP('',(#943,#944));
#1078=EDGE_LOOP('',(#945,#946));
#1079=EDGE_LOOP('',(#947,#948,#949,#950,#951));
#1080=EDGE_LOOP('',(#952,#953,#954,#955));
#1081=EDGE_LOOP('',(#956,#957,#958,#959));
#1082=EDGE_LOOP('',(#960,#961,#962,#963,#964,#965,#966));
#1083=EDGE_LOOP('',(#967,#968,#969,#970));
#1084=EDGE_LOOP('',(#971,#972,#973,#974,#975,#976));
#1085=EDGE_LOOP('',(#977,#978,#979,#980));
#1086=EDGE_LOOP('',(#981,#982,#983,#984));
#1087=EDGE_LOOP('',(#985,#986,#987,#988));
#1088=EDGE_LOOP('',(#989,#990,#991,#992));
#1089=EDGE_LOOP('',(#993,#994,#995,#996));
#1090=EDGE_LOOP('',(#997,#998,#999,#1000));
#1091=EDGE_LOOP('',(#1001,#1002,#1003,#1004,#1005,#1006));
#1092=EDGE_LOOP('',(#1007,#1008,#1009,#1010));
#1093=EDGE_LOOP('',(#1011,#1012,#1013,#1014));
#1094=EDGE_LOOP('',(#1015,#1016,#1017,#1018));
#1095=EDGE_LOOP('',(#1019,#1020,#1021,#1022));
#1096=EDGE_LOOP('',(#1023,#1024,#1025,#1026));
#1097=EDGE_LOOP('',(#1027,#1028,#1029,#1030));
#1098=EDGE_LOOP('',(#1031,#1032,#1033,#1034));
#1099=FACE_BOUND('',#1035,.T.);
#1100=FACE_BOUND('',#1036,.T.);
#1101=FACE_BOUND('',#1037,.T.);
#1102=FACE_BOUND('',#1038,.T.);
#1103=FACE_BOUND('',#1039,.T.);
#1104=FACE_BOUND('',#1040,.T.);
#1105=FACE_BOUND('',#1041,.T.);
#1106=FACE_BOUND('',#1042,.T.);
#1107=FACE_BOUND('',#1043,.T.);
#1108=FACE_BOUND('',#1044,.T.);
#1109=FACE_BOUND('',#1045,.T.);
#1110=FACE_BOUND('',#1046,.T.);
#1111=FACE_BOUND('',#1047,.T.);
#1112=FACE_BOUND('',#1048,.T.);
#1113=FACE_BOUND('',#1049,.T.);
#1114=FACE_BOUND('',#1050,.T.);
#1115=FACE_BOUND('',#1051,.T.);
#1116=FACE_BOUND('',#1052,.T.);
#1117=FACE_BOUND('',#1053,.T.);
#1118=FACE_BOUND('',#1054,.T.);
#1119=FACE_BOUND('',#1055,.T.);
#1120=FACE_BOUND('',#1056,.T.);
#1121=FACE_BOUND('',#1057,.T.);
#1122=FACE_BOUND('',#1058,.T.);
#1123=FACE_BOUND('',#1059,.T.);
#1124=FACE_BOUND('',#1060,.T.);
#1125=FACE_BOUND('',#1061,.T.);
#1126=FACE_BOUND('',#1062,.T.);
#1127=FACE_BOUND('',#1063,.T.);
#1128=FACE_BOUND('',#1064,.T.);
#1129=FACE_BOUND('',#1065,.T.);
#1130=FACE_BOUND('',#1066,.T.);
#1131=FACE_BOUND('',#1067,.T.);
#1132=FACE_BOUND('',#1068,.T.);
#1133=FACE_BOUND('',#1069,.T.);
#1134=FACE_BOUND('',#1070,.T.);
#1135=FACE_BOUND('',#1071,.T.);
#1136=FACE_BOUND('',#1072,.T.);
#1137=FACE_BOUND('',#1073,.T.);
#1138=FACE_BOUND('',#1074,.T.);
#1139=FACE_BOUND('',#1075,.T.);
#1140=FACE_BOUND('',#1076,.T.);
#1141=FACE_BOUND('',#1077,.T.);
#1142=FACE_BOUND('',#1078,.T.);
#1143=FACE_BOUND('',#1079,.T.);
#1144=FACE_BOUND('',#1080,.T.);
#1145=FACE_BOUND('',#1081,.T.);
#1146=FACE_BOUND('',#1082,.T.);
#1147=FACE_BOUND('',#1083,.T.);
#1148=FACE_BOUND('',#1084,.T.);
#1149=FACE_BOUND('',#1085,.T.);
#1150=FACE_BOUND('',#1086,.T.);
#1151=FACE_BOUND('',#1087,.T.);
#1152=FACE_BOUND('',#1088,.T.);
#1153=FACE_BOUND('',#1089,.T.);
#1154=FACE_BOUND('',#1090,.T.);
#1155=FACE_BOUND('',#1091,.T.);
#1156=FACE_BOUND('',#1092,.T.);
#1157=FACE_BOUND('',#1093,.T.);
#1158=FACE_BOUND('',#1094,.T.);
#1159=FACE_BOUND('',#1095,.T.);
#1160=FACE_BOUND('',#1096,.T.);
#1161=FACE_BOUND('',#1097,.T.);
#1162=FACE_BOUND('',#1098,.T.);
#1163=ADVANCED_FACE('',(#1099),#1868,.T.);
#1164=ADVANCED_FACE('',(#1100),#1869,.T.);
#1165=ADVANCED_FACE('',(#1101),#1870,.T.);
#1166=ADVANCED_FACE('',(#1102),#1871,.T.);
#1167=ADVANCED_FACE('',(#1103,#1104),#1872,.F.);
#1168=ADVANCED_FACE('',(#1105),#1873,.T.);
#1169=ADVANCED_FACE('',(#1106),#1874,.T.);
#1170=ADVANCED_FACE('',(#1107),#1875,.T.);
#1171=ADVANCED_FACE('',(#1108),#1876,.T.);
#1172=ADVANCED_FACE('',(#1109),#1877,.T.);
#1173=ADVANCED_FACE('',(#1110),#1878,.F.);
#1174=ADVANCED_FACE('',(#1111),#1879,.T.);
#1175=ADVANCED_FACE('',(#1112),#1880,.T.);
#1176=ADVANCED_FACE('',(#1113,#1114),#1881,.T.);
#1177=ADVANCED_FACE('',(#1115),#1882,.F.);
#1178=ADVANCED_FACE('',(#1116),#1883,.F.);
#1179=ADVANCED_FACE('',(#1117),#1884,.T.);
#1180=ADVANCED_FACE('',(#1118),#109,.T.);
#1181=ADVANCED_FACE('',(#1119),#103,.T.);
#1182=ADVANCED_FACE('',(#1120),#1885,.T.);
#1183=ADVANCED_FACE('',(#1121),#1886,.T.);
#1184=ADVANCED_FACE('',(#1122),#1887,.T.);
#1185=ADVANCED_FACE('',(#1123),#1888,.T.);
#1186=ADVANCED_FACE('',(#1124),#1889,.T.);
#1187=ADVANCED_FACE('',(#1125),#1890,.T.);
#1188=ADVANCED_FACE('',(#1126),#1891,.T.);
#1189=ADVANCED_FACE('',(#1127),#1892,.T.);
#1190=ADVANCED_FACE('',(#1128),#1893,.F.);
#1191=ADVANCED_FACE('',(#1129),#1894,.F.);
#1192=ADVANCED_FACE('',(#1130),#1895,.F.);
#1193=ADVANCED_FACE('',(#1131),#1896,.T.);
#1194=ADVANCED_FACE('',(#1132),#1897,.F.);
#1195=ADVANCED_FACE('',(#1133),#1898,.T.);
#1196=ADVANCED_FACE('',(#1134),#1899,.T.);
#1197=ADVANCED_FACE('',(#1135),#1900,.T.);
#1198=ADVANCED_FACE('',(#1136),#1901,.T.);
#1199=ADVANCED_FACE('',(#1137),#104,.F.);
#1200=ADVANCED_FACE('',(#1138),#1902,.T.);
#1201=ADVANCED_FACE('',(#1139),#110,.F.);
#1202=ADVANCED_FACE('',(#1140),#105,.F.);
#1203=ADVANCED_FACE('',(#1141,#1142),#1903,.F.);
#1204=ADVANCED_FACE('',(#1143),#1904,.T.);
#1205=ADVANCED_FACE('',(#1144),#1905,.T.);
#1206=ADVANCED_FACE('',(#1145),#1906,.T.);
#1207=ADVANCED_FACE('',(#1146),#1907,.T.);
#1208=ADVANCED_FACE('',(#1147),#1908,.T.);
#1209=ADVANCED_FACE('',(#1148),#1909,.T.);
#1210=ADVANCED_FACE('',(#1149),#1910,.T.);
#1211=ADVANCED_FACE('',(#1150),#1911,.T.);
#1212=ADVANCED_FACE('',(#1151),#1912,.T.);
#1213=ADVANCED_FACE('',(#1152),#1913,.T.);
#1214=ADVANCED_FACE('',(#1153),#1914,.T.);
#1215=ADVANCED_FACE('',(#1154),#1915,.T.);
#1216=ADVANCED_FACE('',(#1155),#1916,.T.);
#1217=ADVANCED_FACE('',(#1156),#1917,.T.);
#1218=ADVANCED_FACE('',(#1157),#1918,.T.);
#1219=ADVANCED_FACE('',(#1158),#111,.T.);
#1220=ADVANCED_FACE('',(#1159),#106,.T.);
#1221=ADVANCED_FACE('',(#1160),#107,.F.);
#1222=ADVANCED_FACE('',(#1161),#112,.F.);
#1223=ADVANCED_FACE('',(#1162),#108,.F.);
#1224=AXIS2_PLACEMENT_3D('',#1537,#1295,$);
#1225=AXIS2_PLACEMENT_3D('',#1550,#1302,$);
#1226=AXIS2_PLACEMENT_3D('',#1556,#1306,$);
#1227=AXIS2_PLACEMENT_3D('',#1565,#1311,$);
#1228=AXIS2_PLACEMENT_3D('',#1571,#1315,$);
#1229=AXIS2_PLACEMENT_3D('',#1581,#1321,#1322);
#1230=AXIS2_PLACEMENT_3D('',#1584,#1323,$);
#1231=AXIS2_PLACEMENT_3D('',#1598,#1331,$);
#1232=AXIS2_PLACEMENT_3D('',#1604,#1335,$);
#1233=AXIS2_PLACEMENT_3D('',#1606,#1337,$);
#1234=AXIS2_PLACEMENT_3D('',#1615,#1342,$);
#1235=AXIS2_PLACEMENT_3D('',#1623,#1347,$);
#1236=AXIS2_PLACEMENT_3D('',#1645,#1359,$);
#1237=AXIS2_PLACEMENT_3D('',#1654,#1364,$);
#1238=AXIS2_PLACEMENT_3D('',#1662,#1369,$);
#1239=AXIS2_PLACEMENT_3D('',#1673,#1376,#1377);
#1240=AXIS2_PLACEMENT_3D('',#1676,#1378,$);
#1241=AXIS2_PLACEMENT_3D('',#1700,#1391,$);
#1242=AXIS2_PLACEMENT_3D('',#1704,#1395,$);
#1243=AXIS2_PLACEMENT_3D('',#1710,#1399,#1400);
#1244=AXIS2_PLACEMENT_3D('',#1713,#1402,#1403);
#1245=AXIS2_PLACEMENT_3D('',#1716,#1405,#1406);
#1246=AXIS2_PLACEMENT_3D('',#1721,#1409,#1410);
#1247=AXIS2_PLACEMENT_3D('',#1722,#1411,$);
#1248=AXIS2_PLACEMENT_3D('',#1726,#1414,$);
#1249=AXIS2_PLACEMENT_3D('',#1742,#1423,$);
#1250=AXIS2_PLACEMENT_3D('',#1744,#1425,$);
#1251=AXIS2_PLACEMENT_3D('',#1754,#1431,$);
#1252=AXIS2_PLACEMENT_3D('',#1758,#1434,$);
#1253=AXIS2_PLACEMENT_3D('',#1761,#1437,$);
#1254=AXIS2_PLACEMENT_3D('',#1763,#1439,$);
#1255=AXIS2_PLACEMENT_3D('',#1764,#1440,$);
#1256=AXIS2_PLACEMENT_3D('',#1768,#1443,$);
#1257=AXIS2_PLACEMENT_3D('',#1784,#1452,$);
#1258=AXIS2_PLACEMENT_3D('',#1796,#1459,$);
#1259=AXIS2_PLACEMENT_3D('',#1799,#1462,$);
#1260=AXIS2_PLACEMENT_3D('',#1800,#1463,$);
#1261=AXIS2_PLACEMENT_3D('',#1804,#1466,$);
#1262=AXIS2_PLACEMENT_3D('',#1808,#1469,$);
#1263=AXIS2_PLACEMENT_3D('',#1810,#1471,$);
#1264=AXIS2_PLACEMENT_3D('',#1812,#1473,#1474);
#1265=AXIS2_PLACEMENT_3D('',#1816,#1476,#1477);
#1266=AXIS2_PLACEMENT_3D('',#1817,#1478,#1479);
#1267=AXIS2_PLACEMENT_3D('',#1818,#1480,$);
#1268=AXIS2_PLACEMENT_3D('',#1821,#1483,#1484);
#1269=AXIS2_PLACEMENT_3D('',#1826,#1487,#1488);
#1270=AXIS2_PLACEMENT_3D('',#1827,#1489,#1490);
#1271=AXIS2_PLACEMENT_3D('',#1830,#1492,#1493);
#1272=AXIS2_PLACEMENT_3D('',#1833,#1495,$);
#1273=AXIS2_PLACEMENT_3D('',#1834,#1496,$);
#1274=AXIS2_PLACEMENT_3D('',#1836,#1498,$);
#1275=AXIS2_PLACEMENT_3D('',#1838,#1500,$);
#1276=AXIS2_PLACEMENT_3D('',#1840,#1502,$);
#1277=AXIS2_PLACEMENT_3D('',#1841,#1503,#1504);
#1278=AXIS2_PLACEMENT_3D('',#1842,#1505,$);
#1279=AXIS2_PLACEMENT_3D('',#1844,#1507,$);
#1280=AXIS2_PLACEMENT_3D('',#1846,#1509,$);
#1281=AXIS2_PLACEMENT_3D('',#1848,#1511,$);
#1282=AXIS2_PLACEMENT_3D('',#1850,#1513,$);
#1283=AXIS2_PLACEMENT_3D('',#1851,#1514,$);
#1284=AXIS2_PLACEMENT_3D('',#1853,#1516,$);
#1285=AXIS2_PLACEMENT_3D('',#1855,#1518,$);
#1286=AXIS2_PLACEMENT_3D('',#1857,#1520,$);
#1287=AXIS2_PLACEMENT_3D('',#1859,#1522,$);
#1288=AXIS2_PLACEMENT_3D('',#1861,#1524,$);
#1289=AXIS2_PLACEMENT_3D('',#1862,#1525,#1526);
#1290=AXIS2_PLACEMENT_3D('',#1863,#1527,#1528);
#1291=AXIS2_PLACEMENT_3D('',#1864,#1529,#1530);
#1292=AXIS2_PLACEMENT_3D('',#1865,#1531,#1532);
#1293=AXIS2_PLACEMENT_3D('',#1866,#1533,#1534);
#1294=AXIS2_PLACEMENT_3D('',#1867,#1535,#1536);
#1295=DIRECTION('',(1.,0.,0.));
#1296=DIRECTION('',(0.,0.707106781186548,0.707106781186547));
#1297=DIRECTION('',(0.,0.,1.));
#1298=DIRECTION('',(0.,-1.,0.));
#1299=DIRECTION('',(0.,0.,-1.));
#1300=DIRECTION('',(0.,0.707106781186548,-0.707106781186548));
#1301=DIRECTION('',(0.,1.,0.));
#1302=DIRECTION('',(0.,0.,-1.));
#1303=DIRECTION('',(-1.,0.,0.));
#1304=DIRECTION('',(1.,0.,0.));
#1305=DIRECTION('',(0.,1.,0.));
#1306=DIRECTION('',(-1.38700747233549E-17,0.707106781186548,-0.707106781186548));
#1307=DIRECTION('',(0.,-0.707106781186549,-0.707106781186546));
#1308=DIRECTION('',(-1.,0.,0.));
#1309=DIRECTION('',(0.,-0.707106781186549,-0.707106781186546));
#1310=DIRECTION('',(1.,0.,0.));
#1311=DIRECTION('',(-1.38700747233549E-17,0.707106781186548,-0.707106781186548));
#1312=DIRECTION('',(1.,0.,0.));
#1313=DIRECTION('',(-0.577350269189627,0.577350269189626,0.577350269189624));
#1314=DIRECTION('',(-1.,0.,0.));
#1315=DIRECTION('',(0.,0.,1.));
#1316=DIRECTION('',(-1.,0.,0.));
#1317=DIRECTION('',(-7.40019398807982E-7,0.999999999999726,0.));
#1318=DIRECTION('',(2.41154060432541E-13,1.,0.));
#1319=DIRECTION('',(-1.,0.,0.));
#1320=DIRECTION('',(0.,1.,0.));
#1321=DIRECTION('',(0.,0.,-1.));
#1322=DIRECTION('',(4.3,0.,0.));
#1323=DIRECTION('',(0.,-1.,0.));
#1324=DIRECTION('',(0.,0.,1.));
#1325=DIRECTION('',(1.,0.,0.));
#1326=DIRECTION('',(0.,0.,1.));
#1327=DIRECTION('',(1.,0.,0.));
#1328=DIRECTION('',(0.,0.,1.));
#1329=DIRECTION('',(-0.70710678118664,0.,0.707106781186455));
#1330=DIRECTION('',(1.,0.,0.));
#1331=DIRECTION('',(0.,-0.707106781186547,-0.707106781186548));
#1332=DIRECTION('',(0.,-0.707106781186477,0.707106781186618));
#1333=DIRECTION('',(-1.,0.,0.));
#1334=DIRECTION('',(0.,-0.707106781186477,0.707106781186618));
#1335=DIRECTION('',(0.,-0.707106781186547,-0.707106781186548));
#1336=DIRECTION('',(0.577349984356021,0.577350411606376,-0.577350411606376));
#1337=DIRECTION('',(-0.707106781186547,0.707106781186548,2.83751649159719E-16));
#1338=DIRECTION('',(0.707106781186547,0.707106781186547,0.));
#1339=DIRECTION('',(0.,0.,-1.));
#1340=DIRECTION('',(-0.707106781186547,-0.707106781186547,0.));
#1341=DIRECTION('',(0.,0.,1.));
#1342=DIRECTION('',(-1.,0.,0.));
#1343=DIRECTION('',(0.,-1.,0.));
#1344=DIRECTION('',(0.,0.,1.));
#1345=DIRECTION('',(0.,-0.707106781186548,-0.707106781186547));
#1346=DIRECTION('',(0.,-1.,0.));
#1347=DIRECTION('',(0.,0.,1.));
#1348=DIRECTION('',(1.,0.,0.));
#1349=DIRECTION('',(0.,1.,0.));
#1350=DIRECTION('',(-1.,0.,0.));
#1351=DIRECTION('',(0.,-1.,0.));
#1352=DIRECTION('',(-1.,0.,0.));
#1353=DIRECTION('',(0.,-1.,0.));
#1354=DIRECTION('',(1.,0.,0.));
#1355=DIRECTION('',(0.,1.,0.));
#1356=DIRECTION('',(1.,0.,0.));
#1357=DIRECTION('',(0.,1.,0.));
#1358=DIRECTION('',(1.,0.,0.));
#1359=DIRECTION('',(-0.707106781186548,-0.707106781186547,-3.78335532212958E-16));
#1360=DIRECTION('',(-0.707106781186547,0.707106781186547,0.));
#1361=DIRECTION('',(0.,0.,-1.));
#1362=DIRECTION('',(0.707106781186547,-0.707106781186547,0.));
#1363=DIRECTION('',(0.,0.,1.));
#1364=DIRECTION('',(-1.,0.,0.));
#1365=DIRECTION('',(0.,-1.,0.));
#1366=DIRECTION('',(0.,-0.707106781186548,0.707106781186548));
#1367=DIRECTION('',(0.,0.,1.));
#1368=DIRECTION('',(0.,-1.,0.));
#1369=DIRECTION('',(0.,0.,1.));
#1370=DIRECTION('',(-1.,0.,0.));
#1371=DIRECTION('',(0.,-1.,0.));
#1372=DIRECTION('',(1.,0.,0.));
#1373=DIRECTION('',(1.,0.,0.));
#1374=DIRECTION('',(0.,-1.,0.));
#1375=DIRECTION('',(-1.,0.,0.));
#1376=DIRECTION('',(0.,0.,1.));
#1377=DIRECTION('',(-3.1,0.,0.));
#1378=DIRECTION('',(0.,0.,1.));
#1379=DIRECTION('',(-1.,0.,0.));
#1380=DIRECTION('',(0.,1.,0.));
#1381=DIRECTION('',(-1.,0.,0.));
#1382=DIRECTION('',(0.,1.,0.));
#1383=DIRECTION('',(-1.,0.,0.));
#1384=DIRECTION('',(0.,-1.,0.));
#1385=DIRECTION('',(1.,0.,0.));
#1386=DIRECTION('',(0.,-1.,0.));
#1387=DIRECTION('',(7.40019422332249E-7,-0.999999999999726,0.));
#1388=DIRECTION('',(1.,0.,0.));
#1389=DIRECTION('',(0.,1.,0.));
#1390=DIRECTION('',(-1.,0.,0.));
#1391=DIRECTION('',(1.,0.,0.));
#1392=DIRECTION('',(0.,0.,-1.));
#1393=DIRECTION('',(0.,0.,1.));
#1394=DIRECTION('',(0.,0.,-1.));
#1395=DIRECTION('',(1.,0.,0.));
#1396=DIRECTION('',(0.,0.,1.));
#1397=DIRECTION('',(0.,0.,1.));
#1398=DIRECTION('',(0.,1.,0.));
#1399=DIRECTION('',(0.,0.,1.));
#1400=DIRECTION('',(3.55,0.,0.));
#1401=DIRECTION('',(-0.707106781186547,0.,-0.707106781186548));
#1402=DIRECTION('',(0.,0.,1.));
#1403=DIRECTION('',(2.8,0.,0.));
#1404=DIRECTION('',(0.707106781186548,0.,-0.707106781186547));
#1405=DIRECTION('',(0.,0.,-1.));
#1406=DIRECTION('',(2.8,0.,0.));
#1407=DIRECTION('',(0.,0.,1.));
#1408=DIRECTION('',(0.,0.,1.));
#1409=DIRECTION('',(0.,0.,-1.));
#1410=DIRECTION('',(2.8,0.,0.));
#1411=DIRECTION('',(-5.23364152894592E-17,0.707106781186548,0.707106781186547));
#1412=DIRECTION('',(0.577350269189628,0.577350269189625,-0.577350269189625));
#1413=DIRECTION('',(-1.,0.,0.));
#1414=DIRECTION('',(0.707106781186548,0.,0.707106781186547));
#1415=DIRECTION('',(-0.577350269189627,0.577350269189625,0.577350269189625));
#1416=DIRECTION('',(0.707106781186542,0.,-0.707106781186553));
#1417=DIRECTION('',(0.,1.,0.));
#1418=DIRECTION('',(0.707106781186553,0.,-0.707106781186542));
#1419=DIRECTION('',(0.,1.,0.));
#1420=DIRECTION('',(-0.707106781186553,0.,0.707106781186542));
#1421=DIRECTION('',(0.,1.,0.));
#1422=DIRECTION('',(-0.707106781186542,0.,0.707106781186553));
#1423=DIRECTION('',(0.,-0.707106781186548,0.707106781186548));
#1424=DIRECTION('',(1.,0.,0.));
#1425=DIRECTION('',(-0.707106781186548,0.,-0.707106781186547));
#1426=DIRECTION('',(0.577350269189626,0.577350269189626,-0.577350269189626));
#1427=DIRECTION('',(0.,-1.,0.));
#1428=DIRECTION('',(0.707106781186548,0.,-0.707106781186547));
#1429=DIRECTION('',(0.,1.,0.));
#1430=DIRECTION('',(0.707106781186544,0.,-0.707106781186551));
#1431=DIRECTION('',(1.,0.,0.));
#1432=DIRECTION('',(0.,0.,-1.));
#1433=DIRECTION('',(0.,1.,0.));
#1434=DIRECTION('',(0.,-1.,0.));
#1435=DIRECTION('',(0.,0.,1.));
#1436=DIRECTION('',(0.,0.,1.));
#1437=DIRECTION('',(1.,0.,0.));
#1438=DIRECTION('',(0.,0.,1.));
#1439=DIRECTION('',(0.,-1.,0.));
#1440=DIRECTION('',(0.,-1.,-4.01285430587406E-16));
#1441=DIRECTION('',(1.,0.,0.));
#1442=DIRECTION('',(0.,0.,-1.));
#1443=DIRECTION('',(0.,0.,1.));
#1444=DIRECTION('',(-1.,0.,0.));
#1445=DIRECTION('',(0.,-1.,0.));
#1446=DIRECTION('',(-1.,0.,0.));
#1447=DIRECTION('',(-7.40019422332249E-7,0.999999999999726,0.));
#1448=DIRECTION('',(0.,-1.,0.));
#1449=DIRECTION('',(1.,0.,0.));
#1450=DIRECTION('',(0.,-1.,0.));
#1451=DIRECTION('',(7.40019457512127E-7,-0.999999999999726,0.));
#1452=DIRECTION('',(0.,0.,1.));
#1453=DIRECTION('',(-1.,0.,0.));
#1454=DIRECTION('',(0.,-1.,0.));
#1455=DIRECTION('',(-1.,0.,0.));
#1456=DIRECTION('',(0.,1.,0.));
#1457=DIRECTION('',(1.,0.,0.));
#1458=DIRECTION('',(0.,-1.,0.));
#1459=DIRECTION('',(-1.,-3.76346788008528E-16,0.));
#1460=DIRECTION('',(0.,0.,1.));
#1461=DIRECTION('',(0.,0.,1.));
#1462=DIRECTION('',(0.,1.,5.35047240783208E-16));
#1463=DIRECTION('',(-0.707106781186354,-5.23272753933551E-7,-0.707106781186548));
#1464=DIRECTION('',(7.40019457512127E-7,-0.999999999999726,0.));
#1465=DIRECTION('',(-0.707106781186357,-5.23272759277989E-7,0.707106781186544));
#1466=DIRECTION('',(0.,-0.707106781186548,-0.707106781186548));
#1467=DIRECTION('',(1.,0.,0.));
#1468=DIRECTION('',(0.577350269189626,0.577350269189626,-0.577350269189626));
#1469=DIRECTION('',(-0.707106781186548,0.,-0.707106781186547));
#1470=DIRECTION('',(0.,-1.,0.));
#1471=DIRECTION('',(-1.96152477848968E-17,1.,0.));
#1472=DIRECTION('',(0.,0.,1.));
#1473=DIRECTION('',(-1.,0.,0.));
#1474=DIRECTION('',(0.,2.0818995585505E-16,3.4));
#1475=DIRECTION('',(1.,0.,0.));
#1476=DIRECTION('',(1.,0.,0.));
#1477=DIRECTION('',(0.,3.4,0.));
#1478=DIRECTION('',(-1.,0.,0.));
#1479=DIRECTION('',(0.,3.4,0.));
#1480=DIRECTION('',(-1.,0.,0.));
#1481=DIRECTION('',(0.,0.,1.));
#1482=DIRECTION('',(0.,0.,1.));
#1483=DIRECTION('',(0.,0.,1.));
#1484=DIRECTION('',(-2.35,0.,0.));
#1485=DIRECTION('',(0.707106781186547,0.,-0.707106781186548));
#1486=DIRECTION('',(-0.707106781186548,0.,-0.707106781186548));
#1487=DIRECTION('',(0.,0.,-1.));
#1488=DIRECTION('',(-1.6,0.,0.));
#1489=DIRECTION('',(0.,0.,-1.));
#1490=DIRECTION('',(1.6,0.,0.));
#1491=DIRECTION('',(0.,0.,1.));
#1492=DIRECTION('',(0.,0.,1.));
#1493=DIRECTION('',(1.6,0.,0.));
#1494=DIRECTION('',(0.,0.,1.));
#1495=DIRECTION('',(0.,0.,1.));
#1496=DIRECTION('',(-7.40148683083438E-17,1.,0.));
#1497=DIRECTION('',(0.,0.,1.));
#1498=DIRECTION('',(1.,0.,0.));
#1499=DIRECTION('',(0.,0.,1.));
#1500=DIRECTION('',(0.,1.,0.));
#1501=DIRECTION('',(0.,0.,1.));
#1502=DIRECTION('',(1.,0.,0.));
#1503=DIRECTION('',(-1.,0.,0.));
#1504=DIRECTION('',(0.,3.4,0.));
#1505=DIRECTION('',(-1.,0.,0.));
#1506=DIRECTION('',(0.,0.,1.));
#1507=DIRECTION('',(0.,1.,0.));
#1508=DIRECTION('',(0.,0.,1.));
#1509=DIRECTION('',(1.,3.96064351576677E-15,0.));
#1510=DIRECTION('',(0.,0.,1.));
#1511=DIRECTION('',(0.,-1.,0.));
#1512=DIRECTION('',(0.,0.,1.));
#1513=DIRECTION('',(-1.,-3.76346788008528E-16,0.));
#1514=DIRECTION('',(0.,1.,0.));
#1515=DIRECTION('',(0.,0.,1.));
#1516=DIRECTION('',(0.999999999999726,7.40019469407944E-7,0.));
#1517=DIRECTION('',(0.,0.,1.));
#1518=DIRECTION('',(1.,0.,0.));
#1519=DIRECTION('',(0.,0.,1.));
#1520=DIRECTION('',(0.,-1.,0.));
#1521=DIRECTION('',(0.,0.,1.));
#1522=DIRECTION('',(-1.,0.,0.));
#1523=DIRECTION('',(0.,0.,1.));
#1524=DIRECTION('',(-0.999999999999726,-7.40019425433147E-7,0.));
#1525=DIRECTION('',(0.,0.,1.));
#1526=DIRECTION('',(3.55,0.,0.));
#1527=DIRECTION('',(0.,0.,-1.));
#1528=DIRECTION('',(2.8,0.,0.));
#1529=DIRECTION('',(-1.,0.,0.));
#1530=DIRECTION('',(0.,2.0818995585505E-16,3.4));
#1531=DIRECTION('',(0.,0.,1.));
#1532=DIRECTION('',(-2.35,0.,0.));
#1533=DIRECTION('',(0.,0.,-1.));
#1534=DIRECTION('',(-1.6,0.,0.));
#1535=DIRECTION('',(0.,0.,-1.));
#1536=DIRECTION('',(1.6,0.,0.));
#1537=CARTESIAN_POINT('',(1.1,19.3,9.));
#1538=CARTESIAN_POINT('',(1.1,8.7,8.3));
#1539=CARTESIAN_POINT('',(1.1,8.7,8.3));
#1540=CARTESIAN_POINT('',(1.1,9.4,9.));
#1541=CARTESIAN_POINT('',(1.1,8.7,8.2));
#1542=CARTESIAN_POINT('',(1.1,8.7,8.2));
#1543=CARTESIAN_POINT('',(1.1,19.3,8.2));
#1544=CARTESIAN_POINT('',(1.1,19.3,8.2));
#1545=CARTESIAN_POINT('',(1.1,19.3,8.3));
#1546=CARTESIAN_POINT('',(1.1,19.3,8.3));
#1547=CARTESIAN_POINT('',(1.1,18.6,9.));
#1548=CARTESIAN_POINT('',(1.1,18.6,9.));
#1549=CARTESIAN_POINT('',(1.1,9.4,9.));
#1550=CARTESIAN_POINT('',(0.300000000000002,14.,8.2));
#1551=CARTESIAN_POINT('',(1.1,19.3,8.2));
#1552=CARTESIAN_POINT('',(-0.499999999999998,19.3,8.2));
#1553=CARTESIAN_POINT('',(-0.499999999999998,8.7,8.2));
#1554=CARTESIAN_POINT('',(-0.499999999999999,8.7,8.2));
#1555=CARTESIAN_POINT('',(-0.499999999999998,8.7,8.2));
#1556=CARTESIAN_POINT('',(41.3020604175746,9.05,8.65));
#1557=CARTESIAN_POINT('',(-0.499999999999998,9.15010919881235,8.75010919881235));
#1558=CARTESIAN_POINT('',(-0.499999999999999,9.15010919881235,8.75010919881235));
#1559=CARTESIAN_POINT('',(-0.499999999999999,8.7,8.3));
#1560=CARTESIAN_POINT('',(-0.499999999999998,8.7,8.3));
#1561=CARTESIAN_POINT('',(-1.3,8.7,8.3));
#1562=CARTESIAN_POINT('',(-1.3,9.15010919881235,8.75010919881235));
#1563=CARTESIAN_POINT('',(-1.3,9.15010919881235,8.75010919881235));
#1564=CARTESIAN_POINT('',(-1.3,9.15010919881235,8.75010919881235));
#1565=CARTESIAN_POINT('',(41.3020604175746,9.05,8.65));
#1566=CARTESIAN_POINT('',(1.1,9.4,9.));
#1567=CARTESIAN_POINT('',(54.,9.4,9.));
#1568=CARTESIAN_POINT('',(54.7,8.7,8.3));
#1569=CARTESIAN_POINT('',(54.7,8.7,8.3));
#1570=CARTESIAN_POINT('',(54.7,8.7,8.3));
#1571=CARTESIAN_POINT('',(27.3041208351491,14.,9.));
#1572=CARTESIAN_POINT('',(52.300000296007,18.6,9.));
#1573=CARTESIAN_POINT('',(52.300000296007,18.6,9.00000000000001));
#1574=CARTESIAN_POINT('',(52.3000005975589,18.1925081148134,9.));
#1575=CARTESIAN_POINT('',(52.3000005975587,18.1925081148134,8.99999999999982));
#1576=CARTESIAN_POINT('',(52.3000005975581,14.8925103348717,9.));
#1577=CARTESIAN_POINT('',(52.3000005975581,14.8925103348717,9.));
#1578=CARTESIAN_POINT('',(54.,14.8925103348717,9.));
#1579=CARTESIAN_POINT('',(54.,14.8925103348717,9.));
#1580=CARTESIAN_POINT('',(54.,9.4,9.));
#1581=CARTESIAN_POINT('',(35.,14.,9.));
#1582=CARTESIAN_POINT('',(39.3,14.,9.));
#1583=CARTESIAN_POINT('',(30.7,14.,9.));
#1584=CARTESIAN_POINT('',(-1.3,19.3,-1.));
#1585=CARTESIAN_POINT('',(-0.499999999999998,19.3,8.2));
#1586=CARTESIAN_POINT('',(-0.499999999999998,19.3,8.3));
#1587=CARTESIAN_POINT('',(-1.3,19.3,8.3));
#1588=CARTESIAN_POINT('',(-1.3,19.3,8.3));
#1589=CARTESIAN_POINT('',(-1.3,19.3,-1.));
#1590=CARTESIAN_POINT('',(-1.3,19.3,-1.));
#1591=CARTESIAN_POINT('',(-1.3,19.3,-1.));
#1592=CARTESIAN_POINT('',(55.2999997779942,19.3,-1.));
#1593=CARTESIAN_POINT('',(55.2999997779942,19.3,-1.));
#1594=CARTESIAN_POINT('',(55.2999997779942,19.3,6.00000000000002));
#1595=CARTESIAN_POINT('',(55.2999997779942,19.3,6.));
#1596=CARTESIAN_POINT('',(52.9999997779936,19.3,8.30000000000001));
#1597=CARTESIAN_POINT('',(1.1,19.3,8.3));
#1598=CARTESIAN_POINT('',(13.0020604175746,18.95,8.65));
#1599=CARTESIAN_POINT('',(-0.499999999999998,19.3,8.3));
#1600=CARTESIAN_POINT('',(-0.499999999999998,19.0501091988124,8.54989080118764));
#1601=CARTESIAN_POINT('',(-0.499999999999998,19.0501091988124,8.54989080118765));
#1602=CARTESIAN_POINT('',(-1.3,19.0501091988124,8.54989080118764));
#1603=CARTESIAN_POINT('',(-1.3,19.3,8.3));
#1604=CARTESIAN_POINT('',(13.0020604175746,18.95,8.65));
#1605=CARTESIAN_POINT('',(52.300000296007,18.6,9.));
#1606=CARTESIAN_POINT('',(-2.5,8.65010919881235,4.07499864985219));
#1607=CARTESIAN_POINT('',(-3.,8.15010919881235,10.));
#1608=CARTESIAN_POINT('',(-3.,8.15010919881235,10.));
#1609=CARTESIAN_POINT('',(-2.,9.15010919881235,10.));
#1610=CARTESIAN_POINT('',(-2.,9.15010919881235,10.));
#1611=CARTESIAN_POINT('',(-2.,9.15010919881235,-1.00321357646852E-16));
#1612=CARTESIAN_POINT('',(-2.,9.15010919881235,0.));
#1613=CARTESIAN_POINT('',(-3.,8.15010919881235,1.00321357646851E-16));
#1614=CARTESIAN_POINT('',(-3.,8.15010919881235,0.));
#1615=CARTESIAN_POINT('',(-3.,21.,0.));
#1616=CARTESIAN_POINT('',(-3.,8.15010919881235,0.));
#1617=CARTESIAN_POINT('',(-3.,7.,0.));
#1618=CARTESIAN_POINT('',(-3.,7.,0.));
#1619=CARTESIAN_POINT('',(-3.,7.,9.3));
#1620=CARTESIAN_POINT('',(-3.,7.7,10.));
#1621=CARTESIAN_POINT('',(-3.,7.7,10.));
#1622=CARTESIAN_POINT('',(-3.,8.15010919881235,10.));
#1623=CARTESIAN_POINT('',(27.3041208351491,14.,0.));
#1624=CARTESIAN_POINT('',(-2.,9.15010919881235,0.));
#1625=CARTESIAN_POINT('',(-1.9,9.15010919881235,0.));
#1626=CARTESIAN_POINT('',(-1.9,8.1,0.));
#1627=CARTESIAN_POINT('',(-1.9,8.1,0.));
#1628=CARTESIAN_POINT('',(55.9,8.1,0.));
#1629=CARTESIAN_POINT('',(55.9,8.1,0.));
#1630=CARTESIAN_POINT('',(55.9,10.5425103803572,0.));
#1631=CARTESIAN_POINT('',(55.9,10.5425103803572,0.));
#1632=CARTESIAN_POINT('',(57.,10.5425103803572,0.));
#1633=CARTESIAN_POINT('',(57.,10.5425103803572,0.));
#1634=CARTESIAN_POINT('',(57.,10.8411218757489,0.));
#1635=CARTESIAN_POINT('',(57.,10.8411218757489,4.08006961549745E-15));
#1636=CARTESIAN_POINT('',(57.,10.8411218757489,0.));
#1637=CARTESIAN_POINT('',(58.0082416702983,10.8411218757489,6.68144351271524E-15));
#1638=CARTESIAN_POINT('',(58.0082416702983,10.0425103803572,0.));
#1639=CARTESIAN_POINT('',(58.0082416702983,10.0425103803572,0.));
#1640=CARTESIAN_POINT('',(57.,10.0425103803572,0.));
#1641=CARTESIAN_POINT('',(57.,10.0425103803572,0.));
#1642=CARTESIAN_POINT('',(57.,7.,0.));
#1643=CARTESIAN_POINT('',(57.,7.,0.));
#1644=CARTESIAN_POINT('',(-3.,7.,0.));
#1645=CARTESIAN_POINT('',(-2.5,19.5501091988124,-2.54118226110402E-16));
#1646=CARTESIAN_POINT('',(-2.,19.0501091988124,10.));
#1647=CARTESIAN_POINT('',(-2.,19.0501091988124,10.));
#1648=CARTESIAN_POINT('',(-3.,20.0501091988124,10.));
#1649=CARTESIAN_POINT('',(-3.,20.0501091988124,10.));
#1650=CARTESIAN_POINT('',(-3.,20.0501091988124,9.86076131526265E-32));
#1651=CARTESIAN_POINT('',(-3.,20.0501091988124,0.));
#1652=CARTESIAN_POINT('',(-2.,19.0501091988124,-1.23259516440783E-31));
#1653=CARTESIAN_POINT('',(-2.,19.0501091988124,0.));
#1654=CARTESIAN_POINT('',(-3.,21.,0.));
#1655=CARTESIAN_POINT('',(-3.,20.3,10.));
#1656=CARTESIAN_POINT('',(-3.,20.3,10.));
#1657=CARTESIAN_POINT('',(-3.,21.,9.3));
#1658=CARTESIAN_POINT('',(-3.,21.,9.3));
#1659=CARTESIAN_POINT('',(-3.,21.,0.));
#1660=CARTESIAN_POINT('',(-3.,21.,0.));
#1661=CARTESIAN_POINT('',(-3.,21.,0.));
#1662=CARTESIAN_POINT('',(27.3041208351491,14.,10.));
#1663=CARTESIAN_POINT('',(55.0082416702983,7.7,10.));
#1664=CARTESIAN_POINT('',(55.0082416702983,7.7,10.));
#1665=CARTESIAN_POINT('',(55.0082416702983,20.3,10.));
#1666=CARTESIAN_POINT('',(55.0082416702983,20.3,10.));
#1667=CARTESIAN_POINT('',(-3.,20.3,10.));
#1668=CARTESIAN_POINT('',(-2.,19.0501091988124,10.));
#1669=CARTESIAN_POINT('',(-0.499999999999997,19.0501091988124,10.));
#1670=CARTESIAN_POINT('',(-0.499999999999998,19.0501091988124,10.));
#1671=CARTESIAN_POINT('',(-0.499999999999997,9.15010919881235,10.));
#1672=CARTESIAN_POINT('',(-0.499999999999998,9.15010919881235,10.));
#1673=CARTESIAN_POINT('',(35.,14.,10.));
#1674=CARTESIAN_POINT('',(31.9,14.,10.));
#1675=CARTESIAN_POINT('',(38.1,14.,10.));
#1676=CARTESIAN_POINT('',(27.3041208351491,14.,0.));
#1677=CARTESIAN_POINT('',(57.,21.,0.));
#1678=CARTESIAN_POINT('',(57.,21.,0.));
#1679=CARTESIAN_POINT('',(57.,18.3925103348717,0.));
#1680=CARTESIAN_POINT('',(57.,18.3925103348717,0.));
#1681=CARTESIAN_POINT('',(58.0082416702983,18.3925103348717,0.));
#1682=CARTESIAN_POINT('',(58.0082416702983,18.3925103348717,0.));
#1683=CARTESIAN_POINT('',(58.0082416702983,17.5938993709848,0.));
#1684=CARTESIAN_POINT('',(58.0082416702983,17.5938993709848,-2.1094237467878E-15));
#1685=CARTESIAN_POINT('',(58.0082416702983,17.5938993709848,-5.55111512312578E-17));
#1686=CARTESIAN_POINT('',(57.,17.5938993709848,-8.12798654249755E-16));
#1687=CARTESIAN_POINT('',(57.,17.8925103348717,0.));
#1688=CARTESIAN_POINT('',(57.,17.8925103348717,0.));
#1689=CARTESIAN_POINT('',(55.9000002275486,17.8925103348717,0.));
#1690=CARTESIAN_POINT('',(55.9000002275486,17.8925103348717,0.));
#1691=CARTESIAN_POINT('',(55.9000002275486,18.6925103348717,0.));
#1692=CARTESIAN_POINT('',(55.9000002275486,18.6925103348717,0.));
#1693=CARTESIAN_POINT('',(55.8999993339828,19.9,0.));
#1694=CARTESIAN_POINT('',(55.8999993339828,19.9,0.));
#1695=CARTESIAN_POINT('',(-1.9,19.9,0.));
#1696=CARTESIAN_POINT('',(-1.9,19.9,0.));
#1697=CARTESIAN_POINT('',(-1.9,19.0501091988124,0.));
#1698=CARTESIAN_POINT('',(-1.9,19.0501091988124,0.));
#1699=CARTESIAN_POINT('',(-1.9,19.0501091988124,0.));
#1700=CARTESIAN_POINT('',(-0.499999999999998,14.1001091988124,9.07499864985219));
#1701=CARTESIAN_POINT('',(-0.499999999999998,9.15010919881235,10.));
#1702=CARTESIAN_POINT('',(-0.499999999999998,19.0501091988124,8.54989080118765));
#1703=CARTESIAN_POINT('',(-0.499999999999998,8.7,8.3));
#1704=CARTESIAN_POINT('',(-1.3,8.7,-1.));
#1705=CARTESIAN_POINT('',(-1.3,9.15010919881235,-1.));
#1706=CARTESIAN_POINT('',(-1.3,9.15010919881235,-1.));
#1707=CARTESIAN_POINT('',(-1.3,8.7,-1.));
#1708=CARTESIAN_POINT('',(-1.3,8.7,-1.));
#1709=CARTESIAN_POINT('',(-1.3,8.7,-1.));
#1710=CARTESIAN_POINT('',(35.,14.,8.25));
#1711=CARTESIAN_POINT('',(38.4,14.,8.1));
#1712=CARTESIAN_POINT('',(37.8,14.,7.5));
#1713=CARTESIAN_POINT('',(35.,14.,7.5));
#1714=CARTESIAN_POINT('',(32.2,14.,7.5));
#1715=CARTESIAN_POINT('',(30.7,14.,9.));
#1716=CARTESIAN_POINT('',(35.,14.,9.));
#1717=CARTESIAN_POINT('',(37.8,14.,-1.5));
#1718=CARTESIAN_POINT('',(37.8,14.,0.));
#1719=CARTESIAN_POINT('',(32.2,14.,0.));
#1720=CARTESIAN_POINT('',(32.2,14.,0.));
#1721=CARTESIAN_POINT('',(35.,14.,0.));
#1722=CARTESIAN_POINT('',(42.1520604175746,20.65,9.65));
#1723=CARTESIAN_POINT('',(55.0082416702983,20.3,10.));
#1724=CARTESIAN_POINT('',(55.7082416702983,21.,9.3));
#1725=CARTESIAN_POINT('',(55.7082416702983,21.,9.3));
#1726=CARTESIAN_POINT('',(56.5082416702983,12.0212551901786,8.5));
#1727=CARTESIAN_POINT('',(55.7082416702983,7.,9.3));
#1728=CARTESIAN_POINT('',(55.7082416702983,7.,9.3));
#1729=CARTESIAN_POINT('',(55.7082416702983,7.,9.3));
#1730=CARTESIAN_POINT('',(57.,7.,8.00824167029828));
#1731=CARTESIAN_POINT('',(57.,7.,8.00824167029828));
#1732=CARTESIAN_POINT('',(57.,10.0425103803572,8.00824167029828));
#1733=CARTESIAN_POINT('',(57.,10.0425103803572,8.00824167029828));
#1734=CARTESIAN_POINT('',(58.0082416702983,10.0425103803572,7.));
#1735=CARTESIAN_POINT('',(58.0082416702983,10.0425103803572,7.));
#1736=CARTESIAN_POINT('',(58.0082416702983,18.3925103348717,7.));
#1737=CARTESIAN_POINT('',(58.0082416702983,18.3925103348717,7.));
#1738=CARTESIAN_POINT('',(57.,18.3925103348717,8.00824167029828));
#1739=CARTESIAN_POINT('',(57.,18.3925103348717,8.00824167029828));
#1740=CARTESIAN_POINT('',(57.,21.,8.00824167029828));
#1741=CARTESIAN_POINT('',(57.,21.,8.00824167029828));
#1742=CARTESIAN_POINT('',(12.1520604175746,7.35,9.65));
#1743=CARTESIAN_POINT('',(-3.,7.,9.3));
#1744=CARTESIAN_POINT('',(55.5,15.9462551674359,7.5));
#1745=CARTESIAN_POINT('',(54.,14.8925103348717,9.));
#1746=CARTESIAN_POINT('',(57.,17.8925103348717,6.));
#1747=CARTESIAN_POINT('',(57.,17.8925103348717,6.));
#1748=CARTESIAN_POINT('',(57.,10.5425103803572,6.));
#1749=CARTESIAN_POINT('',(55.3,10.5425103803572,7.7));
#1750=CARTESIAN_POINT('',(55.3,10.5425103803572,7.7));
#1751=CARTESIAN_POINT('',(55.3,8.7,7.7));
#1752=CARTESIAN_POINT('',(55.3,8.7,7.7));
#1753=CARTESIAN_POINT('',(54.7,8.7,8.3));
#1754=CARTESIAN_POINT('',(-1.3,8.7,-1.));
#1755=CARTESIAN_POINT('',(-1.3,19.0501091988124,8.54989080118765));
#1756=CARTESIAN_POINT('',(-1.3,19.0501091988124,-1.));
#1757=CARTESIAN_POINT('',(-1.3,19.0501091988124,-1.));
#1758=CARTESIAN_POINT('',(57.,10.0425103803572,0.));
#1759=CARTESIAN_POINT('',(57.,10.0425103803572,0.));
#1760=CARTESIAN_POINT('',(58.0082416702983,10.0425103803572,0.));
#1761=CARTESIAN_POINT('',(57.,7.,0.));
#1762=CARTESIAN_POINT('',(57.,7.,0.));
#1763=CARTESIAN_POINT('',(-3.,7.,0.));
#1764=CARTESIAN_POINT('',(-3.,9.15010919881235,8.14999729970438));
#1765=CARTESIAN_POINT('',(-1.9,9.15010919881235,-1.));
#1766=CARTESIAN_POINT('',(-1.9,9.15010919881235,-1.));
#1767=CARTESIAN_POINT('',(-1.9,9.15010919881235,0.));
#1768=CARTESIAN_POINT('',(27.0000001137743,14.,-1.));
#1769=CARTESIAN_POINT('',(-1.3,19.0501091988124,-1.));
#1770=CARTESIAN_POINT('',(-1.9,19.0501091988124,-1.));
#1771=CARTESIAN_POINT('',(-1.9,19.9,-1.));
#1772=CARTESIAN_POINT('',(-1.9,19.9,-1.));
#1773=CARTESIAN_POINT('',(55.8999993339828,19.9,-1.));
#1774=CARTESIAN_POINT('',(55.8999993339828,19.9,-1.));
#1775=CARTESIAN_POINT('',(55.9000002275486,18.6925103348717,-1.));
#1776=CARTESIAN_POINT('',(55.9000002275486,18.6925103348717,-1.));
#1777=CARTESIAN_POINT('',(55.9000002275486,18.6925103348717,-1.));
#1778=CARTESIAN_POINT('',(55.9000002275486,17.8925103348717,-1.));
#1779=CARTESIAN_POINT('',(55.3000005975581,17.8925103348717,-1.));
#1780=CARTESIAN_POINT('',(55.3000005975581,17.8925103348717,-1.));
#1781=CARTESIAN_POINT('',(55.3000005975581,18.1925103348717,-1.));
#1782=CARTESIAN_POINT('',(55.3000005975581,18.1925103348717,-1.));
#1783=CARTESIAN_POINT('',(55.2999997779942,19.3,-1.));
#1784=CARTESIAN_POINT('',(27.0000001137743,14.,-1.));
#1785=CARTESIAN_POINT('',(55.3,8.7,-1.));
#1786=CARTESIAN_POINT('',(55.3,8.7,-1.));
#1787=CARTESIAN_POINT('',(55.3,10.5425103803572,-1.));
#1788=CARTESIAN_POINT('',(55.3,10.5425103803572,-1.));
#1789=CARTESIAN_POINT('',(55.9,10.5425103803572,-1.));
#1790=CARTESIAN_POINT('',(55.9,10.5425103803572,-1.));
#1791=CARTESIAN_POINT('',(55.9,8.1,-1.));
#1792=CARTESIAN_POINT('',(55.9,8.1,-1.));
#1793=CARTESIAN_POINT('',(-1.9,8.1,-1.));
#1794=CARTESIAN_POINT('',(-1.9,8.1,-1.));
#1795=CARTESIAN_POINT('',(-1.9,9.15010919881235,-1.));
#1796=CARTESIAN_POINT('',(-1.9,19.9,-1.));
#1797=CARTESIAN_POINT('',(-1.9,19.0501091988124,-1.));
#1798=CARTESIAN_POINT('',(-1.9,19.9,-1.));
#1799=CARTESIAN_POINT('',(-3.,19.0501091988124,0.));
#1800=CARTESIAN_POINT('',(53.8000017390385,16.6500092487194,7.5));
#1801=CARTESIAN_POINT('',(55.2999997779942,19.3,6.));
#1802=CARTESIAN_POINT('',(55.3000005975581,18.1925103348717,6.00000000000001));
#1803=CARTESIAN_POINT('',(55.3000005975581,18.1925103348717,6.));
#1804=CARTESIAN_POINT('',(41.3020607163536,16.3925103348717,7.5));
#1805=CARTESIAN_POINT('',(55.3000005975581,17.8925103348717,6.));
#1806=CARTESIAN_POINT('',(55.3000005975581,17.8925103348717,6.));
#1807=CARTESIAN_POINT('',(52.3000005975581,14.8925103348717,9.));
#1808=CARTESIAN_POINT('',(53.8000005975581,16.0962551674358,7.5));
#1809=CARTESIAN_POINT('',(55.3000005975581,18.1925103348717,6.));
#1810=CARTESIAN_POINT('',(55.3,8.7,-1.));
#1811=CARTESIAN_POINT('',(55.3,8.7,-1.));
#1812=CARTESIAN_POINT('',(57.6082416702983,14.2175106233669,0.399998781197084));
#1813=CARTESIAN_POINT('',(57.4,14.2175106233669,3.79999878119708));
#1814=CARTESIAN_POINT('',(57.,14.2175106233669,3.79999878119708));
#1815=CARTESIAN_POINT('',(58.0082416702983,14.2175106233669,3.79999878119708));
#1816=CARTESIAN_POINT('',(57.,14.2175106233669,0.399998781197084));
#1817=CARTESIAN_POINT('',(58.0082416702983,14.2175106233669,0.399998781197084));
#1818=CARTESIAN_POINT('',(57.,17.8925103348717,0.));
#1819=CARTESIAN_POINT('',(57.,17.8925103348717,0.));
#1820=CARTESIAN_POINT('',(57.,10.5425103803572,0.));
#1821=CARTESIAN_POINT('',(35.,14.,9.25));
#1822=CARTESIAN_POINT('',(32.8,14.,9.1));
#1823=CARTESIAN_POINT('',(33.4,14.,8.5));
#1824=CARTESIAN_POINT('',(38.1,14.,10.));
#1825=CARTESIAN_POINT('',(36.6,14.,8.5));
#1826=CARTESIAN_POINT('',(35.,14.,8.5));
#1827=CARTESIAN_POINT('',(35.,14.,9.));
#1828=CARTESIAN_POINT('',(36.6,14.,-0.5));
#1829=CARTESIAN_POINT('',(36.6,14.,0.));
#1830=CARTESIAN_POINT('',(35.,14.,0.));
#1831=CARTESIAN_POINT('',(33.4,14.,0.));
#1832=CARTESIAN_POINT('',(33.4,14.,0.));
#1833=CARTESIAN_POINT('',(35.,14.,0.));
#1834=CARTESIAN_POINT('',(57.,21.,0.));
#1835=CARTESIAN_POINT('',(57.,21.,0.));
#1836=CARTESIAN_POINT('',(57.,18.3925103348717,0.));
#1837=CARTESIAN_POINT('',(57.,18.3925103348717,0.));
#1838=CARTESIAN_POINT('',(57.6082416702983,18.3925103348717,0.));
#1839=CARTESIAN_POINT('',(58.0082416702983,18.3925103348717,0.));
#1840=CARTESIAN_POINT('',(58.0082416702983,10.0425103803572,0.));
#1841=CARTESIAN_POINT('',(58.0082416702983,14.2175106233669,0.399998781197084));
#1842=CARTESIAN_POINT('',(55.3,10.5425103803572,-1.));
#1843=CARTESIAN_POINT('',(55.3,10.5425103803572,-1.));
#1844=CARTESIAN_POINT('',(55.9,10.5425103803572,-1.));
#1845=CARTESIAN_POINT('',(55.9,10.5425103803572,-1.));
#1846=CARTESIAN_POINT('',(55.9,8.1,-1.));
#1847=CARTESIAN_POINT('',(55.9,8.1,-1.));
#1848=CARTESIAN_POINT('',(-1.9,8.1,-1.));
#1849=CARTESIAN_POINT('',(-1.9,8.1,-1.));
#1850=CARTESIAN_POINT('',(-1.9,19.9,-1.));
#1851=CARTESIAN_POINT('',(55.8999993339828,19.9,-1.));
#1852=CARTESIAN_POINT('',(55.8999993339828,19.9,-1.));
#1853=CARTESIAN_POINT('',(55.9000002275486,18.6925103348717,-1.));
#1854=CARTESIAN_POINT('',(55.9000002275486,18.6925103348717,-1.));
#1855=CARTESIAN_POINT('',(55.9000002275486,17.8925103348717,-1.));
#1856=CARTESIAN_POINT('',(55.9000002275486,17.8925103348717,-1.));
#1857=CARTESIAN_POINT('',(55.3000005975581,17.8925103348717,-1.));
#1858=CARTESIAN_POINT('',(55.3000005975581,17.8925103348717,-1.));
#1859=CARTESIAN_POINT('',(55.3000005975581,18.1925103348717,-1.));
#1860=CARTESIAN_POINT('',(55.3000005975581,18.1925103348717,-1.));
#1861=CARTESIAN_POINT('',(55.2999997779942,19.3,-1.));
#1862=CARTESIAN_POINT('',(35.,14.,8.25));
#1863=CARTESIAN_POINT('',(35.,14.,9.));
#1864=CARTESIAN_POINT('',(57.6082416702983,14.2175106233669,0.399998781197084));
#1865=CARTESIAN_POINT('',(35.,14.,9.25));
#1866=CARTESIAN_POINT('',(35.,14.,8.5));
#1867=CARTESIAN_POINT('',(35.,14.,9.));
#1868=PLANE('',#1224);
#1869=PLANE('',#1225);
#1870=PLANE('',#1226);
#1871=PLANE('',#1227);
#1872=PLANE('',#1228);
#1873=PLANE('',#1230);
#1874=PLANE('',#1231);
#1875=PLANE('',#1232);
#1876=PLANE('',#1233);
#1877=PLANE('',#1234);
#1878=PLANE('',#1235);
#1879=PLANE('',#1236);
#1880=PLANE('',#1237);
#1881=PLANE('',#1238);
#1882=PLANE('',#1240);
#1883=PLANE('',#1241);
#1884=PLANE('',#1242);
#1885=PLANE('',#1247);
#1886=PLANE('',#1248);
#1887=PLANE('',#1249);
#1888=PLANE('',#1250);
#1889=PLANE('',#1251);
#1890=PLANE('',#1252);
#1891=PLANE('',#1253);
#1892=PLANE('',#1254);
#1893=PLANE('',#1255);
#1894=PLANE('',#1256);
#1895=PLANE('',#1257);
#1896=PLANE('',#1258);
#1897=PLANE('',#1259);
#1898=PLANE('',#1260);
#1899=PLANE('',#1261);
#1900=PLANE('',#1262);
#1901=PLANE('',#1263);
#1902=PLANE('',#1267);
#1903=PLANE('',#1272);
#1904=PLANE('',#1273);
#1905=PLANE('',#1274);
#1906=PLANE('',#1275);
#1907=PLANE('',#1276);
#1908=PLANE('',#1278);
#1909=PLANE('',#1279);
#1910=PLANE('',#1280);
#1911=PLANE('',#1281);
#1912=PLANE('',#1282);
#1913=PLANE('',#1283);
#1914=PLANE('',#1284);
#1915=PLANE('',#1285);
#1916=PLANE('',#1286);
#1917=PLANE('',#1287);
#1918=PLANE('',#1288);
#1919=CLOSED_SHELL('',(#1163,#1164,#1165,#1166,#1167,#1168,#1169,#1170,
#1171,#1172,#1173,#1174,#1175,#1176,#1177,#1178,#1179,#1180,#1181,#1182,
#1183,#1184,#1185,#1186,#1187,#1188,#1189,#1190,#1191,#1192,#1193,#1194,
#1195,#1196,#1197,#1198,#1199,#1200,#1201,#1202,#1203,#1204,#1205,#1206,
#1207,#1208,#1209,#1210,#1211,#1212,#1213,#1214,#1215,#1216,#1217,#1218,
#1219,#1220,#1221,#1222,#1223));
#1920=MANIFOLD_SOLID_BREP('',#1919);
#1921=ADVANCED_BREP_SHAPE_REPRESENTATION('',(#1920),#102);
ENDSEC;
END-ISO-10303-21;
